<svg xmlns="http://www.w3.org/2000/svg" xmlns:xlink="http://www.w3.org/1999/xlink" version="1.1" x="0px" y="0px" viewBox="0 0 100 125" enable-background="new 0 0 100 100" xml:space="preserve"><g><rect x="41.218" y="63.194" transform="matrix(0.7071 -0.7071 0.7071 0.7071 -28.3522 58.5391)" width="30.537" height="0.599"/><rect x="63.403" y="57.719" transform="matrix(-0.7071 -0.7071 0.7071 -0.7071 62.673 156.2774)" width="0.599" height="14.88"/><path d="M90.494,38.957c-0.001-0.021-0.008-0.037-0.012-0.058c-0.012-0.066-0.035-0.126-0.071-0.181   c-0.007-0.012-0.006-0.025-0.014-0.036L78.007,22.481c-0.095-0.124-0.242-0.196-0.397-0.196h-15.19   c-0.011-0.111-0.052-0.221-0.138-0.307l-9.92-9.92c-0.188-0.188-0.52-0.188-0.707,0L41.429,22.285H22.391   c-0.155,0-0.303,0.072-0.397,0.196L9.603,38.683c-0.008,0.011-0.007,0.024-0.015,0.036c-0.035,0.055-0.059,0.114-0.07,0.181   c-0.004,0.021-0.011,0.037-0.012,0.058C9.505,38.967,9.5,38.976,9.5,38.986v48.602c0,0.276,0.224,0.5,0.5,0.5h80   c0.276,0,0.5-0.224,0.5-0.5V38.986C90.5,38.976,90.495,38.967,90.494,38.957z M52.008,13.119l9.213,9.213l-7.889,7.889l0.054,0.054   H42.599l0.054-0.054l-3.873-3.872L52.008,13.119z M22.638,23.285h17.791l-2.71,2.71c-0.094,0.094-0.146,0.221-0.146,0.354   s0.053,0.26,0.146,0.354l3.573,3.572h-3.863v0.6h4.463l0.054,0.054l0.054-0.054h11.986l0.054,0.054l0.054-0.054h8.479v-0.6h-7.879   l6.989-6.989h15.681l11.626,15.201H11.012L22.638,23.285z M89.5,87.088h-79V39.486h79V87.088z"/><path d="M20.503,81.507h58.994c0.166,0,0.3-0.134,0.3-0.3v-35.84c0-0.166-0.134-0.3-0.3-0.3H20.503c-0.166,0-0.3,0.134-0.3,0.3   v35.84C20.203,81.373,20.337,81.507,20.503,81.507z M20.803,45.667h58.395v35.24H20.803V45.667z"/></g><text x="0" y="115" fill="#000000" font-size="5px" font-weight="bold" font-family="'Helvetica Neue', Helvetica, Arial-Unicode, Arial, Sans-serif">Created by Juan Pablo Bravo</text><text x="0" y="120" fill="#000000" font-size="5px" font-weight="bold" font-family="'Helvetica Neue', Helvetica, Arial-Unicode, Arial, Sans-serif">from the Noun Project</text></svg>