<svg xmlns="http://www.w3.org/2000/svg" viewBox="0 0 503.16 503.16"><defs><style>.cls-1{fill:#dbb36c;stroke:#000;stroke-miterlimit:10;stroke-width:3.16px;}</style></defs><title>centre</title><g id="Calque_2" data-name="Calque 2"><g id="Calque_1-2" data-name="Calque 1"><circle class="cls-1" cx="251.58" cy="251.58" r="250"/></g><g id="Calque_2-2" data-name="Calque 2"><path d="M154.93,95.21h7.74V123h13.58v6.53H154.93Z"/><path d="M179.3,116.47c0-8.47,6.05-13.68,12.31-13.68,7.42,0,11.1,5.42,11.1,12.53a17.12,17.12,0,0,1-.32,3.42H186.77c.68,3.79,3.32,5.53,6.79,5.53a10.51,10.51,0,0,0,5.63-1.74l2.58,4.68a17.08,17.08,0,0,1-9.26,2.95C185,130.15,179.3,125.1,179.3,116.47Zm16.84-2.84c0-2.89-1.26-4.95-4.37-4.95-2.42,0-4.53,1.63-5.05,4.95Z"/><path d="M205.77,126.52l3.47-4.84c2.37,1.79,4.53,2.74,6.74,2.74s3.32-.84,3.32-2.21c0-1.74-2.63-2.53-5.32-3.58-3.16-1.21-6.89-3.37-6.89-7.68,0-4.84,3.95-8.16,10-8.16a15,15,0,0,1,9.21,3.32l-3.47,4.63a9.63,9.63,0,0,0-5.53-2.21c-2,0-2.95.74-2.95,2.05,0,1.68,2.42,2.32,5.1,3.32,3.32,1.21,7.05,3.05,7.05,7.84s-3.74,8.42-10.74,8.42A16.85,16.85,0,0,1,205.77,126.52Z"/><path d="M240.93,112.58c0-11.37,7.53-18,16.21-18a14.51,14.51,0,0,1,10.31,4.47l-4.1,4.95a8.77,8.77,0,0,0-6.05-2.74c-4.68,0-8.42,4.16-8.42,11.05,0,7.05,3.26,11.16,8.31,11.16a9.15,9.15,0,0,0,6.68-3.21l4.1,4.84a14.12,14.12,0,0,1-11.1,5.05C248.19,130.15,240.93,124.1,240.93,112.58Z"/><path d="M271.93,95.52c0-2.37,1.9-4,4.47-4s4.47,1.63,4.47,4-1.84,4.05-4.47,4.05S271.93,97.89,271.93,95.52Zm.63,7.89h7.74v26.1h-7.74Z"/><path d="M284.3,103.42h7.79l3.37,12.31c.68,2.58,1.37,5.32,2.05,8.05h.21c.63-2.74,1.32-5.47,2-8.05l3.42-12.31h7.42L302,129.52h-8.95Z"/><path d="M314,95.52c0-2.37,1.9-4,4.47-4s4.47,1.63,4.47,4-1.84,4.05-4.47,4.05S314,97.89,314,95.52Zm.63,7.89h7.74v26.1h-7.74Z"/><path d="M327.61,116.47c0-8.68,6.37-13.68,13.58-13.68a11.52,11.52,0,0,1,7.63,2.79l-3.63,5a5.34,5.34,0,0,0-3.53-1.53c-3.74,0-6.1,2.89-6.1,7.42s2.47,7.42,5.84,7.42a8,8,0,0,0,4.68-1.89l3.05,5.05a13,13,0,0,1-8.63,3.1C333.24,130.15,327.61,125.15,327.61,116.47Z"/><path d="M196.09,164.89h-9.42v-6.53H213.3v6.53h-9.42v27.79h-7.79Z"/><path d="M212.51,179.63c0-8.47,6.05-13.68,12.31-13.68,7.42,0,11.1,5.42,11.1,12.53a17.12,17.12,0,0,1-.32,3.42H220c.68,3.79,3.32,5.53,6.79,5.53a10.51,10.51,0,0,0,5.63-1.74l2.58,4.68a17.08,17.08,0,0,1-9.26,2.95C218.24,193.31,212.51,188.26,212.51,179.63Zm16.84-2.84c0-2.89-1.26-4.95-4.37-4.95-2.42,0-4.53,1.63-5.05,4.95Z"/><path d="M239.77,179.63c0-8.68,6.37-13.68,13.58-13.68a11.52,11.52,0,0,1,7.63,2.79l-3.63,5a5.34,5.34,0,0,0-3.53-1.53c-3.74,0-6.1,2.89-6.1,7.42s2.47,7.42,5.84,7.42a8,8,0,0,0,4.68-1.89l3.05,5.05a13,13,0,0,1-8.63,3.11C245.4,193.31,239.77,188.31,239.77,179.63Z"/><path d="M265.88,155.79h7.74v9.05l-.37,4.68c1.95-1.74,4.53-3.58,8.05-3.58,5.68,0,8.1,4,8.1,10.53v16.21h-7.74V177.47c0-3.79-1-4.95-3.21-4.95-1.95,0-3.16.89-4.84,2.53v17.63h-7.74Z"/><path d="M293.61,189.68l3.47-4.84c2.37,1.79,4.53,2.74,6.74,2.74s3.32-.84,3.32-2.21c0-1.74-2.63-2.53-5.32-3.58-3.16-1.21-6.89-3.37-6.89-7.68,0-4.84,3.95-8.16,10-8.16a15,15,0,0,1,9.21,3.32l-3.47,4.63a9.63,9.63,0,0,0-5.53-2.21c-2,0-2.95.74-2.95,2.05,0,1.68,2.42,2.32,5.1,3.32,3.32,1.21,7.05,3.05,7.05,7.84s-3.74,8.42-10.74,8.42A16.85,16.85,0,0,1,293.61,189.68Z"/><path d="M96.27,229.73h6.32l.53,2.58h.21a11.47,11.47,0,0,1,7.42-3.21c6.31,0,10.21,5.21,10.21,13.26,0,8.95-5.37,14.1-11,14.1a9,9,0,0,1-6.21-2.74l.26,4.16v7.63H96.27ZM113,242.47c0-4.68-1.42-7.05-4.53-7.05-1.58,0-2.95.74-4.47,2.37v10.68a6,6,0,0,0,4.16,1.68C110.85,250.15,113,247.84,113,242.47Z"/><path d="M124.9,242.79c0-8.47,6.05-13.68,12.31-13.68,7.42,0,11.1,5.42,11.1,12.53A17.1,17.1,0,0,1,148,245H132.38c.68,3.79,3.32,5.53,6.79,5.53a10.52,10.52,0,0,0,5.63-1.74l2.58,4.68a17.08,17.08,0,0,1-9.26,2.95C130.64,256.47,124.9,251.42,124.9,242.79Zm16.84-2.84c0-2.89-1.26-4.95-4.37-4.95-2.42,0-4.53,1.63-5.05,4.95Z"/><path d="M153.43,245.94V229.73h7.74v15.21c0,3.74,1,4.95,3.26,4.95,1.95,0,3.1-.84,4.63-2.89V229.73h7.74v26.1h-6.32l-.58-3.63h-.16c-2.21,2.63-4.63,4.26-8.21,4.26C155.85,256.47,153.43,252.47,153.43,245.94Z"/><path d="M180.8,229.73h7.79L192,242c.68,2.58,1.37,5.32,2.05,8.05h.21c.63-2.74,1.32-5.47,2-8.05l3.42-12.32h7.42l-8.53,26.1h-8.95Z"/><path d="M209.17,242.79c0-8.47,6.05-13.68,12.31-13.68,7.42,0,11.1,5.42,11.1,12.53a17.1,17.1,0,0,1-.32,3.42H216.64c.68,3.79,3.32,5.53,6.79,5.53a10.52,10.52,0,0,0,5.63-1.74l2.58,4.68a17.08,17.08,0,0,1-9.26,2.95C214.9,256.47,209.17,251.42,209.17,242.79ZM226,239.94c0-2.89-1.26-4.95-4.37-4.95-2.42,0-4.53,1.63-5.05,4.95Z"/><path d="M238,229.73h6.32l.53,3.32H245c2.21-2.1,4.84-3.95,8.37-3.95,5.68,0,8.1,4,8.1,10.53v16.21h-7.74V240.63c0-3.79-1-4.95-3.21-4.95-1.95,0-3.16.89-4.84,2.53v17.63H238Z"/><path d="M269.11,246.37V235.79h-3.58v-5.74l4-.32.89-6.95h6.42v6.95h6.26v6.05h-6.26v10.47c0,2.95,1.32,4.16,3.37,4.16a7.38,7.38,0,0,0,2.47-.53l1.21,5.63a18.8,18.8,0,0,1-5.79.95C271.64,256.47,269.11,252.42,269.11,246.37Z"/><path d="M285.17,239.79h12.95v5.47H285.17Z"/><path d="M302.27,242.79c0-8.47,6.05-13.68,12.31-13.68,7.42,0,11.1,5.42,11.1,12.53a17.1,17.1,0,0,1-.32,3.42H309.74c.68,3.79,3.32,5.53,6.79,5.53a10.52,10.52,0,0,0,5.63-1.74l2.58,4.68a17.08,17.08,0,0,1-9.26,2.95C308,256.47,302.27,251.42,302.27,242.79Zm16.84-2.84c0-2.89-1.26-4.95-4.37-4.95-2.42,0-4.53,1.63-5.05,4.95Z"/><path d="M331.06,247.73V218.95h7.74V248c0,1.63.74,2.16,1.37,2.16a3.24,3.24,0,0,0,.95-.11l.95,5.74a10.09,10.09,0,0,1-3.89.63C332.85,256.47,331.06,253,331.06,247.73Z"/><path d="M346.11,247.73V218.95h7.74V248c0,1.63.74,2.16,1.37,2.16a3.24,3.24,0,0,0,.95-.11l.95,5.74a10.09,10.09,0,0,1-3.89.63C347.9,256.47,346.11,253,346.11,247.73Z"/><path d="M359.64,242.79c0-8.47,6.05-13.68,12.31-13.68,7.42,0,11.1,5.42,11.1,12.53a17.1,17.1,0,0,1-.32,3.42H367.11c.68,3.79,3.32,5.53,6.79,5.53a10.52,10.52,0,0,0,5.63-1.74l2.58,4.68a17.08,17.08,0,0,1-9.26,2.95C365.37,256.47,359.64,251.42,359.64,242.79Zm16.84-2.84c0-2.89-1.26-4.95-4.37-4.95-2.42,0-4.53,1.63-5.05,4.95Z"/><path d="M386.11,252.84l3.47-4.84c2.37,1.79,4.53,2.74,6.74,2.74s3.32-.84,3.32-2.21c0-1.74-2.63-2.53-5.32-3.58-3.16-1.21-6.89-3.37-6.89-7.68,0-4.84,3.95-8.16,10-8.16a15,15,0,0,1,9.21,3.32L403.16,237a9.63,9.63,0,0,0-5.53-2.21c-2,0-2.95.74-2.95,2.05,0,1.68,2.42,2.32,5.1,3.32,3.32,1.21,7.05,3.05,7.05,7.84s-3.74,8.42-10.74,8.42A16.85,16.85,0,0,1,386.11,252.84Z"/><path d="M140.54,292.89h6.32l.53,4.58h.21c1.9-3.53,4.74-5.21,7.42-5.21a7.51,7.51,0,0,1,3.1.53l-1.26,6.68A9.73,9.73,0,0,0,154,299c-1.95,0-4.37,1.26-5.74,4.79V319h-7.74Z"/><path d="M159.43,305.94c0-8.47,6.05-13.68,12.31-13.68,7.42,0,11.1,5.42,11.1,12.53a17.1,17.1,0,0,1-.32,3.42H166.9c.68,3.79,3.32,5.53,6.79,5.53a10.52,10.52,0,0,0,5.63-1.74l2.58,4.68a17.08,17.08,0,0,1-9.26,2.95C165.17,319.63,159.43,314.57,159.43,305.94Zm16.84-2.84c0-2.89-1.26-4.95-4.37-4.95-2.42,0-4.53,1.63-5.05,4.95Zm-7.79-18,8.1-9.58,5.21,5.11-9.53,8.26Z"/><path d="M188.22,292.89h6.32l.53,2.58h.21a11.47,11.47,0,0,1,7.42-3.21c6.31,0,10.21,5.21,10.21,13.26,0,8.95-5.37,14.1-11,14.1a9,9,0,0,1-6.21-2.74L196,321v7.63h-7.74ZM205,305.63c0-4.68-1.42-7.05-4.53-7.05-1.58,0-2.95.74-4.47,2.37v10.68a6,6,0,0,0,4.16,1.68C202.8,313.31,205,311,205,305.63Z"/><path d="M216.59,311.73c0-5.47,4.37-8.47,14.68-9.53-.16-2.32-1.26-3.79-4.1-3.79-2.21,0-4.37.89-6.89,2.37l-2.79-5.11a21.58,21.58,0,0,1,11.16-3.42C235.32,292.26,239,296,239,304V319h-6.32l-.53-2.68H232c-2.21,1.95-4.63,3.32-7.58,3.32A7.51,7.51,0,0,1,216.59,311.73Zm14.68-.32v-4.58c-5.47.74-7.26,2.32-7.26,4.32,0,1.68,1.16,2.47,3,2.47S229.9,312.79,231.27,311.42Z"/><path d="M245.54,292.89h6.32l.53,4.58h.21c1.9-3.53,4.74-5.21,7.42-5.21a7.51,7.51,0,0,1,3.1.53l-1.26,6.68A9.73,9.73,0,0,0,259,299c-1.95,0-4.37,1.26-5.74,4.79V319h-7.74Z"/><path d="M264.43,305.94c0-8.47,6.05-13.68,12.31-13.68,7.42,0,11.1,5.42,11.1,12.53a17.1,17.1,0,0,1-.32,3.42H271.9c.68,3.79,3.32,5.53,6.79,5.53a10.52,10.52,0,0,0,5.63-1.74l2.58,4.68a17.08,17.08,0,0,1-9.26,2.95C270.17,319.63,264.43,314.57,264.43,305.94Zm16.84-2.84c0-2.89-1.26-4.95-4.37-4.95-2.42,0-4.53,1.63-5.05,4.95Z"/><path d="M293.22,292.89h6.32l.53,4.58h.21c1.9-3.53,4.74-5.21,7.42-5.21a7.51,7.51,0,0,1,3.1.53l-1.26,6.68a9.73,9.73,0,0,0-2.84-.42c-1.95,0-4.37,1.26-5.74,4.79V319h-7.74Z"/><path d="M324.69,310.89V282.1h7.74v29.1c0,1.63.74,2.16,1.37,2.16a3.24,3.24,0,0,0,.95-.11l.95,5.74a10.09,10.09,0,0,1-3.89.63C326.48,319.63,324.69,316.15,324.69,310.89Z"/><path d="M338.53,311.73c0-5.47,4.37-8.47,14.68-9.53-.16-2.32-1.26-3.79-4.1-3.79-2.21,0-4.37.89-6.89,2.37l-2.79-5.11a21.58,21.58,0,0,1,11.16-3.42C357.27,292.26,361,296,361,304V319h-6.32l-.53-2.68h-.21c-2.21,1.95-4.63,3.32-7.58,3.32A7.51,7.51,0,0,1,338.53,311.73Zm14.68-.32v-4.58c-5.47.74-7.26,2.32-7.26,4.32,0,1.68,1.16,2.47,3,2.47S351.85,312.79,353.22,311.42Z"/><path d="M102.93,369.1c0-8.53,5.32-13.68,10.84-13.68a8.55,8.55,0,0,1,6.42,2.74l-.32-4v-8.89h7.74v36.89H121.3l-.53-2.58h-.21a10.33,10.33,0,0,1-6.95,3.21C107.14,382.79,102.93,377.63,102.93,369.1Zm16.95,5V363.42a6.18,6.18,0,0,0-4.32-1.68c-2.47,0-4.68,2.32-4.68,7.26,0,5.16,1.74,7.47,4.74,7.47A4.9,4.9,0,0,0,119.88,374.1Z"/><path d="M132.93,369.1c0-8.47,6.05-13.68,12.31-13.68,7.42,0,11.1,5.42,11.1,12.53a17.1,17.1,0,0,1-.32,3.42H140.4c.68,3.79,3.32,5.53,6.79,5.53a10.52,10.52,0,0,0,5.63-1.74l2.58,4.68a17.08,17.08,0,0,1-9.26,2.95C138.67,382.79,132.93,377.73,132.93,369.1Zm16.84-2.84c0-2.89-1.26-4.95-4.37-4.95-2.42,0-4.53,1.63-5.05,4.95Zm-7.79-18,8.1-9.58,5.21,5.11-9.53,8.26Z"/><path d="M161.72,356H168l.53,3.37h.21c2.16-2.16,4.47-4,7.89-4,3.68,0,5.89,1.58,7.21,4.37,2.32-2.37,4.74-4.37,8.21-4.37,5.63,0,8.16,4,8.16,10.53v16.21h-7.74V366.94c0-3.79-1-4.95-3.21-4.95-1.32,0-2.79.84-4.47,2.53v17.63h-7.74V366.94c0-3.79-1-4.95-3.21-4.95-1.26,0-2.79.84-4.42,2.53v17.63h-7.74Z"/><path d="M205.3,369.1c0-8.68,6.1-13.68,12.74-13.68s12.68,5,12.68,13.68-6.1,13.68-12.68,13.68S205.3,377.79,205.3,369.1Zm17.52,0c0-4.53-1.63-7.42-4.79-7.42s-4.79,2.89-4.79,7.42,1.58,7.42,4.79,7.42S222.82,373.63,222.82,369.1Z"/><path d="M234.51,369.1c0-8.68,6.37-13.68,13.58-13.68a11.52,11.52,0,0,1,7.63,2.79l-3.63,5a5.35,5.35,0,0,0-3.53-1.53c-3.74,0-6.1,2.89-6.1,7.42s2.47,7.42,5.84,7.42a8,8,0,0,0,4.68-1.89l3.05,5.05a13,13,0,0,1-8.63,3.11C240.14,382.79,234.51,377.79,234.51,369.1Z"/><path d="M260.61,356h6.32l.53,4.58h.21c1.9-3.53,4.74-5.21,7.42-5.21a7.51,7.51,0,0,1,3.1.53l-1.26,6.68a9.73,9.73,0,0,0-2.84-.42c-1.95,0-4.37,1.26-5.74,4.79v15.16h-7.74Z"/><path d="M278.88,374.89c0-5.47,4.37-8.47,14.68-9.53-.16-2.32-1.26-3.79-4.1-3.79-2.21,0-4.37.89-6.89,2.37l-2.79-5.11a21.58,21.58,0,0,1,11.16-3.42c6.68,0,10.37,3.79,10.37,11.79v14.95H295l-.53-2.68h-.21c-2.21,1.95-4.63,3.32-7.58,3.32A7.51,7.51,0,0,1,278.88,374.89Zm14.68-.32V370c-5.47.74-7.26,2.32-7.26,4.32,0,1.68,1.16,2.47,3,2.47S292.19,375.94,293.56,374.58Z"/><path d="M307.93,372.68V362.1h-3.58v-5.74l4-.32.89-6.95h6.42V356h6.26v6.05h-6.26v10.47c0,2.95,1.32,4.16,3.37,4.16a7.38,7.38,0,0,0,2.47-.53l1.21,5.63a18.8,18.8,0,0,1-5.79.95C310.45,382.79,307.93,378.73,307.93,372.68Z"/><path d="M326.4,348.16c0-2.37,1.9-4,4.47-4s4.47,1.63,4.47,4-1.84,4.05-4.47,4.05S326.4,350.52,326.4,348.16ZM327,356h7.74v26.1H327Z"/><path d="M340,369.1c0-8.47,6.05-13.68,12.31-13.68,7.42,0,11.1,5.42,11.1,12.53a17.1,17.1,0,0,1-.32,3.42H347.51c.68,3.79,3.32,5.53,6.79,5.53a10.52,10.52,0,0,0,5.63-1.74l2.58,4.68a17.08,17.08,0,0,1-9.26,2.95C345.77,382.79,340,377.73,340,369.1Zm16.84-2.84c0-2.89-1.26-4.95-4.37-4.95-2.42,0-4.53,1.63-5.05,4.95Z"/><path d="M390.66,355.84c0-2.16-1.42-3.32-3.53-3.32-1.95,0-3.37,1-4.79,2.42l-4.26-3.89a13.26,13.26,0,0,1,10.05-4.79c5.63,0,9.95,2.79,9.95,9,0,6.53-7.89,8.47-7.26,14.74H384C383,362.79,390.66,359.79,390.66,355.84Zm-7.89,22.1a4.66,4.66,0,1,1,4.63,4.84A4.64,4.64,0,0,1,382.77,377.94Z"/></g></g></svg>