<svg xmlns="http://www.w3.org/2000/svg" viewBox="0 0 702.9 703"><defs><style>.cls-1{fill:#c76e59;stroke:#000;stroke-miterlimit:10;stroke-width:3px;}</style></defs><title>milieu</title><g id="Calque_2" data-name="Calque 2"><g id="Calque_3" data-name="Calque 3"><path class="cls-1" d="M113.84,273.73A250.1,250.1,0,0,1,351.28,101.45V1.5q-13.16,0-26.07.92A350.14,350.14,0,0,0,39.52,192.67,367.78,367.78,0,0,0,19,242.91Z"/><path class="cls-1" d="M145.92,633.53l58.2-80.11a250.33,250.33,0,0,1-90.29-279.69L19,242.91A365.39,365.39,0,0,0,3.87,310.63,353.67,353.67,0,0,0,1.5,351.47,348.41,348.41,0,0,0,63.06,549.78,358.45,358.45,0,0,0,145.92,633.53Z"/><path class="cls-1" d="M498.61,553.66a250,250,0,0,1-294.48-.24l-58.2,80.11c52.16,37.89,110.61,59.95,170.09,66.19a354.15,354.15,0,0,0,35.52,1.78q13.57,0,26.88-1c62.28-5,123.69-27.33,178.23-67Z"/><path class="cls-1" d="M683.56,242.91l-94.39,30.67a250.26,250.26,0,0,1-90.56,280.07l58,79.87c50.09-36.39,88.07-82.81,112.55-134.84A347.91,347.91,0,0,0,700.51,378.8,356.07,356.07,0,0,0,683.56,242.91Z"/><path class="cls-1" d="M351.28,48.54v52.9h.25c110.89,0,204.9,72.19,237.64,172.14l94.39-30.67a361.81,361.81,0,0,0-39.77-84.14C588,74.37,496.69,15.54,391.14,3.65A370.2,370.2,0,0,0,351.28,1.5v47"/><path d="M450,51.86l7.88,2.66-.82,27.17-6.9-2.33.55-5.64-6.9-2.33-3,4.82L434.2,74Zm-3.3,14.89,4.55,1.54.16-1.85c.19-2.55.59-5.75.82-8.42l-.15-.05c-1.38,2.32-3,5.07-4.38,7.22Z"/><path d="M461.31,72.75c2.56-6.12,8.69-7.72,13.93-5.53a8.8,8.8,0,0,1,4.58,4.17l-4.65,2.82a3.37,3.37,0,0,0-1.7-1.75c-2.36-1-4.5.2-5.68,3s-.37,5.22,1.63,6.06a5.57,5.57,0,0,0,3.45.05l.71,5.15a10.06,10.06,0,0,1-7-.42C461.32,84.11,458.74,78.87,461.31,72.75Z"/><path d="M477.79,79.69c2.92-6,9.14-7.19,14.24-4.7a8.8,8.8,0,0,1,4.33,4.44L491.54,82A3.37,3.37,0,0,0,490,80.13c-2.3-1.13-4.51-.07-5.85,2.66s-.67,5.19,1.27,6.14a5.57,5.57,0,0,0,3.44.26l.4,5.18a10.06,10.06,0,0,1-7-.84C477.13,91,474.86,85.66,477.79,79.69Z"/><path d="M493.85,87.58c3.21-5.63,9.29-6.77,13.53-4.35,5.14,2.93,5.44,8.07,2.78,12.73a14.32,14.32,0,0,1-1.67,2.36l-9.91-5.65c-.63,2.4.5,4,2.45,5.08a8.21,8.21,0,0,0,4.14,1l-.07,4.65a13.47,13.47,0,0,1-7.47-1.59C492.55,98.9,490.56,93.35,493.85,87.58Zm12,4.09c.75-1.32.87-2.82-.94-3.85a3.17,3.17,0,0,0-4.21.92Z"/><path d="M507.56,104.34l4.87-1.86a8.56,8.56,0,0,0,3,4.36c1.2.79,1.89.77,2.33.1.57-.87-.7-2.28-1.93-4.05-1.43-2-2.75-5-.95-7.72,2.16-3.27,6.24-3.65,10.18-1a11.84,11.84,0,0,1,4.69,6.26l-4.78,1.73a7.42,7.42,0,0,0-2.48-3.65c-1-.64-1.65-.7-2.09,0-.57.87.68,2.17,1.95,3.87,1.52,2.06,3,4.82,1,7.83s-6.13,3.91-10.8.83A13.34,13.34,0,0,1,507.56,104.34Z"/><path d="M522.42,114.18l5-1.57a8.56,8.56,0,0,0,2.71,4.53c1.15.86,1.84.88,2.32.24.62-.83-.56-2.32-1.68-4.16-1.3-2.13-2.45-5.14-.48-7.76,2.35-3.14,6.45-3.27,10.22-.44a11.84,11.84,0,0,1,4.31,6.53L539.91,113a7.43,7.43,0,0,0-2.26-3.79c-.93-.7-1.6-.8-2.08-.16-.62.83.54,2.21,1.71,4,1.39,2.14,2.66,5,.5,7.87s-6.35,3.54-10.83.18A13.34,13.34,0,0,1,522.42,114.18Z"/><path d="M549.18,112.4l5.3,4.39-12.76,15.4-5.3-4.39Zm3.47-4.81a3.86,3.86,0,1,1,.76,5.1A3.52,3.52,0,0,1,552.65,107.59Z"/><path d="M551,137.44l-.12-.11-1.88,1.2L545,134.88l19-20.38,5,4.69-4.42,4.74-2.08,2a7.36,7.36,0,0,1,5,1.89c3.46,3.22,3,8.24-1.19,12.72-4.71,5.07-10.37,5.16-13.48,2.27A6.74,6.74,0,0,1,551,137.44Zm10.13-1.61c2.24-2.4,2.46-4.05,1.11-5.3a3.34,3.34,0,0,0-3-.8l-5,5.39a3.68,3.68,0,0,0,1.22,2.45C556.6,138.66,558.46,138.65,561.08,135.83Z"/><path d="M576,136.79l4.76,5-14.44,13.83-4.76-5Zm4-4.38a3.86,3.86,0,1,1,.17,5.15A3.52,3.52,0,0,1,580,132.41Z"/><path d="M574.54,154.17l15.57-13.8,4.56,5.15-15.75,14c-1,.9-.89,1.65-.57,2a2.48,2.48,0,0,0,.54.49l-3.24,3.94a8.51,8.51,0,0,1-2.65-2.14C569.92,160.3,571.19,157.14,574.54,154.17Z"/><path d="M592.41,155l4.36,5.32-15.47,12.67-4.36-5.32Zm4.33-4.06a3.86,3.86,0,1,1-.23,5.15A3.52,3.52,0,0,1,596.73,150.89Z"/><path d="M590.69,172.45l5.58-4.16-1.58-2.12,4.11-3.06,2,2.29,4.65-2.47,3.4,4.55-4.17,3.11,2.73,3.66-4.3,3.2-2.73-3.66-5.48,4.09c-1.76,1.32-1.67,2.64-.91,3.67a5.77,5.77,0,0,0,1.31,1.22l-3.36,3.8a15.1,15.1,0,0,1-3.4-3.35C585.44,179.06,586.78,175.36,590.69,172.45Z"/><path d="M600.63,181.86c5.41-3.56,11.35-1.82,14,2.26,3.25,4.95,1.18,9.66-3.29,12.61a14.29,14.29,0,0,1-2.56,1.35l-6.27-9.52c-1.65,1.85-1.35,3.76-.12,5.64a8.2,8.2,0,0,0,3.25,2.75l-2.18,4.11a13.47,13.47,0,0,1-5.94-4.81C594.33,191.37,595.08,185.51,600.63,181.86Zm8.87,9.11c1.27-.84,2.05-2.12.91-3.86a3.17,3.17,0,0,0-4.17-1.09Zm8.57-12.15,9.76,1.15-1.26,6.38-9.46-2.87Z"/><path d="M93.47,177l-4,5.6-4.69-3.34,12-16.81,4.69,3.34-4,5.6,16.48,11.75-4,5.6Z"/><path d="M103.26,164.05l3.52-4.36,3,1.79.1-.12c-1.19-2.86-.71-5.36.52-6.88a6,6,0,0,1,1.87-1.68l3.9,4.59a9.42,9.42,0,0,0-1.66,1.54c-.9,1.12-1.33,3,0,5.35l8.65,7-4.32,5.35Z"/><path d="M123.6,161.64c-3.08-2.8-2.64-6.73,1.94-12.95-1.17-.85-2.24-.63-3.42.67a10.9,10.9,0,0,0-2.15,4.86L115,153a16.86,16.86,0,0,1,4-8.29c3.5-3.85,7.67-4.27,12.52.14l8.23,7.48L136,156.46l-1.74-.94-.11.12a8.11,8.11,0,0,1-1.94,5.7A5.88,5.88,0,0,1,123.6,161.64Zm7-8.37-2-1.83c-1.85,2.75-1.78,4.22-1,5s1.5.5,2.3-.39A3.15,3.15,0,0,0,130.57,153.26Z"/><path d="M128.79,134.92l4.07-3.85,2,1.41.12-.11a9,9,0,0,1,2.61-6.44c3.19-3,6.73-2,10.14,1.63l8.47,8.94-5,4.73-7.87-8.3c-1.76-1.86-2.67-1.88-3.65-.95a4.16,4.16,0,0,0-1.16,3.19l9,9.52-5,4.73Z"/><path d="M156.56,133.13l-.35-5.21a8.56,8.56,0,0,0,5-1.56c1.11-.92,1.29-1.58.78-2.2-.66-.8-2.39,0-4.44.66-2.37.77-5.57,1.17-7.66-1.36-2.5-3-1.66-7,2-10a11.84,11.84,0,0,1,7.36-2.65l.25,5.08a7.43,7.43,0,0,0-4.22,1.3c-.89.74-1.15,1.37-.64,2,.66.8,2.27,0,4.28-.73,2.41-.85,5.48-1.41,7.77,1.37s1.94,7-2.37,10.57A13.34,13.34,0,0,1,156.56,133.13Z"/><path d="M161.26,106.46l4.55-3.26,1.46,1.22.13-.09a8.28,8.28,0,0,1,3.07-5.06c3.84-2.75,8.64-1.27,12.23,3.74,4,5.59,3,11.16-.47,13.63a6.27,6.27,0,0,1-4.81,1l2,2.33,3.22,4.49-5.59,4Zm15.77.71c-1.91-2.67-3.48-3.21-5-2.14a3.34,3.34,0,0,0-1.37,2.75l4.29,6a3.67,3.67,0,0,0,2.64-.71C178.9,112.12,179.26,110.29,177,107.17Z"/><path d="M187.51,105.42c-2.17-3.55-.65-7.2,5.48-11.89-.89-1.15-2-1.23-3.47-.31a10.9,10.9,0,0,0-3.42,4.06l-4.38-2.57a16.85,16.85,0,0,1,6.13-6.84c4.44-2.71,8.56-2,12,3.64l5.8,9.49-4.78,2.92-1.41-1.39-.14.08a8.11,8.11,0,0,1-3.46,4.93A5.88,5.88,0,0,1,187.51,105.42Zm9-6.09L195.12,97c-2.55,2.12-2.89,3.55-2.31,4.51.48.78,1.3.89,2.32.27A3.15,3.15,0,0,0,196.54,99.33Z"/><path d="M199.87,81.36l5-2.61,2,2.82.14-.07c0-3.1,1.46-5.2,3.2-6.12a5.94,5.94,0,0,1,2.38-.8l1.77,5.76a9.45,9.45,0,0,0-2.13.76c-1.27.67-2.42,2.27-2.11,4.91l5.19,9.84-6.09,3.21Z"/><path d="M218.23,83c-2.66-5.91,0-11.5,4.44-13.5,5.4-2.43,9.73.35,11.93,5.24a14.29,14.29,0,0,1,.93,2.74l-10.39,4.69c1.57,1.92,3.5,1.93,5.55,1a8.21,8.21,0,0,0,3.23-2.77l3.72,2.8a13.48,13.48,0,0,1-5.68,5.11C226.62,90.7,221,89,218.23,83Zm10.39-7.32c-.62-1.39-1.77-2.36-3.66-1.51a3.17,3.17,0,0,0-1.73,3.94Z"/><path d="M235.24,64.53l5.26-1.92,1.27,2.09.15-.06a9,9,0,0,1,5-4.87c4.13-1.51,7,.87,8.66,5.53l4.22,11.58-6.46,2.36-3.92-10.75c-.88-2.41-1.7-2.79-3-2.32s-1.69,1.21-2.34,2.47L248.55,81l-6.46,2.36Z"/><path d="M259.85,66.4c-1.83-6.38,2-11.46,7.42-13a8.8,8.8,0,0,1,6.19.39l-1.86,5.11a3.37,3.37,0,0,0-2.42-.31c-2.46.71-3.39,3-2.56,5.89s3,4.31,5.06,3.71a5.57,5.57,0,0,0,2.72-2.11l3.77,3.58a10.06,10.06,0,0,1-5.74,4.06C267,75.26,261.67,72.78,259.85,66.4Z"/><path d="M277.06,61.48c-1.39-6.33,2.36-11.25,7.13-12.3,5.78-1.27,9.45,2.35,10.59,7.59a14.32,14.32,0,0,1,.34,2.87L284,62.09c1.14,2.21,3,2.61,5.22,2.13a8.21,8.21,0,0,0,3.73-2L296,65.68a13.47,13.47,0,0,1-6.61,3.83C283.68,70.76,278.48,68,277.06,61.48Zm11.68-5c-.33-1.48-1.24-2.68-3.27-2.23a3.17,3.17,0,0,0-2.51,3.5Z"/><path d="M100.61,555.28,90.4,541.74l4.6-3.47,6.07,8,4-3-5.2-6.9,4.6-3.47,5.2,6.9,7.6-5.73,4.14,5.49Z"/><path d="M87.92,537.87a3.86,3.86,0,1,1,.71-5.11A3.52,3.52,0,0,1,87.92,537.87Zm4.69-3.63-3.84-5.71,16.6-11.15,3.84,5.71Z"/><path d="M85.74,524l-2.85-4.82,1.82-1.63-.08-.14a9,9,0,0,1-5.7-4c-2.24-3.79-.42-7,3.85-9.52l10.61-6.27,3.5,5.92L87,509.41c-2.2,1.3-2.43,2.18-1.74,3.35a4.16,4.16,0,0,0,2.86,1.84l11.3-6.68,3.5,5.92Z"/><path d="M86.79,497.37c-3.73,1.84-7.23,0-11.35-6.53-1.22.78-1.4,1.85-.62,3.43a10.9,10.9,0,0,0,3.74,3.77l-3,4.14a16.86,16.86,0,0,1-6.27-6.72c-2.3-4.66-1.18-8.7,4.7-11.61l10-4.93,2.48,5L85,485.23l.07.14a8.11,8.11,0,0,1,4.6,3.88A5.88,5.88,0,0,1,86.79,497.37Zm-5.25-9.54L79.1,489c1.88,2.73,3.28,3.2,4.28,2.7.82-.41,1-1.21.48-2.29A3.15,3.15,0,0,0,81.53,487.83Z"/><path d="M63.8,482.79l-2.1-5.19,2-1.34-.06-.15a9,9,0,0,1-5-4.78c-1.65-4.08.63-7,5.22-8.84l11.42-4.62,2.58,6.38-10.6,4.29c-2.37,1-2.73,1.79-2.22,3.05a4.16,4.16,0,0,0,2.55,2.25l12.16-4.92,2.58,6.38Z"/><path d="M64.81,458.14c-6.32,2-11.53-1.56-13.28-7a8.8,8.8,0,0,1,.18-6.2l5.17,1.69a3.36,3.36,0,0,0-.22,2.43c.79,2.44,3.09,3.29,6,2.35s4.2-3.13,3.53-5.18A5.57,5.57,0,0,0,64,443.61l3.45-3.89a10.06,10.06,0,0,1,4.26,5.6C73.42,450.72,71.12,456.09,64.81,458.14Z"/><path d="M59.3,441.12c-6.28,1.61-11.33-2-12.54-6.7-1.47-5.74,2-9.52,7.21-10.85a14.26,14.26,0,0,1,2.86-.44l2.83,11c2.17-1.22,2.5-3.12,1.95-5.29a8.22,8.22,0,0,0-2.18-3.66l3.4-3.18a13.48,13.48,0,0,1,4.06,6.48C68.34,434.18,65.73,439.47,59.3,441.12Zm-5.42-11.5C52.4,430,51.24,431,51.76,433a3.17,3.17,0,0,0,3.58,2.39Z"/><path d="M43.77,421l-.88-5.53,2.33-.86,0-.16c-1.79-1.33-3.4-2.78-3.82-5.47a5.66,5.66,0,0,1,2.29-6c-1.92-1.36-3.7-2.9-4.13-5.58-.69-4.35,2.17-6.74,7.07-7.52L58.78,388l1.08,6.79-11.3,1.79c-2.53.4-3.06,1.13-2.85,2.48a4.27,4.27,0,0,0,1.94,2.53l13-2.06,1.08,6.79-11.3,1.79c-2.53.4-3.06,1.13-2.85,2.48a4.27,4.27,0,0,0,1.94,2.53l13-2.06,1.08,6.79Z"/><path d="M48.76,385.77c-6.47.42-10.77-4-11.08-8.9-.39-5.91,3.74-9,9.09-9.33a14.29,14.29,0,0,1,2.89.09L50.4,379c2.35-.8,3-2.6,2.89-4.84a8.22,8.22,0,0,0-1.46-4l3.93-2.5a13.47,13.47,0,0,1,2.79,7.11C58.93,380.62,55.39,385.34,48.76,385.77Zm-3.21-12.3c-1.52.1-2.83.83-2.7,2.9a3.17,3.17,0,0,0,3.08,3Z"/><path d="M37.44,363.38l0-5.6,2.4-.46v-.16a9,9,0,0,1-2.83-6.34c0-4.4,3.25-6.22,8.21-6.18l12.32.09-.05,6.88-11.44-.09c-2.56,0-3.21.62-3.22,2a4.16,4.16,0,0,0,1.5,3.05l13.12.1-.05,6.88Z"/><path d="M50.27,339.26l-6.94-.5-.19,2.63L38,341l0-3-5.13-1.17.41-5.67,5.19.37L38.8,327l5.35.38-.33,4.55,6.82.49c2.19.16,3-.91,3.08-2.18a5.76,5.76,0,0,0-.19-1.78l5-.68a15.11,15.11,0,0,1,.38,4.76C58.56,337.7,55.14,339.62,50.27,339.26Z"/><path d="M475.93,651.68,469,654.27l-7.41-8.58c-1-1.18-1.89-2.54-2.88-3.79l-.15.06c.08,1.59.27,3.23.33,4.75l.22,11.28-6.89,2.59-9.14-24.34L449,634l2.7,7.19a89.94,89.94,0,0,1,2.44,9l.15-.06-.17-6.6,0-9.18,3.44-1.29,6,6.93,4.14,5.11.15-.06a90,90,0,0,1-4.09-8.38l-2.7-7.19,5.77-2.17Z"/><path d="M444.22,656.61l-6.6,2-5.68-19.18,6.6-2Zm2.07,5.56a3.86,3.86,0,1,1-4.66-2.21A3.52,3.52,0,0,1,446.29,662.18Z"/><path d="M429.9,642.46l-2,4.84a8.56,8.56,0,0,0-5.21-.79c-1.4.34-1.85.86-1.66,1.64.25,1,2.15,1,4.28,1.35,2.47.34,5.52,1.37,6.3,4.56.93,3.81-1.58,7.05-6.16,8.17a11.84,11.84,0,0,1-7.78-.82l2-4.68a7.43,7.43,0,0,0,4.36.67c1.13-.27,1.63-.73,1.44-1.5-.25-1-2.05-1-4.16-1.21-2.54-.29-5.54-1.12-6.39-4.62-.89-3.65,1.31-7.15,6.75-8.48A13.34,13.34,0,0,1,429.9,642.46Z"/><path d="M413.36,654.34c1.12,6.38-2.84,11.14-7.65,12-5.83,1-9.33-2.75-10.26-8a14.27,14.27,0,0,1-.22-2.88l11.23-2c-1-2.25-2.92-2.74-5.12-2.35a8.21,8.21,0,0,0-3.81,1.89l-2.91-3.63a13.47,13.47,0,0,1,6.77-3.54C407.14,644.8,412.22,647.8,413.36,654.34Zm-11.88,4.52c.26,1.5,1.13,2.73,3.18,2.37a3.17,3.17,0,0,0,2.66-3.39Z"/><path d="M384.35,658.88c.5,6.46-3.9,10.81-8.77,11.19-5.9.45-9-3.64-9.44-9a14.31,14.31,0,0,1,.06-2.89l11.37-.87c-.82-2.34-2.64-3-4.87-2.83a8.21,8.21,0,0,0-4,1.51l-2.55-3.9a13.48,13.48,0,0,1,7.08-2.87C379.08,648.78,383.84,652.26,384.35,658.88Zm-12.26,3.35c.12,1.52.86,2.82,2.93,2.66a3.17,3.17,0,0,0,3-3.12Z"/><path d="M362.14,670.44l-5.6,0-.5-2.4h-.16a9,9,0,0,1-6.3,2.92c-4.4,0-6.26-3.16-6.29-8.12l-.08-12.32,6.88,0,.07,11.44c0,2.56.66,3.2,2,3.19a4.16,4.16,0,0,0,3-1.54l-.09-13.12,6.88,0Z"/><path d="M329.46,669.87l-5.57-.55-.3-1.88-.16,0a8.28,8.28,0,0,1-5.64,1.77c-4.7-.46-7.33-4.75-6.72-10.87.68-6.85,5.12-10.35,9.34-9.93a6.28,6.28,0,0,1,4.26,2.43l.06-3,.54-5.49,6.85.68Zm-11.38-10.93c-.32,3.26.5,4.71,2.33,4.89a3.35,3.35,0,0,0,2.85-1.17l.72-7.33a3.67,3.67,0,0,0-2.45-1.21C319.93,654,318.46,655.11,318.08,658.94Z"/><path d="M307.63,654.38l-3.25,20.54-6.79-1.08,3.29-20.78c.21-1.34-.36-1.84-.83-1.91a2.47,2.47,0,0,0-.72,0V646a8.5,8.5,0,0,1,3.41,0C307.31,646.71,308.33,650,307.63,654.38Z"/><path d="M296.92,651.36c-.88,4.07-4.5,5.66-12.18,4.82-.15,1.44.58,2.25,2.3,2.63a10.9,10.9,0,0,0,5.28-.58l1.4,4.89a16.86,16.86,0,0,1-9.16.72c-5.08-1.1-7.54-4.5-6.16-10.91L280.76,642l5.48,1.18.06,2,.16,0a8.12,8.12,0,0,1,5.9-1.18A5.88,5.88,0,0,1,296.92,651.36Zm-10.74-1.83-.57,2.66c3.31.22,4.54-.57,4.78-1.67.19-.9-.32-1.54-1.49-1.8A3.15,3.15,0,0,0,286.18,649.53Z"/><path d="M275.08,650.91c-1.84,6.38-7.75,8.67-13.2,7.1a8.8,8.8,0,0,1-5-3.62l4.29-3.34A3.37,3.37,0,0,0,263,652.6c2.46.71,4.45-.71,5.29-3.64s-.24-5.23-2.32-5.83a5.57,5.57,0,0,0-3.43.34l-1.3-5a10.06,10.06,0,0,1,7-.39C273.76,639.62,276.92,644.53,275.08,650.91Z"/><path d="M257.88,645.95c-2.18,6.1-8,8.28-12.57,6.64-5.58-2-6.76-7-5-12.05a14.31,14.31,0,0,1,1.23-2.62l10.74,3.84c.2-2.48-1.18-3.82-3.29-4.58a8.2,8.2,0,0,0-4.25-.24l-.74-4.6a13.48,13.48,0,0,1,7.64.26C257.19,634.57,260.12,639.69,257.88,645.95ZM245.32,644c-.51,1.43-.37,2.93,1.59,3.63a3.17,3.17,0,0,0,4-1.64Z"/><path d="M670,389.52,668.76,399c-.74,5.63-3.44,10.2-9.95,9.34-6.31-.83-8.39-6.11-7.68-11.5l.37-2.78-8.17-1.08.9-6.82Zm-13.44,7.67c-.36,2.7.83,4.14,3.13,4.45s3.37-1.09,3.72-3.71l.3-2.3-6.82-.9Z"/><path d="M651.13,409.44c6.5,1.36,9.27,6.85,8.22,11.86s-5.79,8.92-12.29,7.56S637.78,422,638.83,417,644.63,408.08,651.13,409.44ZM648.5,422c3,.62,5,.23,5.45-1.8s-1.29-3.21-4.26-3.84-5-.23-5.45,1.8S645.52,421.35,648.5,422Z"/><path d="M655.66,435.23l-1.51,5.39-3.44-.46,0,.15c2.22,2.16,2.78,4.64,2.25,6.53a5.94,5.94,0,0,1-1.05,2.28l-5.4-2.67a9.47,9.47,0,0,0,.91-2.07c.39-1.39,0-3.32-2.12-4.91l-10.71-3,1.85-6.63Z"/><path d="M638.87,448.86l6.59,2.24.85-2.5,4.85,1.64-.75,3,4.67,2.43L653.25,461l-4.93-1.67-1.46,4.32-5.08-1.72,1.46-4.32-6.48-2.2c-2.08-.71-3.13.12-3.54,1.34a5.77,5.77,0,0,0-.26,1.77l-5-.61a15.13,15.13,0,0,1,.83-4.7C630.45,448.28,634.25,447.29,638.87,448.86Z"/><path d="M636.74,462.39c6,2.44,7.93,8.32,6.09,12.84-2.23,5.48-7.29,6.45-12.25,4.43a14.32,14.32,0,0,1-2.56-1.34l4.3-10.56c-2.46-.31-3.87,1-4.71,3.09a8.21,8.21,0,0,0-.43,4.23l-4.62.54a13.47,13.47,0,0,1,.59-7.62C625.35,462.59,630.59,459.89,636.74,462.39Zm-2.48,12.46c1.41.57,2.91.49,3.69-1.43a3.17,3.17,0,0,0-1.46-4Zm14.87.18,4.58,8.69-6,2.58-3-9.42Z"/><path d="M628.64,482.06c5.82,2.86,7.33,8.86,5.17,13.24-2.61,5.31-7.72,5.92-12.53,3.56a14.32,14.32,0,0,1-2.46-1.52l5-10.23c-2.44-.48-3.93.74-4.92,2.75a8.21,8.21,0,0,0-.72,4.19l-4.65.21a13.47,13.47,0,0,1,1.13-7.56C617.26,481.46,622.68,479.14,628.64,482.06Zm-3.35,12.26c1.36.67,2.87.7,3.78-1.17A3.17,3.17,0,0,0,627.9,489Z"/></g></g></svg>