<svg xmlns="http://www.w3.org/2000/svg" viewBox="0 0 1155 1155"><defs><style>.cls-1{fill:#118dd3;}.cls-1,.cls-2,.cls-3,.cls-4{stroke:#000;stroke-miterlimit:10;stroke-width:5px;}.cls-2{fill:#4fbfa9;}.cls-3{fill:#2fad83;}.cls-4{fill:#2dc991;}</style></defs><title>exterieur_1</title><g id="Calque_2" data-name="Calque 2"><g id="Calque_8" data-name="Calque 8"><path class="cls-1" d="M910.36,686A350.16,350.16,0,0,1,577.5,927.5h-1v225h1a572.4,572.4,0,0,0,278-71.57,631,631,0,0,0,59-38.17,624,624,0,0,0,61.8-51.07A577.19,577.19,0,0,0,1080.89,855.6a605.19,605.19,0,0,0,42.56-100.38Z"/><path class="cls-2" d="M1148.67,510.79a628.31,628.31,0,0,0-67.78-211.39A577.19,577.19,0,0,0,976.33,163.31a624,624,0,0,0-61.79-51.07L782.58,293.85A350.48,350.48,0,0,1,910.36,686l213.08,69.24a602.47,602.47,0,0,0,25.22-111,582.54,582.54,0,0,0,0-133.42Z"/><path class="cls-3" d="M855.52,74.07A572.4,572.4,0,0,0,577.5,2.5h-1A572.39,572.39,0,0,0,238.85,112.76l132.26,182a348.41,348.41,0,0,1,205.39-67.3h1a348.41,348.41,0,0,1,205.08,66.35L914.53,112.24A631,631,0,0,0,855.52,74.07Z"/><path class="cls-4" d="M240.28,113.36C137.75,187.86,71,279.68,31.87,400.22,13,458.38,3.2,514.9,2.54,571.37c0,2,0,4.08,0,6.13s0,4.09,0,6.13C3.2,640.1,13,696.62,31.87,754.78l212.67-69.1A349.91,349.91,0,0,1,371.76,294.33Z"/><path class="cls-2" d="M371.76,860.67a350.74,350.74,0,0,1-127.22-175L31.87,754.78C71,875.32,137.75,967.14,240.28,1041.64s210.48,109.57,337.22,109.57V927.5A348.42,348.42,0,0,1,371.76,860.67Z"/><path d="M403,1007.72l-1.82-.76.44-1.58-.08,0a7.29,7.29,0,0,1-4.91.08c-3.34-1.4-4-4.75-2.35-8.79,1.85-4.41,5.59-5.89,8.56-4.65a6.54,6.54,0,0,1,3,3l.9-2.29,1.84-4.38,2.19.92Zm-6.44-10.13c-1.2,2.86-1,5.19,1.41,6.22,1.1.46,2.45.31,4.22-.3l2.86-6.82a5.58,5.58,0,0,0-2.61-2.7C400.34,993.09,397.95,994.38,396.6,997.59Z"/><path d="M392.67,991l-7.33,16.23-2.17-1,7.4-16.39c.31-.69.14-1.08-.18-1.23a2,2,0,0,0-.5-.16l.45-1.77a3.19,3.19,0,0,1,1.34.35C393.32,987.82,393.52,989.15,392.67,991Z"/><path d="M386.41,989.11c-1.33,2.77-4.38,3-10.07,1-.78,1.62-1,3.44,1.08,4.44a7.67,7.67,0,0,0,4.44.46l.12,1.89a10.46,10.46,0,0,1-5.78-.75c-3.11-1.49-3.43-4.19-1.91-7.35L378,981l1.78.85-.55,1.6.08,0a7.52,7.52,0,0,1,5.09.19A3.84,3.84,0,0,1,386.41,989.11Zm-7.7-3.93-1.7,3.53c4.49,1.51,6.45,1.17,7.23-.45.69-1.44,0-2.52-1.27-3.12S380.46,984.67,378.71,985.18Z"/><path d="M371.88,985.8c-2.18,4.2-6.23,5.13-9.45,3.46a5.85,5.85,0,0,1-2.89-3.37l1.8-.83a4.13,4.13,0,0,0,1.92,2.4c2.27,1.18,4.93.08,6.43-2.81s.92-5.6-1.37-6.79a5,5,0,0,0-3.59-.26l-.19-1.9a6.88,6.88,0,0,1,4.87.5C372.73,977.93,374,981.65,371.88,985.8Z"/><path d="M360.66,979.94c-2.24,4-6.32,5-9.13,3.41-3.14-1.75-3.66-5-1.7-8.51a9.25,9.25,0,0,1,.74-1.15l8.31,4.63c1.3-2.7.63-5.26-1.72-6.57a6.37,6.37,0,0,0-3.6-.74l0-1.78a8.4,8.4,0,0,1,4.76,1C361.63,972.05,362.9,975.91,360.66,979.94Zm-9.18-3.78c-1.38,2.48-1,4.45.91,5.52,1.72,1,4.07.44,5.68-1.85Z"/><path d="M343,969.91c-2.42,3.93-6.54,4.69-9.28,3-3.06-1.89-3.44-5.15-1.32-8.58a9.2,9.2,0,0,1,.79-1.11l8.1,5c1.42-2.63.87-5.22-1.43-6.64a6.37,6.37,0,0,0-3.57-.9l.11-1.77a8.4,8.4,0,0,1,4.71,1.2C344.34,962.07,345.44,966,343,969.91Zm-9-4.18c-1.49,2.42-1.21,4.4.67,5.55,1.68,1,4,.62,5.75-1.6Z"/><path d="M331.24,959.39,327,965.92l1.75,1.14-1,1.51-1.92-1.08-2.4,3.14-1.67-1.09,2.16-3.3-3.18-2.08,1.06-1.63,3.18,2.08,4.28-6.55c1-1.46,1-2.58-.33-3.47a5.14,5.14,0,0,0-1.54-.56l.59-1.76a8.72,8.72,0,0,1,2.47,1C333,954.91,332.76,957.06,331.24,959.39Z"/><path d="M321.5,949.62l-1.89.62a6.34,6.34,0,0,0-2.42-3.77c-1.52-1.07-2.84-.8-3.55.19-.84,1.18.17,2.68,1.09,4,1.22,1.75,2.46,3.8,1.09,5.74s-3.78,2.23-6.27.47a7,7,0,0,1-2.66-3.83l1.79-.58a5.23,5.23,0,0,0,1.91,2.88c1.44,1,2.66.71,3.28-.17.77-1.09-.2-2.38-1.15-3.8-1.22-1.79-2.58-3.78-1-6,1.32-1.87,3.92-2.38,6.64-.45A8.48,8.48,0,0,1,321.5,949.62Z"/><path d="M308,946.67c-2.77,3.69-6.94,4.08-9.51,2.14-2.88-2.16-2.95-5.44-.53-8.67a9.25,9.25,0,0,1,.89-1l7.61,5.71c1.65-2.49,1.34-5.12-.81-6.74a6.37,6.37,0,0,0-3.47-1.23l.27-1.76a8.39,8.39,0,0,1,4.58,1.63C310,939,310.75,943,308,946.67Zm-8.58-5c-1.71,2.27-1.61,4.27.15,5.59,1.58,1.18,4,1,5.88-1.06Z"/><path d="M298.25,934l-11,14-1.87-1.47,11.14-14.11c.47-.59.4-1,.12-1.23a2,2,0,0,0-.45-.28l.86-1.61a3.21,3.21,0,0,1,1.21.66C299.66,931.07,299.53,932.4,298.25,934Z"/><path d="M290.61,933.33c-3,3.64-7.11,3.75-9.77,1.54s-3.29-6.25-.27-9.88,7.07-3.7,9.73-1.5S293.6,929.74,290.61,933.33Zm-8.14-6.77c-2.08,2.5-2.24,5.23-.36,6.79s4.53.9,6.61-1.6,2.18-5.21.33-6.75S284.53,924.09,282.47,926.57Z"/><path d="M273,927.8l-1.47-1.31,1.2-1.65-.06-.06a6.64,6.64,0,0,1-5.11-1.37c-2.21-2-1.93-4.28.46-7l5.94-6.67,1.78,1.58L270,917.78c-1.76,2-1.9,3.36-.52,4.59,1.08,1,2.32,1.06,4.33.94l6.79-7.62,1.78,1.58Z"/><path d="M260.82,895.92,259,897.66a6.24,6.24,0,0,1,4.4,1.55c2.53,2.48,2.29,6-1,9.34s-7.27,3.27-9.56,1a5.74,5.74,0,0,1-1.7-4l0,0-1.1.79L248.59,905l14-14.31,1.72,1.68Zm-3.17,3.23-5.15,5.26a4.91,4.91,0,0,0,1.41,3.45c1.62,1.58,4.42,1.29,6.67-1s2.76-4.85,1-6.57A4.77,4.77,0,0,0,257.65,899.15Z"/><path d="M251.65,895.34l-6.47,6.16-1.66-1.74,6.24-5.94c1.91-1.82,2.19-3.17.91-4.51-1-1.05-2.22-1.29-4.34-1.11l-7.25,6.9-1.64-1.72,10.21-9.71,1.36,1.43-1.46,1.67.06.06c2-.11,3.71.19,5,1.6C254.72,890.58,254.25,892.86,251.65,895.34Z"/><path d="M240,885.7c-3.44,3.07-7.61,2.62-9.75.22-2.39-2.68-1.81-5.92,1.19-8.6a9.25,9.25,0,0,1,1.08-.84l6.33,7.1c2.11-2.12,2.33-4.75.53-6.77a6.36,6.36,0,0,0-3.16-1.89l.61-1.67a8.39,8.39,0,0,1,4.17,2.5C243.5,878.57,243.43,882.63,240,885.7Zm-7.42-6.59c-2.12,1.89-2.42,3.87-1,5.51,1.31,1.47,3.7,1.75,6,.12Z"/><path d="M233,871.38l-13.58,11.52-1.54-1.81,13.71-11.64c.58-.49.59-.92.36-1.18a2,2,0,0,0-.38-.36l1.16-1.41a3.2,3.2,0,0,1,1.06.89C234.92,868.76,234.53,870,233,871.38Z"/><path d="M892.71,902.63l12.36,12.82-1.71,1.65-12.48-12.94c-.52-.54-1-.53-1.21-.29a2,2,0,0,0-.34.4l-1.48-1.07a3.21,3.21,0,0,1,.82-1.11C890,900.83,891.29,901.14,892.71,902.63Z"/><path d="M891,910.09c3.12,3.39,2.74,7.56.37,9.74-2.65,2.43-5.89,1.91-8.62-1.06a9.13,9.13,0,0,1-.86-1.06l7-6.44c-2.15-2.08-4.79-2.25-6.77-.43a6.36,6.36,0,0,0-1.84,3.19l-1.68-.58a8.39,8.39,0,0,1,2.43-4.21C883.82,906.69,887.88,906.7,891,910.09Zm-6.47,7.53c1.92,2.09,3.9,2.36,5.52.87,1.45-1.33,1.7-3.72,0-6Z"/><path d="M877.17,915.39l.15,2a6.34,6.34,0,0,0-4.24,1.45c-1.4,1.22-1.46,2.57-.66,3.49,1,1.09,2.64.48,4.18-.09,2-.76,4.28-1.48,5.84.31s1.26,4.2-1,6.2a7,7,0,0,1-4.35,1.66l-.13-1.88a5.23,5.23,0,0,0,3.25-1.17c1.34-1.16,1.32-2.41.62-3.22-.87-1-2.36-.37-4,.21-2,.76-4.29,1.61-6-.41-1.5-1.73-1.37-4.37,1.15-6.56A8.48,8.48,0,0,1,877.17,915.39Z"/><path d="M870.2,937.68l-1.54,1.24-1.76-1.86-.07.05c.36,2-.06,3.77-1.3,4.77a3.51,3.51,0,0,1-1.36.72l-.95-1.92a4,4,0,0,0,1.21-.67c.93-.75,1.49-2.31.74-4.77l-5.67-7.05,1.85-1.49Z"/><path d="M858.93,937.66c2.79,3.67,2,7.79-.53,9.74-2.86,2.18-6,1.36-8.48-1.85a9.13,9.13,0,0,1-.76-1.14l7.57-5.77c-1.95-2.27-4.56-2.69-6.71-1.05a6.37,6.37,0,0,0-2.12,3l-1.62-.74a8.39,8.39,0,0,1,2.81-4C852.09,933.61,856.14,934,858.93,937.66Zm-7.14,6.9c1.72,2.26,3.67,2.71,5.42,1.38,1.57-1.2,2-3.55.58-5.95Zm9.94,4.53-.32,6.33-2.3-.25.93-6.29Z"/><path d="M847.38,946.42c2.65,3.73,1.94,7.73-.69,9.6a5.81,5.81,0,0,1-4.16,1l1.49,1.89,3.14,4.42-2,1.39-12-16.83,1.61-1.14,1.12,1.23.07,0a6.37,6.37,0,0,1,2.32-4.1C841.25,941.75,844.66,942.59,847.38,946.42Zm-10.09,3,4.27,6a4.9,4.9,0,0,0,3.65-.78c1.84-1.31,2-4.12.18-6.75s-4.28-3.57-6.29-2.14A4.77,4.77,0,0,0,837.29,949.39Z"/><path d="M832.47,954.64l4.92,7.46-2,1.33-4.74-7.19c-1.45-2.2-2.73-2.72-4.28-1.7-1.21.8-1.66,2-1.86,4.08L830,967l-2,1.31-7.76-11.77,1.65-1.09,1.38,1.73.07,0c.24-2,.85-3.62,2.47-4.69C828.33,950.77,830.5,951.64,832.47,954.64Z"/><path d="M823.78,970.93l-2,1.26-7.46-12,2-1.26Zm2.72,3.54a1.66,1.66,0,0,1-2.81,1.75,1.66,1.66,0,0,1,2.81-1.75Z"/><path d="M817.58,974.76l-1.69,1-1.48-2.09-.07,0c.09,2-.58,3.72-1.95,4.54a3.49,3.49,0,0,1-1.44.52l-.67-2a4,4,0,0,0,1.29-.5c1-.61,1.79-2.09,1.4-4.62l-4.64-7.77,2-1.22Z"/><path d="M806.4,973.19c2.26,4,.94,8-1.87,9.57-3.13,1.76-6.17.51-8.14-3a9.28,9.28,0,0,1-.59-1.23l8.29-4.66c-1.62-2.52-4.15-3.29-6.5-2a6.37,6.37,0,0,0-2.52,2.68l-1.5-1a8.4,8.4,0,0,1,3.33-3.54C800.18,968.24,804.14,969.17,806.4,973.19Zm-8,5.85c1.39,2.48,3.26,3.19,5.18,2.11,1.72-1,2.5-3.24,1.39-5.81Z"/><path d="M981.7,367.95l8-4,1.08,2.15L983.07,370c-2.36,1.19-3,2.4-2.18,4.05.65,1.29,1.76,1.88,3.83,2.32l8.93-4.5,1.07,2.12-12.58,6.34-.89-1.76,1.88-1.17,0-.08c-2-.47-3.49-1.26-4.37-3C977.38,371.62,978.49,369.57,981.7,367.95Z"/><path d="M996.94,378.55l.83,1.79-1.76,1,0,.08a6.65,6.65,0,0,1,4.14,3.3c1.24,2.69.06,4.7-3.21,6.2l-8.11,3.74-1-2.16,7.82-3.6c2.4-1.1,3.08-2.31,2.31-4-.61-1.32-1.7-1.9-3.59-2.59l-9.27,4.27-1-2.16Z"/><path d="M995.92,401.82c2.85-1.15,5.26.71,8.14,6,1.67-.68,3.06-1.87,2.19-4a7.66,7.66,0,0,0-3-3.33l1.18-1.48a10.46,10.46,0,0,1,3.77,4.45c1.3,3.2-.28,5.4-3.53,6.72l-8,3.25-.74-1.83,1.48-.82,0-.08a7.52,7.52,0,0,1-3.63-3.56A3.83,3.83,0,0,1,995.92,401.82Zm3.06,8.08,3.63-1.47c-2.3-4.14-4-5.2-5.65-4.53-1.48.6-1.68,1.87-1.16,3.16S997.34,409.1,999,409.91Z"/><path d="M1004.45,414c4.43-1.64,8.06.39,9.32,3.79a5.85,5.85,0,0,1-.12,4.44l-1.89-.6a4.13,4.13,0,0,0,.2-3.07c-.89-2.39-3.6-3.37-6.64-2.25s-4.45,3.53-3.55,6a5,5,0,0,0,2.48,2.61l-1.13,1.53a6.87,6.87,0,0,1-3.27-3.65C998.53,419.28,1000.07,415.66,1004.45,414Z"/><path d="M1008.81,425.93c4.48-1.51,8,.61,9.21,4a5.85,5.85,0,0,1-.25,4.43l-1.87-.65a4.13,4.13,0,0,0,.28-3.06c-.82-2.42-3.5-3.47-6.58-2.43s-4.54,3.4-3.71,5.85a5,5,0,0,0,2.41,2.68l-1.18,1.5a6.88,6.88,0,0,1-3.16-3.74C1002.76,431,1004.39,427.42,1008.81,425.93Z"/><path d="M1012.86,437.95c4.41-1.35,8,.79,8.95,3.87,1.05,3.44-.82,6.13-4.68,7.31a9.22,9.22,0,0,1-1.33.32l-2.78-9.09c-2.8,1-4.1,3.35-3.31,5.93a6.36,6.36,0,0,0,2.08,3l-1.25,1.26a8.39,8.39,0,0,1-2.74-4C1006.69,443,1008.45,439.3,1012.86,437.95Zm4,9.09c2.72-.83,3.81-2.5,3.17-4.61-.58-1.89-2.63-3.14-5.37-2.6Zm10.06-11.11,2,1.14-3.43,5.33-1.49-.82Z"/><path d="M1011.67,452.73l1.85.72a6.34,6.34,0,0,0-.52,4.44c.49,1.79,1.69,2.42,2.86,2.1,1.4-.38,1.57-2.17,1.72-3.81.17-2.12.51-4.5,2.8-5.13s4.34.67,5.14,3.61a7,7,0,0,1-.38,4.65l-1.75-.69a5.23,5.23,0,0,0,.35-3.43c-.47-1.71-1.61-2.24-2.64-2-1.29.35-1.36,2-1.52,3.67-.19,2.16-.4,4.56-3,5.27-2.21.61-4.54-.65-5.42-3.87A8.49,8.49,0,0,1,1011.67,452.73Z"/><path d="M1018.42,470.17c3-.69,5.08,1.54,7.07,7.25,1.75-.4,3.32-1.35,2.8-3.62a7.67,7.67,0,0,0-2.41-3.76l1.4-1.27a10.46,10.46,0,0,1,3,5c.77,3.36-1.14,5.29-4.56,6.07l-8.43,1.93-.44-1.92,1.59-.57,0-.08a7.52,7.52,0,0,1-3-4.1A3.84,3.84,0,0,1,1018.42,470.17Zm1.73,8.47,3.82-.87c-1.61-4.45-3.11-5.78-4.86-5.37-1.55.36-2,1.58-1.65,2.94S1018.66,477.58,1020.15,478.64Z"/><path d="M1023.24,484.74,1032,483l.46,2.36L1024,487c-2.59.5-3.55,1.49-3.2,3.31.28,1.42,1.18,2.28,3.06,3.28l9.82-1.91.45,2.33-13.84,2.68-.37-1.94,2.13-.62,0-.09c-1.76-1-3-2.16-3.39-4.07C1018.08,487.1,1019.71,485.43,1023.24,484.74Z"/><path d="M1028.78,502.7l6-5.28.41,2.55-2.76,2.36c-.67.55-1.4,1.14-2.1,1.75l0,.11c.84.28,1.71.58,2.52.89l3.34,1.19.4,2.46-7.58-3.09-6.28,5.66-.41-2.55,2.91-2.55c.75-.62,1.53-1.27,2.25-1.92l0-.11c-.88-.36-1.78-.68-2.72-1l-3.54-1.37-.4-2.46Z"/><path d="M432.65,131.26l2.3-.72L440,146.72l7.94-2.49.62,2-10.24,3.21Z"/><path d="M445,133.11a4,4,0,0,0,1.07-4.09.65.65,0,0,1-.21.09,1.44,1.44,0,0,1-1.88-1,1.49,1.49,0,0,1,1-2c1.09-.32,2,.4,2.5,2a5.62,5.62,0,0,1-1.53,5.8Z"/><path d="M451.72,138c-1.23-4.56,1-8,4.36-8.87s7,.9,8.24,5.47-1,7.91-4.38,8.81S452.94,142.47,451.72,138Zm10.22-2.76c-.85-3.14-3-4.84-5.34-4.2s-3.34,3.19-2.5,6.32,3,4.78,5.33,4.15S462.78,138.31,461.94,135.2Z"/><path d="M466.41,126.75l1.92-.45.57,1.54.08,0a7.29,7.29,0,0,1,3.93-2.94c3.53-.82,6.06,1.48,7.05,5.74,1.08,4.66-1.07,8.05-4.21,8.78a6.54,6.54,0,0,1-4.18-.69l.62,2.39,1.08,4.63-2.32.54Zm11.16,4.43c-.7-3-2.19-4.82-4.79-4.21-1.16.27-2.16,1.19-3.24,2.72l1.68,7.2a5.58,5.58,0,0,0,3.7.66C477.17,137,478.36,134.57,477.57,131.18Z"/><path d="M482.76,130.28c-.89-4.52,1.61-7.89,4.77-8.51,3.53-.7,6,1.44,6.8,5.4a9.22,9.22,0,0,1,.18,1.35l-9.33,1.84c.75,2.9,2.91,4.42,5.56,3.9A6.37,6.37,0,0,0,494,132.5l1.13,1.37a8.4,8.4,0,0,1-4.27,2.32C487.11,136.93,483.65,134.8,482.76,130.28Zm9.45-3c-.55-2.79-2.1-4.05-4.26-3.62-1.94.38-3.39,2.3-3.14,5.08Z"/><path d="M496.84,120.36l1.95-.32.53,2h.09a6.64,6.64,0,0,1,4.28-3.11c2.92-.48,4.54,1.2,5.12,4.75l1.44,8.82-2.35.38-1.39-8.5c-.42-2.6-1.41-3.59-3.24-3.29-1.43.23-2.28,1.14-3.46,2.77l1.64,10.08-2.35.38Z"/><path d="M518.5,124.21c-.52-4.55,2-7.7,5.24-8.07a5.8,5.8,0,0,1,4.1,1.17l-.39-2.38-.61-5.39,2.39-.27,2.34,20.51-2,.22-.39-1.62h-.09a6.36,6.36,0,0,1-4,2.47C521.61,131.27,519,128.88,518.5,124.21Zm10.27,2.27-.83-7.32a4.9,4.9,0,0,0-3.57-1.08c-2.25.26-3.79,2.62-3.42,5.82s2,5.2,4.47,4.92A4.77,4.77,0,0,0,528.77,126.48Z"/><path d="M535,125.78c-.25-3.06,2.26-4.81,8.19-6-.14-1.79-.86-3.48-3.17-3.29a7.66,7.66,0,0,0-4.07,1.84l-1.06-1.57a10.45,10.45,0,0,1,5.37-2.26c3.44-.28,5.07,1.89,5.35,5.39l.69,8.61-2,.16L544,127h-.09a7.52,7.52,0,0,1-4.49,2.4A3.83,3.83,0,0,1,535,125.78Zm8.63-.49-.31-3.9c-4.64,1-6.16,2.24-6,4,.13,1.59,1.28,2.17,2.67,2.05S542.34,126.61,543.6,125.29Z"/><path d="M550.35,123.94l-.42-7.79-2.08.11-.1-1.8,2.19-.26.08-4,2-.11.21,3.94,3.79-.21.1,1.94-3.79.21.42,7.82c.09,1.74.7,2.69,2.32,2.6a5.1,5.1,0,0,0,1.57-.46l.56,1.77a8.69,8.69,0,0,1-2.58.66C551.62,128.58,550.5,126.72,550.35,123.94Z"/><path d="M558.27,124.21c-.09-3.07,2.5-4.69,8.49-5.53-.05-1.8-.68-3.52-3-3.45a7.66,7.66,0,0,0-4.16,1.63l-1-1.63a10.47,10.47,0,0,1,5.48-2c3.45-.1,5,2.15,5.07,5.66l.25,8.64-2,.06-.25-1.68h-.09a7.52,7.52,0,0,1-4.61,2.16A3.84,3.84,0,0,1,558.27,124.21Zm8.65,0-.11-3.91c-4.68.72-6.27,1.92-6.22,3.72,0,1.59,1.17,2.23,2.56,2.19S565.58,125.42,566.91,124.16Z"/><path d="M578.5,120.45c.07-4.61,3.21-7.38,6.43-7.33,3.59.05,5.59,2.66,5.53,6.69a9.24,9.24,0,0,1-.11,1.36l-9.51-.14c.13,3,1.93,4.93,4.62,5A6.37,6.37,0,0,0,589,125l.82,1.58a8.4,8.4,0,0,1-4.66,1.38C581.38,127.86,578.44,125.06,578.5,120.45Zm9.87-1c0-2.84-1.21-4.4-3.41-4.43-2,0-3.79,1.54-4.12,4.32Z"/><path d="M592.19,126.11l1.26-1.54a6.34,6.34,0,0,0,4.07,1.86c1.85.08,2.82-.86,2.88-2.08.06-1.45-1.59-2.16-3.1-2.81-2-.81-4.13-1.86-4-4.24s2-3.92,5-3.79a7,7,0,0,1,4.31,1.78l-1.2,1.46a5.24,5.24,0,0,0-3.16-1.39c-1.77-.08-2.62.84-2.67,1.92-.06,1.33,1.46,1.89,3,2.57,2,.84,4.22,1.78,4.1,4.45-.1,2.29-2,4.12-5.34,4A8.49,8.49,0,0,1,592.19,126.11Z"/><path d="M605.84,124l.52-7.78-2.08-.14.12-1.79h2.21l.55-3.92,2,.13-.26,3.93,3.79.25-.13,1.94-3.79-.25-.52,7.81c-.12,1.74.37,2.76,2,2.86a5.13,5.13,0,0,0,1.62-.27l.34,1.82a8.7,8.7,0,0,1-2.64.35C606.54,128.77,605.66,126.79,605.84,124Z"/><path d="M613.57,120.71l6.65.57-.15,1.82-6.65-.56Z"/><path d="M624.4,115.74l2.37.24-1.45,14-2.37-.24Zm0-4.46a1.66,1.66,0,0,1,3.29.34,1.66,1.66,0,0,1-3.29-.34Z"/><path d="M630.32,127.7,632.43,110l2.36.28-2.13,17.85c-.09.75.19,1.07.54,1.12a2,2,0,0,0,.52,0l.1,1.82a3.2,3.2,0,0,1-1.38.07C630.66,131,630.08,129.75,630.32,127.7Z"/><path d="M643.35,129.41,646,111.79l2.35.35-2.64,17.79c-.11.75.16,1.08.51,1.13a2,2,0,0,0,.52,0l.05,1.83a3.2,3.2,0,0,1-1.38,0C643.59,132.67,643,131.45,643.35,129.41Z"/><path d="M649.9,129.55c.53-3,3.39-4.09,9.42-3.72.31-1.77,0-3.59-2.25-4a7.66,7.66,0,0,0-4.4.77l-.63-1.79a10.46,10.46,0,0,1,5.77-.85c3.4.59,4.44,3.1,3.84,6.55L660.16,135l-1.94-.34.09-1.69h-.09a7.52,7.52,0,0,1-4.95,1.2A3.84,3.84,0,0,1,649.9,129.55Zm8.48,1.68.67-3.86c-4.73-.23-6.53.63-6.84,2.41-.27,1.57.7,2.42,2.07,2.66S656.83,132.2,658.38,131.23Z"/><path d="M670.48,129.92c1-4.62,4.67-6.58,8.22-5.8a5.85,5.85,0,0,1,3.67,2.49l-1.52,1.27a4.13,4.13,0,0,0-2.48-1.82c-2.49-.54-4.78,1.21-5.47,4.39s.58,5.65,3.1,6.2a5,5,0,0,0,3.53-.68l.68,1.78a6.88,6.88,0,0,1-4.83.78C671.71,137.73,669.49,134.48,670.48,129.92Z"/><path d="M683.46,137.12l4.2-17.3,2.31.56-4.24,17.47c-.18.73.06,1.09.4,1.17a2,2,0,0,0,.52.07l-.11,1.82a3.21,3.21,0,0,1-1.38-.1C683.41,140.39,683,139.12,683.46,137.12Z"/><path d="M690.68,134.56c1.2-4.45,4.92-6.37,8-5.53,3.47.93,4.77,4,3.72,7.85a9.13,9.13,0,0,1-.44,1.29l-9.19-2.47c-.61,2.93.66,5.25,3.27,6a6.37,6.37,0,0,0,3.68-.15l.41,1.73a8.39,8.39,0,0,1-4.86.2C691.65,142.46,689.48,139,690.68,134.56ZM700.5,136c.74-2.75-.1-4.56-2.23-5.13-1.91-.51-4.06.56-5.06,3.18ZM698,125.36l5.21-3.62,1.21,2-5.55,3.11Z"/><path d="M711.11,146.14a1.73,1.73,0,0,1,2.19-1.26,1.83,1.83,0,0,1-1.1,3.49A1.72,1.72,0,0,1,711.11,146.14Zm8.43-11.54a2.65,2.65,0,0,0-1.84-3.53,4.42,4.42,0,0,0-3.69.6l-.93-1.6a6.52,6.52,0,0,1,5.48-.8c2.79.88,4.09,3.14,3.23,5.88-1.14,3.62-6.05,3.69-6.83,7.7l-2-.63C713.73,137.73,718.62,137.53,719.55,134.6Z"/><path d="M115.61,531.67l.22-2,2,0v-.09a6.64,6.64,0,0,1-1.85-5c.32-2.94,2.37-4.06,5.95-3.66l8.88,1-.26,2.36-8.56-.94c-2.62-.29-3.84.39-4,2.24-.16,1.44.48,2.5,1.74,4.07l10.15,1.12-.26,2.36Z"/><path d="M126.28,517.08l-8.84-1.29.35-2.38,8.52,1.24c2.61.38,3.84-.23,4.11-2.07.21-1.44-.36-2.54-1.81-4.1l-9.9-1.44.34-2.35,13.95,2-.28,2-2.21-.12v.09c1.33,1.51,2.14,3,1.86,5C131.92,516.55,129.84,517.6,126.28,517.08Z"/><path d="M115.45,499.44a1.66,1.66,0,0,1,.56-3.26,1.66,1.66,0,0,1-.56,3.26Zm4.45.32.4-2.34,13.89,2.38-.4,2.34Z"/><path d="M133.13,496.46,131.79,495a6.34,6.34,0,0,0,2.44-3.75c.35-1.82-.44-2.92-1.63-3.15-1.42-.28-2.37,1.25-3.23,2.65-1.09,1.83-2.45,3.81-4.79,3.36s-3.59-2.53-3-5.52a7,7,0,0,1,2.4-4l1.27,1.4a5.23,5.23,0,0,0-1.84,2.92c-.34,1.74.45,2.72,1.5,2.92,1.31.25,2.09-1.16,3-2.61,1.13-1.85,2.38-3.91,5-3.4,2.25.44,3.78,2.59,3.15,5.87A8.49,8.49,0,0,1,133.13,496.46Z"/><path d="M130.24,482.92c-4.5-1-6.57-4.65-5.87-7.79.79-3.51,3.75-4.93,7.68-4a9.23,9.23,0,0,1,1.31.38l-2.08,9.28c3,.48,5.22-.88,5.81-3.52a6.37,6.37,0,0,0-.31-3.67l1.71-.48a8.39,8.39,0,0,1,.4,4.85C138.08,481.62,134.74,483.93,130.24,482.92Zm1-9.88c-2.77-.62-4.55.29-5,2.44-.43,1.92.73,4,3.39,4.92Z"/><path d="M126.84,466l.5-1.91,2,.31,0-.08a6.64,6.64,0,0,1-1.12-5.17c.74-2.86,2.93-3.67,6.41-2.77l8.65,2.24-.6,2.3-8.34-2.16c-2.55-.66-3.85-.16-4.32,1.64-.36,1.4.12,2.55,1.14,4.28l9.88,2.56-.6,2.3Z"/><path d="M140.48,452.77,133,450.6l-.58,2-1.73-.5.47-2.16-3.71-1.38.56-1.92,3.79,1.1,1.06-3.65,1.87.54-1.06,3.65,7.52,2.18c1.67.48,2.77.23,3.22-1.33a5.12,5.12,0,0,0,.08-1.64l1.86.06a8.7,8.7,0,0,1-.23,2.65C145.27,453.1,143.15,453.55,140.48,452.77Z"/><path d="M142,438.39c-4.37-1.46-6.06-5.29-5-8.35,1.14-3.41,4.23-4.52,8.05-3.25a9.22,9.22,0,0,1,1.27.51l-3,9c2.89.78,5.28-.35,6.13-2.91a6.37,6.37,0,0,0,.06-3.68l1.75-.3a8.39,8.39,0,0,1-.09,4.86C149.94,437.88,146.38,439.84,142,438.39Zm2-9.72c-2.7-.9-4.56-.17-5.25,1.92-.62,1.87.32,4.08,2.87,5.24Z"/><path d="M150.92,425.15l-16.75-6,.81-2.24,16.92,6.1c.71.26,1.09.05,1.21-.27a2,2,0,0,0,.12-.51l1.8.31a3.2,3.2,0,0,1-.24,1.36C154.17,425.55,152.86,425.85,150.92,425.15Z"/><path d="M153.46,418.23l-16.65-6.31.84-2.22,16.81,6.38c.71.27,1.09.07,1.21-.25a2,2,0,0,0,.13-.51l1.79.34a3.21,3.21,0,0,1-.27,1.36C156.7,418.68,155.38,419,153.46,418.23Z"/><path d="M151.81,410.78c-4.27-1.74-5.71-5.67-4.49-8.65,1.35-3.33,4.51-4.24,8.24-2.72a9.25,9.25,0,0,1,1.23.59l-3.58,8.81c2.83,1,5.29,0,6.31-2.5a6.37,6.37,0,0,0,.3-3.67l1.77-.19a8.39,8.39,0,0,1-.41,4.84C159.75,410.79,156.08,412.52,151.81,410.78Zm2.64-9.57c-2.63-1.07-4.54-.47-5.37,1.57-.74,1.83.06,4.09,2.53,5.41Z"/><path d="M162.06,400.06l-1-1.73a6.34,6.34,0,0,0,3.21-3.11c.75-1.7.22-2.95-.89-3.44-1.33-.59-2.59.7-3.74,1.87-1.47,1.54-3.24,3.17-5.41,2.21s-2.94-3.26-1.7-6a7,7,0,0,1,3.23-3.36l.92,1.64a5.24,5.24,0,0,0-2.44,2.44c-.71,1.62-.17,2.75.81,3.18,1.22.54,2.29-.67,3.49-1.88,1.51-1.55,3.19-3.28,5.63-2.2,2.1.93,3.11,3.37,1.76,6.42A8.48,8.48,0,0,1,162.06,400.06Z"/><path d="M153.11,372.82l-.69-2.21,6.15-1.52.53,1.62Zm14.73,9.47c-2.76-1.36-3-4.41-.91-10.08-1.61-.8-3.43-1-4.46,1a7.66,7.66,0,0,0-.51,4.44l-1.89.1a10.46,10.46,0,0,1,.81-5.77c1.53-3.09,4.22-3.38,7.37-1.83L176,374l-.87,1.77-1.6-.56,0,.08a7.52,7.52,0,0,1-.25,5.08A3.84,3.84,0,0,1,167.84,382.29Zm4-7.66-3.51-1.73c-1.56,4.47-1.24,6.44.37,7.23,1.43.71,2.52,0,3.13-1.24S172.33,376.39,171.84,374.63Z"/><path d="M178.17,363.76l-15.66-8.46,1.13-2.09,15.82,8.54c.66.36,1.07.22,1.24-.09a2,2,0,0,0,.2-.49l1.73.57a3.2,3.2,0,0,1-.44,1.31C181.32,364.63,180,364.73,178.17,363.76Z"/><path d="M180.55,357.64c-2.67-1.53-2.69-4.58-.29-10.12-1.56-.89-3.36-1.25-4.51.76a7.66,7.66,0,0,0-.78,4.4l-1.9,0a10.46,10.46,0,0,1,1.17-5.72c1.71-3,4.42-3.12,7.47-1.37l7.5,4.29-1,1.71-1.56-.66,0,.08a7.52,7.52,0,0,1-.56,5.06A3.84,3.84,0,0,1,180.55,357.64Zm4.47-7.4-3.4-1.94c-1.83,4.37-1.63,6.35-.07,7.25,1.38.79,2.51.17,3.2-1S185.4,352,185,350.24Z"/><path d="M429.51,950.81l.08,0,.73-1.27,1.77.72-7.78,19.12-2.2-.9,2.12-5.21,1-2.34a7,7,0,0,1-4.83.17c-3.38-1.38-4.12-4.71-2.48-8.74,1.81-4.46,5.53-6,8.51-4.77A6.32,6.32,0,0,1,429.51,950.81Zm-9.27,2.49c-1.17,2.87-1,5.2,1.48,6.21a5.81,5.81,0,0,0,4.21-.35l2.79-6.85a5.52,5.52,0,0,0-2.64-2.67C423.93,948.76,421.55,950.07,420.24,953.3Z"/><path d="M415.52,949l-3.69,8.14-2.19-1,3.56-7.84c1.09-2.4.84-3.76-.85-4.52-1.32-.6-2.54-.36-4.44.6l-4.13,9.11-2.17-1,5.82-12.84,1.8.81-.73,2.09.08,0c1.82-.86,3.51-1.21,5.28-.41C416.58,943.46,417,945.75,415.52,949Z"/><path d="M404,939.82l-1.77.9a6.34,6.34,0,0,0-3-3.35c-1.66-.83-2.93-.35-3.47.74-.65,1.3.58,2.62,1.7,3.82,1.47,1.54,3,3.38,2,5.51s-3.39,2.79-6.12,1.43a7,7,0,0,1-3.21-3.38l1.68-.85a5.24,5.24,0,0,0,2.33,2.55c1.58.79,2.74.29,3.21-.67.59-1.2-.56-2.32-1.72-3.58-1.48-1.58-3.14-3.34-2-5.73,1-2.05,3.51-3,6.5-1.47A8.49,8.49,0,0,1,404,939.82Z"/><path d="M384.31,948.87a1.66,1.66,0,0,1-2.93-1.54,1.66,1.66,0,0,1,2.93,1.54Zm1.68-4.13-2.1-1.11,6.56-12.47,2.1,1.11Z"/><path d="M379.43,941.28l-1.72-1,.82-1.87-.08,0a6.64,6.64,0,0,1-5.29-.25c-2.58-1.45-2.8-3.77-1-6.91l4.38-7.78,2.07,1.17-4.23,7.5c-1.3,2.3-1.14,3.68.47,4.59,1.26.71,2.49.54,4.43,0l5-8.89,2.07,1.17Z"/><path d="M370,927.75c-2.41,3.93-6.53,4.71-9.27,3-3.07-1.88-3.45-5.14-1.34-8.58a9.26,9.26,0,0,1,.79-1.12l8.11,5c1.41-2.64.86-5.22-1.44-6.63a6.37,6.37,0,0,0-3.57-.9l.1-1.77a8.39,8.39,0,0,1,4.71,1.19C371.27,919.91,372.37,923.82,370,927.75Zm-9-4.17c-1.49,2.42-1.2,4.4.68,5.55,1.68,1,4,.61,5.75-1.61Z"/><path d="M361.08,915.89l-1.87.68a6.33,6.33,0,0,0-2.54-3.69c-1.55-1-2.87-.71-3.54.31-.8,1.21.26,2.67,1.22,4,1.27,1.71,2.59,3.72,1.28,5.7s-3.7,2.35-6.25.68a7,7,0,0,1-2.78-3.74l1.77-.64a5.23,5.23,0,0,0,2,2.81c1.48,1,2.68.62,3.27-.27.73-1.11-.28-2.37-1.27-3.76-1.28-1.75-2.71-3.69-1.24-5.92,1.26-1.91,3.84-2.51,6.62-.67A8.48,8.48,0,0,1,361.08,915.89Z"/><path d="M351.05,909.25l-1.89.62a6.34,6.34,0,0,0-2.43-3.76c-1.52-1.07-2.84-.79-3.55.2-.83,1.19.18,2.68,1.1,4,1.22,1.74,2.47,3.79,1.11,5.74s-3.77,2.24-6.26.49a7,7,0,0,1-2.67-3.82l1.79-.58a5.24,5.24,0,0,0,1.92,2.87c1.45,1,2.66.7,3.28-.18.77-1.09-.21-2.38-1.16-3.79-1.23-1.78-2.59-3.77-1.06-6,1.32-1.87,3.91-2.39,6.64-.47A8.49,8.49,0,0,1,351.05,909.25Z"/><path d="M327.51,907.79,326,906.57l1.1-1.72-.07-.05a6.19,6.19,0,0,1-4.91-.86,3.7,3.7,0,0,1-1.36-4.53c-2.15.33-4,.29-5.31-.78-2.27-1.8-2.17-4.17.07-7l5.56-7,1.86,1.48-5.36,6.74c-1.64,2.07-1.69,3.48-.3,4.58.86.69,2.2.82,4.12.5l6.35-8,1.86,1.48-5.36,6.74c-1.64,2.07-1.69,3.47-.28,4.59.82.65,2.2.82,4.12.5l6.35-8,1.86,1.48Z"/><path d="M314,887.75c-3.12,3.55-7.21,3.55-9.8,1.27s-3.12-6.33,0-9.88,7.17-3.51,9.76-1.23S317,884.25,314,887.75Zm-8-7c-2.14,2.44-2.38,5.17-.55,6.77s4.5,1,6.65-1.42,2.32-5.14.51-6.73S308.13,878.35,306,880.77Z"/><path d="M302.09,877.27c-3.16,3.32-7.22,3.39-9.55,1.17a5.81,5.81,0,0,1-1.74-3.89l-1.57,1.83-3.74,3.93-1.75-1.66,14.22-15L299.4,865l-1,1.34.06.06a6.36,6.36,0,0,1,4.47,1.49C305.5,870.35,305.33,873.86,302.09,877.27Zm-4.86-9.33-5.07,5.34a4.91,4.91,0,0,0,1.46,3.43c1.64,1.56,4.44,1.22,6.66-1.12s2.68-4.89.9-6.59A4.77,4.77,0,0,0,297.24,867.94Z"/><path d="M290.41,866.08c-3.3,3.22-7.48,3-9.73.66-2.51-2.57-2.08-5.83.8-8.65a9.16,9.16,0,0,1,1-.89l6.65,6.81c2-2.21,2.11-4.86.22-6.79a6.36,6.36,0,0,0-3.24-1.74l.53-1.7A8.39,8.39,0,0,1,291,856.1C293.59,858.79,293.71,862.86,290.41,866.08Zm-7.72-6.25c-2,2-2.24,4-.7,5.55,1.38,1.41,3.78,1.58,6-.15Z"/><path d="M282.75,852.1l-13.07,12.1-1.62-1.75,13.2-12.21c.55-.51.55-.94.31-1.2a2,2,0,0,0-.4-.34l1.1-1.46a3.21,3.21,0,0,1,1.1.84C284.6,849.4,284.26,850.7,282.75,852.1Z"/><path d="M260.66,845.54a2.65,2.65,0,0,0-.31,4,4.42,4.42,0,0,0,3.45,1.44l-.06,1.85a6.52,6.52,0,0,1-5.07-2.22c-1.91-2.22-1.81-4.83.37-6.7,2.88-2.47,7.09.07,9.87-2.92l1.36,1.58C267.25,846,263,843.54,260.66,845.54Zm13.26-5.34a1.73,1.73,0,0,1-2.52-.09,1.83,1.83,0,0,1,2.77-2.38A1.72,1.72,0,0,1,273.93,840.21Z"/><path d="M873,852.49c2.22,2.13,1.5,5.09-2.17,9.89,1.3,1.24,3,2,4.56.35a7.66,7.66,0,0,0,1.82-4.08l1.83.47a10.47,10.47,0,0,1-2.51,5.26c-2.39,2.49-5,2-7.58-.48l-6.24-6,1.36-1.42,1.36,1,.06-.06a7.52,7.52,0,0,1,1.77-4.78A3.83,3.83,0,0,1,873,852.49Zm-6.13,6.1,2.83,2.71c2.83-3.79,3.12-5.77,1.82-7s-2.4-.77-3.36.24S867,856.76,866.92,858.59ZM884.25,866v2.32l-6.33-.4,0-1.7Z"/><path d="M859.37,868.6l6.12,6.5-1.75,1.65-5.91-6.27c-1.81-1.92-3.15-2.21-4.51-.94-1.06,1-1.3,2.22-1.14,4.34l6.86,7.29-1.73,1.63-9.66-10.26,1.44-1.35,1.66,1.47.06-.06c-.1-2,.21-3.71,1.63-5C854.62,865.5,856.91,866,859.37,868.6Z"/><path d="M853.52,886.24,852,887.54l-1.49-1.4-.07.06a6.64,6.64,0,0,1-2,4.9c-2.23,1.94-4.49,1.38-6.85-1.34L835.76,883l1.79-1.56,5.66,6.49c1.73,2,3.09,2.31,4.49,1.09,1.09-1,1.34-2.17,1.48-4.17l-6.7-7.7,1.79-1.56Z"/><path d="M827.11,886.68a4.07,4.07,0,0,1,.35,3.78l.07.09a2.6,2.6,0,0,1,2.39,1,3.3,3.3,0,0,1,.4,3l.07.09a5,5,0,0,1,2.7,9.09,5.63,5.63,0,0,1-1.79,1l-3.86,3-1.13-1.44,2.28-1.79a4.09,4.09,0,0,1-2.7-1.57,4.84,4.84,0,0,1,1-7,4.92,4.92,0,0,1,2-.92,2.13,2.13,0,0,0-.33-1.88c-.55-.71-1.4-.85-2.91.33l-2.15,1.68c-2.58,2-4.51,2.24-6,.39-1.61-2.05-.84-5.53,2.61-8.23C822.9,885.15,825.61,884.76,827.11,886.68Zm-7.93,7.13c.8,1,1.87.74,3.31-.38l1.92-1.5A6.86,6.86,0,0,1,826,891a3,3,0,0,0-.33-2.77c-.93-1.19-2.73-1-4.74.58S818.27,892.65,819.18,893.81Zm8.47,7.84a3,3,0,1,0,4.7-3.68,3,3,0,1,0-4.7,3.68Z"/><path d="M819.74,900.47c1.81,2.48.58,5.28-3.87,9.36,1.06,1.45,2.55,2.52,4.43,1.15a7.67,7.67,0,0,0,2.51-3.7l1.72.79a10.47,10.47,0,0,1-3.4,4.74c-2.79,2-5.31,1-7.38-1.8l-5.09-7,1.59-1.16,1.16,1.24.07-.05a7.52,7.52,0,0,1,2.58-4.39A3.84,3.84,0,0,1,819.74,900.47Zm-7.1,4.93,2.31,3.16c3.46-3.24,4.08-5.13,3-6.58-.94-1.29-2.22-1.18-3.35-.36S813,903.61,812.63,905.4Z"/><path d="M809.93,911.74c2.56,3.8,1.74,7.78-.93,9.58a5.81,5.81,0,0,1-4.18.85l1.44,1.93,3,4.5-2,1.34-11.53-17.13,1.64-1.1,1.09,1.26.07,0a6.36,6.36,0,0,1,2.42-4C803.92,906.9,807.31,907.84,809.93,911.74Zm-10.16,2.71,4.11,6.11a4.91,4.91,0,0,0,3.67-.68c1.88-1.26,2.15-4.07.36-6.74s-4.19-3.68-6.24-2.31A4.77,4.77,0,0,0,799.76,914.45Z"/><path d="M791.41,912.42a4.07,4.07,0,0,1-.07,3.8l.06.1a2.6,2.6,0,0,1,2.27,1.29,3.3,3.3,0,0,1,.07,3l.06.1a5,5,0,0,1,1.68,9.33,5.62,5.62,0,0,1-1.88.76l-4.17,2.58-1-1.55,2.47-1.53a4.09,4.09,0,0,1-2.51-1.86,4.84,4.84,0,0,1,1.81-6.88,4.92,4.92,0,0,1,2.06-.69,2.14,2.14,0,0,0-.12-1.9c-.47-.76-1.3-1-2.93,0l-2.32,1.43c-2.79,1.72-4.73,1.73-6-.27-1.37-2.22-.22-5.59,3.5-7.9C787.39,910.44,790.13,910.35,791.41,912.42Zm-8.67,6.22c.69,1.11,1.78.95,3.33,0l2.07-1.28a6.85,6.85,0,0,1,1.67-.76,3,3,0,0,0,0-2.78c-.79-1.28-2.6-1.29-4.77.06S782,917.38,782.74,918.63Zm7.55,8.73a3,3,0,1,0,5.08-3.14,3,3,0,1,0-5.08,3.14Z"/><path d="M784.33,928.17c2.29,4,1,8-1.81,9.58-3.12,1.78-6.16.55-8.17-2.95a9.34,9.34,0,0,1-.6-1.23l8.26-4.72c-1.63-2.51-4.17-3.26-6.51-1.92a6.37,6.37,0,0,0-2.5,2.7l-1.51-.94a8.39,8.39,0,0,1,3.31-3.56C778.08,923.26,782,924.17,784.33,928.17Zm-8,5.9c1.41,2.47,3.28,3.17,5.19,2.08,1.71-1,2.48-3.26,1.35-5.82Z"/><path d="M769.46,933.47l3.67,6.88,1.84-1,.85,1.59L774,942.13l1.6,3.62-1.77.94-1.86-3.48L768.58,945l-.92-1.71,3.35-1.79-3.69-6.91c-.82-1.54-1.77-2.15-3.2-1.38a5.13,5.13,0,0,0-1.23,1.08l-1.26-1.37a8.7,8.7,0,0,1,2.06-1.69C766.36,929.81,768.15,931,769.46,933.47Z"/><path d="M753.25,938.54a1.73,1.73,0,0,1-.74,2.42,1.83,1.83,0,0,1-1.58-3.29A1.72,1.72,0,0,1,753.25,938.54ZM755,952.74a2.65,2.65,0,0,0,3.75,1.32,4.42,4.42,0,0,0,2.28-3l1.77.53a6.52,6.52,0,0,1-3.45,4.33c-2.64,1.27-5.13.5-6.38-2.08-1.65-3.42,1.89-6.83-.28-10.29l1.88-.91C757.09,946.48,753.65,950,755,952.74Z"/><path d="M939.42,385.6c5.45-2.78,10.42-1.28,12.62,3a6.94,6.94,0,0,1,.28,5.72l-2-.45a5.2,5.2,0,0,0-.17-4.28c-1.63-3.2-5.35-4-9.56-1.83s-5.91,5.59-4.27,8.79a5.74,5.74,0,0,0,3.92,3l-.74,1.87a7.36,7.36,0,0,1-5.1-3.94C932.25,393.23,933.89,388.42,939.42,385.6Z"/><path d="M951.42,399.35l1,2.15-12.74,6-1-2.15Zm3.82-2.29a1.66,1.66,0,0,1,1.42,3,1.66,1.66,0,0,1-1.42-3Z"/><path d="M953.74,404.17l1,2.25-6.24,5.68c-1.11.93-2.22,1.93-3.26,2.87l0,.11c1.38-.17,2.87-.32,4.31-.51l8.4-.8,1,2.15L944,417.06l-1.13-2.55Z"/><path d="M960,418.68l.91,2.2-13,5.37L947,424Zm3.94-2.09a1.66,1.66,0,0,1,1.26,3.06,1.66,1.66,0,0,1-1.26-3.06Z"/><path d="M955.84,427.05c4.42-1.69,8.07.3,9.36,3.68a5.85,5.85,0,0,1-.07,4.44l-1.9-.58a4.13,4.13,0,0,0,.16-3.07c-.91-2.38-3.64-3.33-6.67-2.17s-4.41,3.58-3.48,6a5,5,0,0,0,2.51,2.58l-1.12,1.55a6.88,6.88,0,0,1-3.31-3.61C950,432.37,951.48,428.72,955.84,427.05Z"/><path d="M973.62,446.87l-1.78-5.46,1.93-.63L978.09,454l-1.93.63-1.78-5.46-16.16,5.28-.76-2.32Z"/><path d="M966.74,458c4.43-1.29,8,.91,8.9,4,1,3.45-.91,6.12-4.78,7.25a9.22,9.22,0,0,1-1.33.3l-2.66-9.13c-2.82,1-4.15,3.29-3.39,5.88a6.37,6.37,0,0,0,2,3.06l-1.27,1.25a8.39,8.39,0,0,1-2.69-4.05C960.5,462.94,962.31,459.3,966.74,458Zm3.87,9.14c2.73-.79,3.85-2.45,3.23-4.57-.55-1.89-2.58-3.17-5.34-2.67Z"/><path d="M970.73,471.93c4.58-1.16,8,1.24,8.87,4.75a5.85,5.85,0,0,1-.59,4.4l-1.82-.79a4.13,4.13,0,0,0,.52-3c-.63-2.47-3.22-3.73-6.37-2.93s-4.79,3-4.16,5.54a5,5,0,0,0,2.19,2.85l-1.29,1.4a6.88,6.88,0,0,1-2.86-4C964.29,476.52,966.2,473.08,970.73,471.93Z"/><path d="M987.52,483l.5,2.32-5.5,1.19-2.85.53a6.74,6.74,0,0,1,3.26,4.1c.62,2.89-1,4.6-4.48,5.36l-8.73,1.88-.5-2.32,8.42-1.82c2.58-.56,3.51-1.59,3.12-3.4-.31-1.42-1.25-2.22-2.94-3.31l-10,2.15-.5-2.32Z"/><path d="M973.24,509.64a1.73,1.73,0,0,1,2.11,1.39,1.83,1.83,0,0,1-3.61.59A1.72,1.72,0,0,1,973.24,509.64ZM987.35,512a2.65,2.65,0,0,0,2.32-3.23,4.42,4.42,0,0,0-2.2-3l1-1.55a6.52,6.52,0,0,1,3.19,4.53c.48,2.89-1,5.07-3.79,5.53-3.75.62-6-3.74-10-2.62l-.34-2.06C981.94,508.18,984.32,512.46,987.35,512Z"/><path d="M175,538.53l-7.76-.78-.21,2.08-1.79-.18.08-2.21-3.9-.68.2-2,3.92.4.38-3.78,1.93.2-.38,3.78,7.79.79c1.73.17,2.77-.27,2.93-1.89a5.13,5.13,0,0,0-.21-1.62l1.84-.28a8.7,8.7,0,0,1,.26,2.65C179.77,538,177.77,538.81,175,538.53Z"/><path d="M166.33,528l.25-2,2.56.12v-.09c-1.64-1.17-2.58-2.75-2.38-4.33a3.5,3.5,0,0,1,.48-1.46l2,.72a3.94,3.94,0,0,0-.4,1.32c-.15,1.18.54,2.7,2.78,3.95l9,1.13-.3,2.36Z"/><path d="M177.74,520.9c-3-.47-4.15-3.31-3.89-9.35-1.78-.27-3.58,0-3.94,2.32a7.66,7.66,0,0,0,.85,4.39l-1.78.66a10.46,10.46,0,0,1-1-5.75c.53-3.41,3-4.49,6.48-4l8.54,1.32-.3,1.95-1.69-.06v.09a7.52,7.52,0,0,1,1.29,4.92A3.83,3.83,0,0,1,177.74,520.9Zm1.52-8.51-3.87-.6c-.15,4.73.75,6.51,2.53,6.79,1.58.25,2.4-.74,2.62-2.12S180.26,513.92,179.27,512.39Z"/><path d="M169.93,503.65l.38-1.94,2,.19,0-.09a6.64,6.64,0,0,1-1.43-5.09c.56-2.9,2.7-3.85,6.23-3.16l8.77,1.7-.45,2.33L177,496c-2.59-.5-3.86.08-4.21,1.9-.28,1.42.28,2.54,1.4,4.2l10,1.94-.45,2.33Z"/><path d="M185,492.12l-1.29-1.52a6.34,6.34,0,0,0,2.57-3.66c.42-1.81-.33-2.93-1.52-3.21-1.41-.33-2.41,1.17-3.32,2.54-1.16,1.79-2.58,3.72-4.9,3.19s-3.5-2.65-2.81-5.62a7,7,0,0,1,2.54-3.91l1.22,1.44a5.23,5.23,0,0,0-1.94,2.86c-.4,1.72.35,2.73,1.4,3,1.3.3,2.13-1.09,3.08-2.5,1.19-1.81,2.52-3.82,5.12-3.22,2.23.51,3.69,2.73,2.94,6A8.48,8.48,0,0,1,185,492.12Z"/><path d="M176,475.65l.51-1.9,1.62.22,0-.08a7.29,7.29,0,0,1-.74-4.85c.94-3.5,4.16-4.65,8.39-3.52,4.62,1.24,6.6,4.74,5.77,7.85a6.53,6.53,0,0,1-2.58,3.36l2.4.58,4.59,1.23-.61,2.3Zm9.16-7.76c-3-.8-5.28-.33-6,2.24-.31,1.15,0,2.47.88,4.14l7.14,1.91a5.58,5.58,0,0,0,2.32-3C190.11,471,188.51,468.79,185.15,467.89Z"/><path d="M190,464.09c-2.94-.9-3.63-3.88-2.5-9.81-1.72-.53-3.55-.49-4.23,1.73a7.66,7.66,0,0,0,.2,4.46l-1.85.4a10.46,10.46,0,0,1-.12-5.83c1-3.3,3.63-4,7-3l8.26,2.54-.58,1.88-1.67-.3,0,.08a7.51,7.51,0,0,1,.57,5.06A3.83,3.83,0,0,1,190,464.09Zm2.74-8.2L189,454.74c-.83,4.66-.2,6.55,1.52,7.08,1.52.47,2.49-.39,2.9-1.72S193.45,457.55,192.69,455.89Z"/><path d="M184.73,446l.64-1.87,2.48.63,0-.08c-1.36-1.48-2-3.22-1.45-4.72a3.49,3.49,0,0,1,.76-1.33l1.83,1.11a4,4,0,0,0-.66,1.21c-.38,1.13,0,2.75,1.92,4.43l8.56,2.93-.77,2.25Z"/><path d="M194.27,439.93c-4.32-1.62-5.86-5.51-4.73-8.53,1.26-3.37,4.39-4.36,8.17-2.94A9.21,9.21,0,0,1,199,429l-3.34,8.9c2.86.89,5.29-.15,6.24-2.67a6.37,6.37,0,0,0,.2-3.67l1.76-.24a8.39,8.39,0,0,1-.27,4.85C202.22,439.73,198.59,441.55,194.27,439.93Zm2.38-9.64c-2.66-1-4.55-.34-5.32,1.72-.69,1.85.17,4.09,2.67,5.34Z"/><path d="M193.27,422.71l.76-1.82,2,.6,0-.08a6.64,6.64,0,0,1-.37-5.28c1.14-2.73,3.42-3.22,6.74-1.83l8.24,3.45-.92,2.19-7.94-3.33c-2.43-1-3.79-.71-4.51,1-.56,1.34-.25,2.54.52,4.4l9.42,3.94-.92,2.19Z"/><path d="M205.62,411.73c-4.29-2-5.41-6-3.89-9.27a5.85,5.85,0,0,1,3.23-3l.91,1.76a4.13,4.13,0,0,0-2.31,2c-1.07,2.32.15,4.92,3.1,6.29s5.64.66,6.72-1.69a5,5,0,0,0,.1-3.6l1.89-.28a6.87,6.87,0,0,1-.28,4.89C213.51,412.22,209.86,413.69,205.62,411.73Z"/><path d="M211,400.21c-4.12-2.07-5.24-6.1-3.8-9,1.61-3.21,4.83-3.87,8.43-2.06a9.23,9.23,0,0,1,1.18.69l-4.27,8.5c2.75,1.19,5.28.41,6.49-2a6.37,6.37,0,0,0,.59-3.63l1.78,0a8.39,8.39,0,0,1-.79,4.8C218.9,400.85,215.09,402.28,211,400.21Zm3.39-9.33c-2.54-1.28-4.49-.83-5.47,1.14-.88,1.76-.27,4.08,2.09,5.59Z"/><path d="M216.9,371.95a2.65,2.65,0,0,0-3.83,1.07,4.42,4.42,0,0,0-.17,3.73l-1.76.58a6.52,6.52,0,0,1,.35-5.53c1.44-2.55,3.92-3.35,6.42-1.94,3.31,1.86,2.36,6.69,6.12,8.28L223,380C218.76,378.29,219.58,373.46,216.9,371.95Zm9.55,10.64a1.73,1.73,0,0,1-.78-2.4,1.83,1.83,0,0,1,3.18,1.79A1.72,1.72,0,0,1,226.45,382.59Z"/><path d="M388.79,1040.38c3.62,2.11,4.79,6.58,2.67,11.75-2.31,5.63-6.8,7.77-11.22,6s-6.13-6.53-3.83-12.14c2.08-5.07,6-7.43,10-6.54a5,5,0,0,0-3.36-4.11,7.3,7.3,0,0,0-1.95-.52l.28-1.89a8,8,0,0,1,2.69.63A7.28,7.28,0,0,1,388.79,1040.38Zm-10,6.53c-1.8,4.37-.84,7.93,2.3,9.22s6.32-.57,8.11-4.95,1-8.2-2.19-9.49S380.59,1042.41,378.74,1046.92Z"/><path d="M374.72,1040.35l-3.68,8.14-2.19-1,3.55-7.85c1.09-2.41.84-3.76-.85-4.52-1.32-.6-2.54-.35-4.44.6l-4.12,9.12-2.17-1,5.81-12.84,1.8.81-.72,2.09.08,0c1.82-.86,3.51-1.21,5.28-.41C375.77,1034.78,376.2,1037.07,374.72,1040.35Z"/><path d="M354.81,1045.91a1.66,1.66,0,0,1-3-1.43,1.66,1.66,0,0,1,3,1.43Zm1.53-4.19-2.14-1,6.1-12.7,2.14,1Z"/><path d="M348.61,1030.08c-2.12,4.06-6,5.23-8.86,3.74a5.81,5.81,0,0,1-2.74-3.27l-1,2.19-2.51,4.81-2.13-1.12,9.57-18.29,1.75.91-.59,1.56.08,0a6.36,6.36,0,0,1,4.7.2C350,1022.5,350.79,1025.92,348.61,1030.08Zm-7.23-7.64L338,1029a4.91,4.91,0,0,0,2.35,2.9c2,1,4.61,0,6.1-2.9s1.24-5.44-.94-6.58A4.77,4.77,0,0,0,341.38,1022.44Z"/><path d="M334.35,1022.57c-2.32,4.12-6.33,5-9.33,3.26s-4.36-5.55-2-9.67,6.3-4.9,9.3-3.21S336.65,1018.5,334.35,1022.57Zm-9.22-5.2c-1.6,2.83-1.27,5.55.86,6.74s4.62.08,6.21-2.75,1.21-5.51-.88-6.69S326.72,1014.56,325.13,1017.36Z"/><path d="M314.26,1024.34a1.66,1.66,0,0,1-2.84-1.69,1.66,1.66,0,0,1,2.84,1.69Zm1.89-4-2-1.21,7.2-12.12,2,1.21Z"/><path d="M314.66,1008l-4.1,6.64,1.78,1.1-.95,1.53-2-1-2.32,3.2-1.7-1.05,2.07-3.36-3.23-2,1-1.65,3.23,2,4.12-6.66c.91-1.48,1-2.61-.42-3.46a5.1,5.1,0,0,0-1.56-.52l.55-1.77a8.68,8.68,0,0,1,2.5.93C316.27,1003.51,316.13,1005.67,314.66,1008Z"/><path d="M302.66,998.66l-9.78,14.88-2-1.31,9.88-15c.41-.63.31-1,0-1.24a2,2,0,0,0-.47-.24l.72-1.68a3.22,3.22,0,0,1,1.27.55C303.81,995.6,303.8,996.94,302.66,998.66Z"/><path d="M295,998.64c-2.62,3.8-6.77,4.35-9.42,2.53-3-2-3.17-5.32-.88-8.64a9.24,9.24,0,0,1,.84-1.07l7.83,5.4c1.55-2.56,1.13-5.17-1.09-6.7a6.37,6.37,0,0,0-3.51-1.08l.2-1.77a8.39,8.39,0,0,1,4.64,1.44C296.74,990.88,297.64,994.84,295,998.64ZM286.24,994c-1.61,2.34-1.43,4.33.38,5.58,1.62,1.12,4,.83,5.83-1.3Z"/><path d="M286.77,986.33l-1.9.59a6.34,6.34,0,0,0-2.36-3.8c-1.5-1.09-2.83-.84-3.55.14-.85,1.17.13,2.68,1,4.05,1.19,1.76,2.41,3.83,1,5.76s-3.81,2.18-6.27.38a7,7,0,0,1-2.6-3.87l1.8-.55a5.23,5.23,0,0,0,1.87,2.9c1.43,1,2.65.75,3.28-.12.79-1.08-.17-2.38-1.1-3.81-1.2-1.8-2.53-3.82-1-6,1.35-1.85,4-2.32,6.65-.36A8.48,8.48,0,0,1,286.77,986.33Z"/><path d="M263.36,984.59l-1.54-1.23,1.11-1.71-.07-.05a6.19,6.19,0,0,1-4.9-.89,3.7,3.7,0,0,1-1.34-4.54c-2.15.32-4,.27-5.31-.8-2.26-1.82-2.15-4.18.1-7l5.59-7,1.85,1.49-5.39,6.72c-1.65,2.06-1.71,3.47-.33,4.57.86.69,2.2.83,4.12.52l6.39-8,1.85,1.49L260.12,975c-1.65,2.06-1.71,3.47-.3,4.59.81.65,2.19.83,4.12.52l6.39-8,1.85,1.49Z"/><path d="M249.88,964.51c-3,3.48-7.21,3.58-9.64,1.47-2.72-2.36-2.56-5.64.08-8.68a9.21,9.21,0,0,1,1-1l7.19,6.23c1.83-2.37,1.7-5-.34-6.78a6.37,6.37,0,0,0-3.37-1.47l.39-1.73a8.39,8.39,0,0,1,4.46,1.94C252.44,957,252.9,961,249.88,964.51Zm-8.21-5.58c-1.86,2.15-1.9,4.14-.24,5.59,1.49,1.29,3.89,1.26,5.94-.65Z"/><path d="M239.95,952.25,234.7,958l1.54,1.4L235,960.75l-1.73-1.37-2.87,2.72L229,960.75l2.65-2.92-2.81-2.55,1.31-1.44,2.81,2.55,5.27-5.79c1.17-1.29,1.43-2.39.22-3.48a5.11,5.11,0,0,0-1.43-.79l.87-1.64a8.69,8.69,0,0,1,2.28,1.37C242.35,948.09,241.82,950.19,239.95,952.25Z"/><path d="M233.15,946l-5.35,5.68,1.52,1.43-1.23,1.31-1.7-1.41-2.92,2.67L222,954.32l2.71-2.87-2.76-2.61,1.33-1.41L226,950l5.37-5.7c1.19-1.27,1.47-2.36.29-3.48a5.12,5.12,0,0,0-1.42-.82l.9-1.63a8.67,8.67,0,0,1,2.26,1.41C235.63,941.89,235.06,944,233.15,946Z"/><path d="M219.53,946.49l-1.41-1.38,1.64-2-.06-.06c-1.92.59-3.75.39-4.89-.73a3.49,3.49,0,0,1-.87-1.26l1.79-1.17a4,4,0,0,0,.81,1.12c.85.83,2.47,1.21,4.82.18l6.33-6.46,1.7,1.66Z"/><path d="M218.22,935.3c-3.3,3.22-7.49,3-9.73.65-2.51-2.58-2.08-5.83.81-8.65a9.2,9.2,0,0,1,1-.89l6.64,6.82c2-2.21,2.12-4.85.23-6.79a6.36,6.36,0,0,0-3.24-1.75l.54-1.7a8.39,8.39,0,0,1,4.28,2.31C221.42,928,221.53,932.09,218.22,935.3ZM210.51,929c-2,2-2.25,4-.71,5.55,1.38,1.41,3.77,1.59,6-.15Z"/><path d="M204.21,920.66c-3.43,3.08-7.6,2.65-9.75.26-2.4-2.67-1.84-5.91,1.16-8.6a9.21,9.21,0,0,1,1.07-.85l6.36,7.08c2.11-2.12,2.31-4.76.51-6.77a6.37,6.37,0,0,0-3.16-1.87l.6-1.67a8.39,8.39,0,0,1,4.18,2.48C207.69,913.51,207.64,917.58,204.21,920.66Zm-7.45-6.56c-2.11,1.9-2.41,3.88-.93,5.51,1.32,1.47,3.71,1.74,6,.09Z"/><path d="M188.5,913.67l-1.27-1.51,1.42-1.47-.06-.07a6.64,6.64,0,0,1-4.87-2.07c-1.91-2.26-1.31-4.51,1.43-6.84L192,896l1.54,1.82-6.58,5.56c-2,1.71-2.35,3.06-1.15,4.47.94,1.11,2.15,1.37,4.15,1.54l7.79-6.6,1.54,1.82Z"/><path d="M953,921.92c4.45,4.19,4.71,9.38,1.39,12.9a6.94,6.94,0,0,1-5.29,2.19l-.25-2a5.2,5.2,0,0,0,4-1.6c2.47-2.62,1.94-6.37-1.5-9.62s-7.25-3.68-9.71-1.06a5.74,5.74,0,0,0-1.46,4.68l-2-.06a7.36,7.36,0,0,1,2-6.13C943.43,917.74,948.51,917.67,953,921.92Z"/><path d="M939.89,932.15c3.33,3.35,3.06,7.43.61,9.87s-6.53,2.69-9.86-.66-3-7.39-.57-9.82S936.6,928.85,939.89,932.15Zm-7.5,7.47c2.29,2.3,5,2.72,6.72,1s1.32-4.43-1-6.73-5-2.66-6.68-1S930.12,937.34,932.39,939.62Z"/><path d="M932.72,949.25l-1.45,1.33-1.52-1.36-.06.06a6.19,6.19,0,0,1-1.61,4.71,3.7,3.7,0,0,1-4.68.65c0,2.17-.33,4-1.59,5.13-2.13,2-4.45,1.5-6.89-1.15l-6-6.57,1.75-1.61,5.83,6.34c1.79,1.94,3.17,2.2,4.47,1,.81-.75,1.15-2,1.13-4l-6.91-7.51,1.75-1.61,5.83,6.34c1.79,1.94,3.17,2.2,4.49,1,.77-.71,1.15-2,1.13-4l-6.91-7.51,1.75-1.61Z"/><path d="M914.65,965.73,913.14,967l-1.46-1.43-.07.06a6.2,6.2,0,0,1-1.83,4.63,3.7,3.7,0,0,1-4.71.43c-.11,2.17-.51,3.95-1.83,5-2.22,1.86-4.52,1.29-6.83-1.47l-5.73-6.85,1.82-1.53,5.53,6.6c1.69,2,3.06,2.35,4.42,1.21.84-.71,1.25-2,1.32-3.94l-6.55-7.83,1.82-1.53,5.53,6.6c1.69,2,3.06,2.35,4.44,1.2.8-.67,1.25-2,1.32-3.94l-6.55-7.83,1.82-1.53Z"/><path d="M892.31,975c2.82,3.65,2.09,7.77-.45,9.74-2.84,2.2-6,1.4-8.5-1.78a9.34,9.34,0,0,1-.77-1.13l7.52-5.83c-2-2.26-4.58-2.65-6.72-1a6.38,6.38,0,0,0-2.1,3l-1.62-.72a8.41,8.41,0,0,1,2.78-4C885.44,971,889.49,971.37,892.31,975Zm-7.09,7c1.74,2.25,3.69,2.68,5.43,1.33,1.56-1.21,2-3.57.53-6Z"/><path d="M884.19,990.17l-1.6,1.16-1.36-1.52-.07.05a6.64,6.64,0,0,1-2.42,4.7c-2.39,1.74-4.6,1-6.71-1.93l-5.25-7.22,1.92-1.4,5.07,7c1.55,2.13,2.88,2.57,4.38,1.48,1.17-.85,1.53-2,1.84-4l-6-8.25,1.92-1.4Z"/><path d="M865.23,991.78l4.43,6.42,1.72-1.19,1,1.48-1.73,1.37,2,3.41-1.65,1.14-2.24-3.25-3.13,2.16-1.1-1.6,3.13-2.16-4.45-6.45c-1-1.43-2-1.93-3.34-1a5.15,5.15,0,0,0-1.1,1.22l-1.4-1.22a8.69,8.69,0,0,1,1.85-1.91C861.73,988.49,863.65,989.49,865.23,991.78Z"/><path d="M857.92,1008.49l-1.66,1.06-1.26-1.6-.07,0a6.64,6.64,0,0,1-2.71,4.54c-2.5,1.59-4.65.69-6.58-2.34l-4.8-7.53,2-1.28,4.63,7.26c1.42,2.23,2.71,2.74,4.28,1.75,1.22-.78,1.65-1.94,2.08-3.91l-5.48-8.61,2-1.28Z"/><path d="M841.51,1010.48c2.36,4,1.13,8-1.64,9.61-3.09,1.84-6.15.66-8.22-2.8a9.2,9.2,0,0,1-.62-1.22l8.17-4.86c-1.68-2.48-4.23-3.19-6.54-1.81a6.37,6.37,0,0,0-2.45,2.74l-1.52-.92a8.39,8.39,0,0,1,3.25-3.62C835.17,1005.68,839.15,1006.52,841.51,1010.48Zm-7.88,6c1.45,2.44,3.34,3.11,5.23,2,1.69-1,2.42-3.3,1.25-5.84Z"/><path d="M826.45,1027.44l-1.74.94-1-1.33-.08,0a7.29,7.29,0,0,1-3,3.87c-3.19,1.72-6.24.17-8.32-3.68-2.27-4.21-1.08-8,1.75-9.58a6.53,6.53,0,0,1,4.22-.43l-1.22-2.14-2.26-4.18,2.09-1.13Zm-11.93-1.34c1.47,2.73,3.38,4.07,5.73,2.8,1-.57,1.78-1.72,2.41-3.48l-3.51-6.51a5.58,5.58,0,0,0-3.74.34C813.37,1020.36,812.87,1023,814.52,1026.1Z"/><path d="M808.46,1025.23c1.38,2.75-.29,5.3-5.35,8.59.81,1.61,2.11,2.9,4.18,1.86a7.65,7.65,0,0,0,3.08-3.23l1.57,1.06a10.45,10.45,0,0,1-4.13,4.12c-3.08,1.55-5.41.15-7-3l-3.88-7.72,1.76-.88.94,1.41.08,0a7.52,7.52,0,0,1,3.26-3.91A3.84,3.84,0,0,1,808.46,1025.23Zm-7.81,3.7,1.76,3.5c3.94-2.63,4.87-4.39,4.06-6-.72-1.42-2-1.53-3.24-.9S801.32,1027.23,800.65,1028.93Z"/><path d="M795.16,1029.57l-.4,1.95a6.34,6.34,0,0,0-4.47.24c-1.68.79-2.1,2.08-1.58,3.18.62,1.31,2.41,1.17,4,1,2.12-.2,4.52-.27,5.53,1.89s.07,4.39-2.68,5.68a7,7,0,0,1-4.64.42l.38-1.85a5.23,5.23,0,0,0,3.44-.24c1.6-.75,1.93-2,1.47-2.93-.57-1.21-2.17-1-3.87-.87-2.16.18-4.56.38-5.7-2-1-2.07-.13-4.58,2.88-6A8.48,8.48,0,0,1,795.16,1029.57Z"/><path d="M1012.79,294.64l2.91,4.58c2.29,3.6,2.63,6.78-.9,9s-6.49.76-8.73-2.76l-1.68-2.64-6.36,4-1.29-2Zm-5.21,9.54c1.77,2.79,3.66,3.48,5.93,2s2.18-3.38.39-6.2l-1.46-2.3-6.39,4.06Z"/><path d="M1010.39,313.34c4-2.36,8-1.13,9.62,1.63,1.84,3.09.66,6.16-2.8,8.22a9.22,9.22,0,0,1-1.22.62l-4.87-8.17c-2.48,1.68-3.19,4.23-1.81,6.55a6.36,6.36,0,0,0,2.74,2.45l-.92,1.52a8.39,8.39,0,0,1-3.62-3.24C1005.59,319.68,1006.43,315.7,1010.39,313.34Zm6,7.88c2.44-1.46,3.11-3.34,2-5.23-1-1.69-3.3-2.42-5.84-1.25Z"/><path d="M1016.55,327.41l7.81-4.34,1.17,2.1-7.53,4.18c-2.31,1.28-2.92,2.52-2,4.14.7,1.27,1.83,1.8,3.92,2.17l8.74-4.86,1.15,2.08-12.32,6.84-1-1.72,1.83-1.25,0-.08c-2-.39-3.54-1.12-4.48-2.82C1012.38,331.25,1013.4,329.16,1016.55,327.41Z"/><path d="M1023.71,342.18l6.91-3.62-1-1.85,1.59-.83,1.15,1.89,3.63-1.57L1037,338l-3.49,1.83,1.76,3.37-1.72.9-1.76-3.37-6.94,3.63c-1.54.81-2.16,1.75-1.41,3.19a5.13,5.13,0,0,0,1.07,1.24l-1.38,1.24a8.69,8.69,0,0,1-1.67-2.07C1020,345.26,1021.24,343.47,1023.71,342.18Z"/><path d="M1030.56,347.07l3,6-1.63.82-3-6Z"/><path d="M1033.66,355.82c4.28-2,8-.38,9.5,2.74s.34,7.05-3.93,9.07-8,.36-9.44-2.76S1029.44,357.81,1033.66,355.82Zm4.51,9.57c2.94-1.38,4.24-3.79,3.2-6s-3.72-2.73-6.66-1.35-4.17,3.79-3.15,6S1035.26,366.76,1038.17,365.39Z"/><path d="M1047.25,368.26l.78,1.81-1.78,1,0,.08a6.64,6.64,0,0,1,4.06,3.39c1.17,2.71-.05,4.7-3.35,6.13l-8.2,3.55-.94-2.18,7.9-3.42c2.42-1,3.14-2.24,2.4-3.95-.58-1.33-1.66-1.94-3.53-2.68l-9.37,4.06-.95-2.18Z"/><path d="M1045.74,391.52c2.87-1.1,5.25.81,8,6.17,1.68-.65,3.09-1.81,2.26-4a7.67,7.67,0,0,0-2.92-3.38l1.21-1.46a10.46,10.46,0,0,1,3.69,4.51c1.24,3.22-.38,5.4-3.66,6.66l-8.07,3.1-.71-1.84,1.5-.79,0-.08a7.52,7.52,0,0,1-3.57-3.63A3.84,3.84,0,0,1,1045.74,391.52Zm2.91,8.14,3.65-1.4c-2.23-4.18-3.89-5.28-5.57-4.63-1.49.57-1.72,1.84-1.22,3.14S1047,398.83,1048.65,399.66Z"/><path d="M1048.75,405.19l1.9.59a6.34,6.34,0,0,0-.2,4.47c.62,1.75,1.86,2.3,3,1.89,1.37-.48,1.41-2.28,1.44-3.93,0-2.13.18-4.53,2.42-5.32s4.37.36,5.39,3.23a7,7,0,0,1,0,4.66l-1.8-.56a5.24,5.24,0,0,0,.1-3.45c-.59-1.67-1.76-2.11-2.77-1.76-1.26.45-1.21,2.06-1.25,3.77,0,2.17-.07,4.58-2.59,5.47-2.16.76-4.57-.32-5.69-3.46A8.49,8.49,0,0,1,1048.75,405.19Z"/><path d="M1052.75,416.57l1.89.64a6.34,6.34,0,0,0-.31,4.47c.58,1.76,1.8,2.34,3,2,1.38-.45,1.46-2.25,1.54-3.89.07-2.13.29-4.52,2.55-5.26s4.36.47,5.31,3.36a7,7,0,0,1-.16,4.66l-1.79-.61a5.24,5.24,0,0,0,.19-3.45c-.55-1.68-1.71-2.16-2.73-1.82-1.27.41-1.26,2-1.34,3.73-.09,2.16-.18,4.58-2.72,5.4-2.18.71-4.57-.43-5.6-3.6A8.48,8.48,0,0,1,1052.75,416.57Z"/><path d="M1060.31,428.35l8.56-2.54.68,2.31-8.26,2.45c-2.53.75-3.39,1.82-2.86,3.6.41,1.39,1.4,2.16,3.36,3l9.59-2.84.68,2.28-13.51,4-.56-1.89,2.06-.82,0-.08c-1.84-.81-3.21-1.86-3.77-3.72C1055.41,431.19,1056.87,429.37,1060.31,428.35Z"/><path d="M1073.39,441.4l.51,1.91-2.41.86,0,.08c2,.47,3.42,1.57,3.84,3.12a3.49,3.49,0,0,1,.11,1.53l-2.14.09a4,4,0,0,0-.13-1.38c-.31-1.15-1.52-2.3-4.06-2.61l-8.74,2.34-.62-2.3Z"/><path d="M1068.83,451.7c4.48-1.09,7.95,1.26,8.71,4.39.85,3.49-1.18,6.08-5.1,7a9.25,9.25,0,0,1-1.34.24l-2.25-9.24c-2.86.88-4.29,3.1-3.65,5.72a6.37,6.37,0,0,0,1.9,3.15l-1.32,1.19a8.39,8.39,0,0,1-2.51-4.17C1062.37,456.35,1064.34,452.79,1068.83,451.7Zm3.46,9.31c2.76-.67,4-2.27,3.43-4.42-.47-1.92-2.44-3.29-5.21-2.91Z"/><path d="M1079.31,465.28l.42,1.93-2.45.74,0,.08c1.93.56,3.34,1.74,3.68,3.3a3.51,3.51,0,0,1,0,1.53h-2.14a4,4,0,0,0-.06-1.38c-.25-1.16-1.4-2.37-3.93-2.8l-8.84,1.92-.5-2.32Z"/><path d="M1072.17,482.11c3-.54,5,1.78,6.72,7.57,1.77-.32,3.38-1.2,3-3.48a7.67,7.67,0,0,0-2.23-3.87l1.46-1.21a10.47,10.47,0,0,1,2.78,5.13c.61,3.4-1.39,5.23-4.84,5.85l-8.51,1.53-.35-1.94,1.62-.5,0-.09a7.52,7.52,0,0,1-2.82-4.24A3.84,3.84,0,0,1,1072.17,482.11Zm1.33,8.54,3.85-.69c-1.4-4.52-2.83-5.92-4.6-5.6-1.57.28-2,1.48-1.79,2.85S1072.05,489.53,1073.49,490.65Zm16.15-9.68,1.87,1.37-4,4.88-1.39-1Z"/><path d="M1076.44,503.36l7.72-1.1-.29-2.07,1.78-.25.46,2.16,3.94-.27.28,2-3.9.56.54,3.76-1.92.27-.54-3.76-7.75,1.11c-1.72.25-2.62.93-2.39,2.54a5.15,5.15,0,0,0,.6,1.53l-1.71.71a8.69,8.69,0,0,1-.89-2.51C1071.94,505,1073.69,503.76,1076.44,503.36Z"/><path d="M1080.22,510.91c4.69-.55,7.73,2.18,8.14,5.61s-1.91,6.8-6.61,7.35-7.67-2.19-8.08-5.61S1075.59,511.46,1080.22,510.91Zm1.24,10.51c3.23-.38,5.22-2.25,4.94-4.67s-2.67-3.77-5.89-3.39-5.16,2.27-4.88,4.66S1078.27,521.8,1081.47,521.42Z"/><path d="M1080.26,527.58l8.9-.77.21,2.4-8.58.74c-2.63.23-3.69,1.11-3.53,3,.13,1.44.93,2.39,2.7,3.58l10-.86.21,2.37-14,1.22-.17-2,2.18-.39v-.09c-1.64-1.17-2.77-2.47-2.94-4.4C1074.88,529.38,1076.67,527.89,1080.26,527.58Z"/><path d="M1077.9,542.17l1.66,1.09a6.34,6.34,0,0,0-1.43,4.24c.11,1.85,1.15,2.72,2.36,2.65,1.45-.08,2-1.8,2.47-3.37.61-2,1.43-4.3,3.8-4.44s4.1,1.56,4.28,4.6a7,7,0,0,1-1.33,4.46l-1.57-1a5.24,5.24,0,0,0,1.05-3.29c-.1-1.77-1.11-2.52-2.18-2.46-1.33.08-1.73,1.64-2.25,3.27-.63,2.07-1.34,4.38-4,4.54-2.29.13-4.3-1.58-4.5-4.9A8.48,8.48,0,0,1,1077.9,542.17Z"/><path d="M58.69,561.75l.09-2.4,17,.65.32-8.32,2.06.08-.41,10.72Z"/><path d="M71.2,549.69c-4.6-.3-7.2-3.58-7-6.79.23-3.59,2.94-5.44,7-5.18a9.16,9.16,0,0,1,1.35.18l-.62,9.49c3,0,5-1.68,5.2-4.37a6.36,6.36,0,0,0-.87-3.57l1.62-.74A8.39,8.39,0,0,1,79,543.43C78.74,547.19,75.8,550,71.2,549.69Zm-.51-9.91c-2.83-.19-4.45,1-4.6,3.19-.13,2,1.34,3.87,4.1,4.34Z"/><path d="M77.54,536.3,76.06,535a6.34,6.34,0,0,0,2.06-4c.17-1.85-.73-2.86-1.94-3-1.44-.13-2.23,1.48-3,3-.91,1.93-2.06,4-4.43,3.82s-3.82-2.16-3.54-5.19a7,7,0,0,1,2-4.21l1.4,1.26a5.23,5.23,0,0,0-1.54,3.09c-.16,1.76.72,2.66,1.79,2.76,1.33.12,2-1.36,2.71-2.9.94-2,2-4.13,4.64-3.88,2.28.21,4,2.2,3.72,5.53A8.48,8.48,0,0,1,77.54,536.3Z"/><path d="M79.31,518.53l-1.43-1.38a6.34,6.34,0,0,0,2.19-3.9c.24-1.84-.62-2.89-1.83-3-1.44-.18-2.28,1.4-3.05,2.85-1,1.89-2.2,4-4.56,3.66s-3.74-2.29-3.35-5.31a7,7,0,0,1,2.14-4.14l1.35,1.31a5.23,5.23,0,0,0-1.65,3c-.22,1.75.62,2.68,1.69,2.82,1.32.17,2-1.29,2.81-2.8,1-1.92,2.13-4.05,4.77-3.72,2.27.29,3.94,2.35,3.52,5.65A8.48,8.48,0,0,1,79.31,518.53Z"/><path d="M78.35,504.76l-7.72-1.15-.31,2.07-1.78-.27.18-2.2-3.86-.87.29-2,3.9.58.56-3.76,1.92.29L71,501.23l7.75,1.15c1.72.26,2.78-.14,3-1.75a5.12,5.12,0,0,0-.14-1.63l1.85-.19a8.69,8.69,0,0,1,.13,2.66C83.15,504.45,81.11,505.17,78.35,504.76Z"/><path d="M80.2,497.07c-3-.52-4.1-3.38-3.73-9.41-1.77-.31-3.58,0-4,2.26a7.67,7.67,0,0,0,.77,4.4l-1.79.63a10.46,10.46,0,0,1-.86-5.77c.59-3.4,3.09-4.44,6.55-3.84l8.52,1.47-.34,1.94-1.69-.09,0,.09a7.52,7.52,0,0,1,1.21,4.95A3.84,3.84,0,0,1,80.2,497.07Zm1.67-8.48L78,487.92c-.23,4.73.64,6.53,2.41,6.83,1.57.27,2.42-.7,2.65-2.07S82.84,490.14,81.87,488.59Z"/><path d="M72.67,479.82l.38-1.93,2.54.3,0-.08c-1.55-1.28-2.38-2.92-2.07-4.49a3.5,3.5,0,0,1,.58-1.42l2,.86a4,4,0,0,0-.49,1.29c-.23,1.17.35,2.73,2.49,4.13L87,480.22l-.46,2.33Z"/><path d="M84.31,471.46l-7.62-1.67-.45,2-1.76-.38.33-2.18L71,468.14l.43-2,3.85.84.81-3.71,1.9.42-.81,3.71,7.65,1.67c1.7.37,2.78,0,3.13-1.54a5.1,5.1,0,0,0,0-1.64l1.86-.07a8.69,8.69,0,0,1,0,2.66C89.12,471.47,87,472.05,84.31,471.46Z"/><path d="M82.19,463.32l1.53-6.49,1.78.42L84,463.74Z"/><path d="M87.45,454.26,78.81,452l.61-2.33,8.33,2.19c2.55.67,3.85.2,4.32-1.59.37-1.4-.07-2.57-1.33-4.28l-9.68-2.54.6-2.3,13.63,3.58-.5,1.91-2.18-.36,0,.08c1.15,1.65,1.78,3.26,1.29,5.14C93.11,454.37,90.92,455.17,87.45,454.26Z"/><path d="M83,436.29l.56-1.89,1.61.27,0-.08a7.29,7.29,0,0,1-.61-4.87c1-3.48,4.28-4.54,8.48-3.29,4.59,1.36,6.47,4.92,5.55,8A6.53,6.53,0,0,1,96,437.72l2.38.65,4.56,1.35-.68,2.28Zm9.37-7.5c-3-.88-5.27-.48-6,2.08-.34,1.14,0,2.47.76,4.16l7.09,2.1a5.58,5.58,0,0,0,2.4-2.89C97.26,432,95.72,429.78,92.38,428.79Z"/><path d="M99.16,426,98,424.39A6.34,6.34,0,0,0,100.9,421c.58-1.76-.07-3-1.23-3.33-1.38-.45-2.51.95-3.54,2.23-1.31,1.68-2.91,3.47-5.17,2.73s-3.24-3-2.29-5.85a7,7,0,0,1,2.88-3.66l1.08,1.54a5.24,5.24,0,0,0-2.19,2.67c-.55,1.68.11,2.75,1.13,3.08,1.27.42,2.21-.89,3.29-2.22,1.35-1.69,2.85-3.58,5.39-2.75,2.18.71,3.43,3,2.39,6.22A8.48,8.48,0,0,1,99.16,426Z"/><path d="M97.64,405.68c-5.73-2.14-8-6.82-6.29-11.36a6.94,6.94,0,0,1,4-4.07l1,1.77a5.2,5.2,0,0,0-3,3c-1.26,3.37.68,6.63,5.11,8.29s8.11.58,9.37-2.79a5.74,5.74,0,0,0-.47-4.88l1.88-.72a7.37,7.37,0,0,1,.54,6.43C108.12,405.82,103.45,407.85,97.64,405.68Z"/><path d="M95.34,386.36a1.66,1.66,0,0,1,1.23-3.07,1.66,1.66,0,0,1-1.23,3.07Zm4.28,1.24.88-2.21,13.08,5.24-.88,2.21Z"/><path d="M101.57,382.68l1-2.27,8.41.67c1.44.17,2.93.3,4.33.42l0-.11c-1.07-.9-2.2-1.88-3.32-2.8L105.67,373l.92-2.16,11,10.1-1.09,2.56Z"/><path d="M103.58,366.77a1.66,1.66,0,0,1,1.35-3,1.66,1.66,0,0,1-1.35,3Zm4.23,1.42,1-2.17,12.86,5.78-1,2.17Z"/><path d="M116.77,365.49c-4.27-2-5.36-6-3.8-9.31a5.85,5.85,0,0,1,3.26-3l.89,1.77a4.14,4.14,0,0,0-2.33,2c-1.09,2.31.1,4.93,3,6.32s5.63.71,6.74-1.62a5,5,0,0,0,.13-3.6l1.89-.26a6.88,6.88,0,0,1-.32,4.89C124.66,366.05,121,367.49,116.77,365.49Z"/><path d="M118.67,339,116,344.12l-1.8-.94,6.46-12.33,1.8.94-2.66,5.09,15.06,7.89-1.13,2.16Z"/><path d="M131.46,336.15c-4-2.24-5-6.32-3.41-9.13,1.75-3.14,5-3.66,8.51-1.7a9.14,9.14,0,0,1,1.15.74l-4.63,8.31c2.69,1.3,5.25.64,6.57-1.72a6.37,6.37,0,0,0,.75-3.6l1.78,0a8.39,8.39,0,0,1-1,4.76C139.35,337.13,135.49,338.4,131.46,336.15Zm3.79-9.18c-2.48-1.38-4.45-1-5.52.91-1,1.72-.44,4.07,1.85,5.68Z"/><path d="M138.53,323.57c-4.06-2.41-4.77-6.51-2.92-9.62a5.85,5.85,0,0,1,3.52-2.7l.73,1.85a4.13,4.13,0,0,0-2.51,1.78c-1.3,2.19-.35,4.91,2.44,6.57s5.54,1.23,6.86-1a5,5,0,0,0,.47-3.57l1.9-.08a6.88,6.88,0,0,1-.78,4.83C146.33,324.86,142.54,325.95,138.53,323.57Z"/><path d="M134.37,304l1.27-2,4.75,3,2.4,1.63a6.74,6.74,0,0,1,.55-5.21c1.58-2.5,3.91-2.6,7-.68l7.55,4.78-1.27,2-7.28-4.61c-2.23-1.41-3.62-1.33-4.61.24-.78,1.23-.67,2.46-.23,4.42l8.63,5.46-1.27,2Z"/><path d="M158.06,302.27l-.66-1.88a6.34,6.34,0,0,0,3.71-2.5c1-1.54.74-2.86-.27-3.54-1.2-.81-2.67.23-4,1.18-1.72,1.26-3.74,2.55-5.72,1.22s-2.32-3.73-.62-6.25a7,7,0,0,1,3.77-2.74l.62,1.78a5.23,5.23,0,0,0-2.83,2c-1,1.47-.65,2.68.24,3.27,1.11.74,2.37-.26,3.77-1.24,1.76-1.26,3.72-2.67,5.93-1.18,1.9,1.28,2.47,3.86.61,6.63A8.49,8.49,0,0,1,158.06,302.27Z"/></g></g></svg>