<svg xmlns="http://www.w3.org/2000/svg" viewBox="0 0 1153 1153"><defs><style>.cls-1{fill:#2dc991;}.cls-1,.cls-2,.cls-3,.cls-4,.cls-5,.cls-6{stroke:#000;stroke-miterlimit:10;}.cls-1,.cls-2,.cls-3,.cls-4{stroke-width:3px;}.cls-2{fill:#4fbfa9;}.cls-3{fill:#118dd3;}.cls-4{fill:#2fad83;}.cls-5{fill:#dbb36c;stroke-width:3.16px;}.cls-6{fill:#c76e59;stroke-width:3px;}</style></defs><title>Arbre2</title><g id="Calque_2" data-name="Calque 2"><g id="Calque_8" data-name="Calque 8"><path class="cls-1" d="M370.11,294.8l-132.26-182A576.21,576.21,0,0,0,29.4,400.06l214,69.55A350.73,350.73,0,0,1,370.11,294.8Z"/><path class="cls-2" d="M370.11,859.2A350.49,350.49,0,0,1,243.45,468.61l-214-69.55a575.08,575.08,0,0,0,546.1,752.43v-225A348.41,348.41,0,0,1,370.11,859.2Z"/><path class="cls-3" d="M909.36,685A350.16,350.16,0,0,1,576.5,926.5h-1v225h1a572.4,572.4,0,0,0,278-71.57,631,631,0,0,0,59-38.17,624,624,0,0,0,61.8-51.07A577.19,577.19,0,0,0,1079.89,854.6a605.19,605.19,0,0,0,42.56-100.38Z"/><path class="cls-2" d="M1147.67,509.79a628.31,628.31,0,0,0-67.78-211.39A577.19,577.19,0,0,0,975.33,162.31a624,624,0,0,0-61.79-51.07L781.58,292.85A350.48,350.48,0,0,1,909.36,685l213.08,69.24a602.47,602.47,0,0,0,25.22-111,582.54,582.54,0,0,0,0-133.42Z"/><path class="cls-4" d="M854.52,73.07A572.4,572.4,0,0,0,576.5,1.5h-1A572.39,572.39,0,0,0,237.85,111.76l132.26,182a348.41,348.41,0,0,1,205.39-67.3h1a348.41,348.41,0,0,1,205.08,66.35L913.53,111.24A631,631,0,0,0,854.52,73.07Z"/><path d="M146.19,386.26l.76-1.82,2,.6,0-.08a6.64,6.64,0,0,1-.37-5.28c1.14-2.73,3.43-3.22,6.74-1.83l8.24,3.45-.92,2.19-7.94-3.33c-2.43-1-3.79-.71-4.51,1-.56,1.34-.25,2.54.51,4.4l9.42,3.95-.92,2.19Z"/><path d="M160.56,375.29l-8.11-3.74,1-2.19,7.82,3.61c2.4,1.11,3.75.87,4.53-.82.61-1.32.37-2.54-.57-4.45l-9.09-4.19,1-2.16,12.8,5.9-.83,1.79-2.09-.74,0,.08c.85,1.83,1.19,3.52.37,5.28C166.12,376.39,163.83,376.8,160.56,375.29Z"/><path d="M155.18,355.3a1.66,1.66,0,0,1,1.46-3,1.66,1.66,0,0,1-1.46,3Zm4.17,1.57,1-2.13L173,361l-1,2.13Z"/><path d="M173,357.45l-.87-1.79a6.34,6.34,0,0,0,3.4-2.91c.85-1.65.41-2.93-.67-3.49-1.29-.67-2.63.53-3.85,1.63-1.56,1.44-3.43,3-5.54,1.86s-2.72-3.44-1.32-6.14a7,7,0,0,1,3.43-3.15l.82,1.7a5.23,5.23,0,0,0-2.59,2.28c-.81,1.57-.34,2.73.61,3.23,1.18.61,2.33-.52,3.6-1.66,1.6-1.45,3.39-3.08,5.76-1.85,2,1.05,2.89,3.56,1.36,6.52A8.48,8.48,0,0,1,173,357.45Z"/><path d="M174.06,343.66c-4-2.24-5-6.32-3.41-9.13,1.75-3.14,5-3.66,8.51-1.7a9.2,9.2,0,0,1,1.15.74l-4.62,8.31c2.7,1.3,5.26.63,6.57-1.72a6.37,6.37,0,0,0,.74-3.6l1.78,0a8.4,8.4,0,0,1-1,4.76C181.94,344.63,178.08,345.9,174.06,343.66Zm3.78-9.18c-2.48-1.38-4.45-1-5.52.91-1,1.72-.44,4.07,1.85,5.68Z"/><path d="M175.6,326.49l1-1.69,1.84.87,0-.07a6.65,6.65,0,0,1,.4-5.28c1.52-2.54,3.85-2.69,6.93-.84l7.66,4.6-1.23,2-7.38-4.44c-2.26-1.36-3.65-1.25-4.61.34-.75,1.24-.61,2.48-.12,4.43l8.75,5.26-1.22,2Z"/><path d="M192.42,317.65l-6.57-4.21-1.13,1.76-1.51-1,1.07-1.93-3.17-2.37,1.08-1.69,3.32,2.13,2-3.2,1.64,1-2,3.2,6.6,4.22c1.47.94,2.59,1,3.47-.36a5.12,5.12,0,0,0,.54-1.55l1.76.58a8.71,8.71,0,0,1-1,2.48C196.93,319.33,194.77,319.15,192.42,317.65Z"/><path d="M198,304.27c-3.78-2.64-4.32-6.79-2.47-9.43,2.06-2.95,5.33-3.14,8.64-.83a9.22,9.22,0,0,1,1.07.85l-5.44,7.8c2.55,1.57,5.16,1.16,6.71-1.05a6.37,6.37,0,0,0,1.1-3.51l1.77.21a8.39,8.39,0,0,1-1.46,4.64C205.72,306,201.75,306.91,198,304.27Zm4.69-8.75c-2.33-1.63-4.32-1.46-5.58.35-1.13,1.62-.85,4,1.27,5.83Z"/><path d="M210.25,294.12l-14.36-10.53,1.41-1.92,14.5,10.63c.61.45,1,.36,1.24.08a2,2,0,0,0,.26-.46l1.64.81a3.2,3.2,0,0,1-.62,1.24C213.25,295.42,211.91,295.34,210.25,294.12Z"/><path d="M214.63,288.21l-14.18-10.76,1.44-1.89,14.32,10.86c.6.46,1,.38,1.23.1a2,2,0,0,0,.27-.45l1.63.83a3.21,3.21,0,0,1-.64,1.23C217.61,289.56,216.27,289.45,214.63,288.21Z"/><path d="M215.17,280.58c-3.61-2.87-3.88-7.05-1.87-9.57,2.24-2.81,5.52-2.79,8.68-.28a9.22,9.22,0,0,1,1,.92l-5.93,7.44c2.45,1.73,5.08,1.49,6.76-.62a6.36,6.36,0,0,0,1.32-3.43l1.75.32a8.4,8.4,0,0,1-1.76,4.53C222.79,282.83,218.77,283.45,215.17,280.58Zm5.23-8.44c-2.22-1.77-4.22-1.73-5.59,0-1.23,1.54-1.1,3.94.9,5.9Z"/><path d="M228,273.2l-.45-1.94a6.34,6.34,0,0,0,4-2.08c1.2-1.42,1-2.76.11-3.55-1.11-.94-2.68-.06-4.12.74-1.85,1.06-4,2.13-5.82.59s-1.9-4,.07-6.28a7,7,0,0,1,4-2.32l.42,1.84a5.24,5.24,0,0,0-3,1.65c-1.14,1.35-.93,2.59-.12,3.28,1,.86,2.39,0,3.88-.82,1.89-1.06,4-2.25,6-.53,1.75,1.48,2,4.11-.12,6.66A8.49,8.49,0,0,1,228,273.2Z"/><path d="M227.1,244.55l0-2.32,6.33.27.05,1.7Zm11.47,13.23c-2.26-2.08-1.61-5.06,2-9.93-1.32-1.22-3-2-4.57-.26a7.66,7.66,0,0,0-1.74,4.12l-1.84-.44a10.45,10.45,0,0,1,2.4-5.31c2.33-2.54,5-2.06,7.59.32l6.36,5.85-1.33,1.45-1.37-1-.06.06a7.52,7.52,0,0,1-1.66,4.81A3.83,3.83,0,0,1,238.57,257.77Zm6-6.22-2.88-2.65c-2.75,3.85-3,5.83-1.67,7s2.41.72,3.35-.31S244.54,253.38,244.57,251.55Z"/><path d="M253.72,242.89l-12.66-12.53,1.67-1.69,12.78,12.65c.54.53,1,.51,1.21.26a2,2,0,0,0,.33-.41l1.5,1a3.2,3.2,0,0,1-.79,1.13C256.5,244.61,255.18,244.33,253.72,242.89Z"/><path d="M257.71,237.69c-2.13-2.21-1.3-5.15,2.57-9.79-1.25-1.3-2.87-2.15-4.54-.54a7.66,7.66,0,0,0-2,4l-1.82-.55a10.47,10.47,0,0,1,2.72-5.16c2.49-2.39,5.12-1.75,7.55.78l6,6.23L266.78,234,265.47,233l-.06.06a7.51,7.51,0,0,1-2,4.7A3.84,3.84,0,0,1,257.71,237.69Zm6.37-5.85L261.36,229c-3,3.68-3.35,5.64-2.1,6.93s2.36.87,3.37-.1S263.94,233.66,264.08,231.84Z"/><path d="M500.53,1003.85c4,1.28,6.1,5.38,5.15,10.9-1,6-5,9.06-9.67,8.25s-7.4-5-6.37-11c.93-5.4,4.22-8.54,8.31-8.54a5,5,0,0,0-4.17-3.28,7.28,7.28,0,0,0-2-.08l-.14-1.91a7.93,7.93,0,0,1,2.76,0A7.28,7.28,0,0,1,500.53,1003.85Zm-8.4,8.56c-.81,4.66.9,7.93,4.24,8.5s6-1.93,6.85-6.59-.85-8.21-4.19-8.79S493,1007.6,492.13,1012.41Z"/><path d="M486.82,1006.87,485,1015.6l-2.35-.5,1.79-8.42c.55-2.58,0-3.85-1.8-4.24-1.42-.3-2.56.2-4.21,1.53l-2.08,9.79-2.33-.5,2.94-13.79,1.93.41-.26,2.2.08,0c1.6-1.23,3.17-1.93,5.07-1.53C486.67,1001.2,487.57,1003.35,486.82,1006.87Z"/><path d="M468.51,1016.52a1.66,1.66,0,0,1-3.21-.77,1.66,1.66,0,0,1,3.21.77Zm.61-4.42-2.31-.55,3.29-13.7,2.31.55Z"/><path d="M459.12,1002.35c-1.24,4.41-4.8,6.36-7.9,5.49a5.81,5.81,0,0,1-3.36-2.63l-.54,2.35-1.47,5.22-2.32-.65,5.58-19.88,1.9.53-.25,1.65.08,0a6.36,6.36,0,0,1,4.65-.77C458.9,994.64,460.39,997.83,459.12,1002.35Zm-8.65-6-2,7.09a4.9,4.9,0,0,0,2.89,2.35c2.18.61,4.5-1,5.37-4.1s.09-5.58-2.28-6.24A4.77,4.77,0,0,0,450.46,996.37Z"/><path d="M443.58,997.94c-1.44,4.5-5.19,6.14-8.48,5.09s-5.4-4.55-4-9.06,5.17-6.08,8.46-5S445,993.49,443.58,997.94Zm-10.09-3.22c-1,3.09-.11,5.69,2.21,6.43s4.54-.87,5.53-4,.06-5.64-2.23-6.37S434.47,991.65,433.49,994.72Z"/><path d="M424.22,1003.72a1.66,1.66,0,0,1-3.12-1.09,1.66,1.66,0,0,1,3.12,1.09Zm1-4.33-2.25-.78,4.63-13.31,2.25.78Z"/><path d="M421.39,987.69l-2.7,7.32,2,.72-.62,1.69-2.12-.63-1.64,3.6-1.88-.69,1.36-3.7-3.56-1.31.67-1.82,3.56,1.31,2.71-7.35c.6-1.63.42-2.75-1.1-3.31a5.1,5.1,0,0,0-1.63-.2l.19-1.85a8.68,8.68,0,0,1,2.63.41C422.06,982.93,422.35,985.08,421.39,987.69Z"/><path d="M407.76,980.86l-6.69,16.5-2.2-.89,6.75-16.66c.28-.7.1-1.09-.23-1.22a2,2,0,0,0-.51-.14l.38-1.79a3.21,3.21,0,0,1,1.35.3C408.28,977.63,408.53,979,407.76,980.86Z"/><path d="M400.26,982.34c-1.83,4.23-5.8,5.58-8.75,4.3-3.3-1.43-4.14-4.61-2.53-8.31a9.26,9.26,0,0,1,.62-1.22l8.73,3.78c1-2.81.11-5.29-2.36-6.37a6.36,6.36,0,0,0-3.66-.38l-.15-1.77a8.4,8.4,0,0,1,4.83.51C400.45,974.39,402.09,978.11,400.26,982.34Zm-9.51-2.86c-1.13,2.61-.57,4.53,1.45,5.4,1.81.78,4.09,0,5.47-2.4Z"/><path d="M389.79,971.84l-1.75.94a6.34,6.34,0,0,0-3-3.28c-1.68-.79-2.94-.29-3.46.81-.62,1.31.64,2.61,1.78,3.78,1.5,1.51,3.09,3.31,2.08,5.46s-3.33,2.86-6.08,1.57a7,7,0,0,1-3.29-3.3l1.66-.88a5.23,5.23,0,0,0,2.39,2.5c1.6.75,2.74.23,3.2-.74.57-1.21-.62-2.31-1.8-3.54-1.52-1.54-3.21-3.27-2.08-5.68,1-2.08,3.44-3,6.46-1.62A8.48,8.48,0,0,1,389.79,971.84Z"/><path d="M366.44,974.55l-1.74-.93.78-1.89-.08,0a6.19,6.19,0,0,1-5,0,3.7,3.7,0,0,1-2.16-4.21c-2.06.71-3.85,1-5.36.19-2.56-1.37-2.88-3.71-1.19-6.88l4.21-7.88,2.1,1.12-4.06,7.6c-1.24,2.33-1,3.72.52,4.55,1,.52,2.31.41,4.15-.25l4.81-9,2.1,1.12-4.06,7.6c-1.24,2.33-1,3.72.55,4.57.92.49,2.31.41,4.15-.25l4.81-9,2.1,1.12Z"/><path d="M349.49,957.28c-2.34,4-6.45,4.82-9.22,3.18-3.1-1.83-3.53-5.08-1.49-8.55a9.2,9.2,0,0,1,.77-1.13l8.19,4.83c1.37-2.66.77-5.24-1.56-6.61a6.37,6.37,0,0,0-3.58-.83l.07-1.78a8.39,8.39,0,0,1,4.73,1.11C350.66,949.42,351.83,953.31,349.49,957.28Zm-9.08-4c-1.44,2.45-1.13,4.42.77,5.54,1.7,1,4.06.54,5.72-1.71Z"/><path d="M337.53,947l-4.14,6.61,1.77,1.11-1,1.52-1.95-1-2.34,3.19-1.7-1.06,2.09-3.34-3.22-2,1-1.65,3.22,2,4.16-6.64c.92-1.48,1-2.6-.4-3.47a5.12,5.12,0,0,0-1.55-.53l.56-1.77a8.7,8.7,0,0,1,2.49.94C339.16,942.49,339,944.65,337.53,947Z"/><path d="M329.73,942.07l-4.27,6.53,1.75,1.14-1,1.5-1.92-1.08-2.4,3.14-1.67-1.1,2.16-3.3-3.18-2.08,1.06-1.63,3.18,2.08,4.29-6.55c1-1.46,1-2.58-.33-3.47a5.1,5.1,0,0,0-1.54-.56l.6-1.76a8.68,8.68,0,0,1,2.47,1C331.46,937.58,331.26,939.74,329.73,942.07Z"/><path d="M316.4,944.92l-1.63-1.12,1.28-2.22-.07,0c-1.79.92-3.62,1-4.94.13a3.5,3.5,0,0,1-1.08-1.09l1.56-1.46a3.91,3.91,0,0,0,1,1c1,.67,2.64.76,4.78-.66l5.12-7.46,2,1.35Z"/><path d="M313.16,934.11c-2.71,3.73-6.87,4.19-9.48,2.3-2.91-2.11-3-5.39-.67-8.65a9.21,9.21,0,0,1,.87-1.05l7.7,5.58c1.61-2.52,1.26-5.14-.92-6.72a6.37,6.37,0,0,0-3.49-1.17l.24-1.76a8.4,8.4,0,0,1,4.61,1.55C315.07,926.39,315.87,930.38,313.16,934.11Zm-8.66-4.85c-1.67,2.3-1.54,4.29.24,5.59,1.6,1.16,4,.92,5.86-1.16Z"/><path d="M296.86,922.05c-2.87,3.61-7,3.88-9.57,1.88-2.82-2.24-2.8-5.52-.29-8.68a9.17,9.17,0,0,1,.92-1l7.45,5.92c1.72-2.45,1.48-5.08-.63-6.76a6.37,6.37,0,0,0-3.43-1.32l.32-1.75a8.39,8.39,0,0,1,4.54,1.75C299.1,914.43,299.73,918.44,296.86,922.05Zm-8.44-5.23c-1.77,2.22-1.73,4.22,0,5.59,1.54,1.23,3.94,1.1,5.9-.9Z"/><path d="M280.19,917.75l-1.5-1.28,1.16-1.68-.07-.06a6.65,6.65,0,0,1-5.14-1.25c-2.25-1.92-2-4.24.3-7l5.79-6.8,1.81,1.54L277,907.8c-1.71,2-1.82,3.4-.41,4.6,1.11.94,2.34,1,4.35.84l6.61-7.78,1.81,1.54Z"/><path d="M263.5,903.21l-1.44-1.35,1-1.32-.06-.06a7.29,7.29,0,0,1-4.63-1.63c-2.65-2.48-2.14-5.86.85-9.05,3.27-3.49,7.29-3.58,9.64-1.38a6.54,6.54,0,0,1,1.75,3.86l1.64-1.84,3.25-3.47,1.74,1.63ZM261,891.48c-2.12,2.26-2.79,4.5-.84,6.33.87.81,2.19,1.14,4.06,1.18l5.05-5.4a5.58,5.58,0,0,0-1.51-3.44C266.06,888.56,263.36,888.94,261,891.48Z"/><path d="M259.56,883.95l-12.5,12.69L245.37,895,258,882.15c.53-.54.5-1,.26-1.21a2,2,0,0,0-.41-.33l1-1.5a3.21,3.21,0,0,1,1.13.79C261.28,881.17,261,882.48,259.56,883.95Z"/><path d="M254.36,880c-2.21,2.14-5.15,1.31-9.8-2.54-1.29,1.25-2.14,2.88-.53,4.54a7.66,7.66,0,0,0,4,2l-.54,1.82a10.46,10.46,0,0,1-5.16-2.71c-2.4-2.48-1.76-5.11.76-7.55l6.21-6,1.37,1.42-1.07,1.31.06.06a7.52,7.52,0,0,1,4.7,1.95A3.83,3.83,0,0,1,254.36,880Zm-5.86-6.35-2.81,2.72c3.68,3,5.65,3.33,6.94,2.08s.86-2.36-.11-3.36S250.33,873.76,248.5,873.62Z"/><path d="M241.9,871.85c-3.5,3.18-7.62,2.66-10.06,0a5.85,5.85,0,0,1-1.55-4.16l2-.15a4.13,4.13,0,0,0,1,2.92c1.72,1.89,4.6,1.78,7-.41s2.8-4.94,1.06-6.85a5,5,0,0,0-3.28-1.49l.48-1.85A6.88,6.88,0,0,1,242.9,862C245.42,864.77,245.35,868.71,241.9,871.85Z"/><path d="M233.38,862.44c-3.5,3-7.65,2.48-9.75,0-2.34-2.73-1.71-6,1.35-8.58a9.21,9.21,0,0,1,1.09-.82l6.2,7.22c2.15-2.08,2.42-4.71.66-6.76a6.37,6.37,0,0,0-3.12-1.94l.64-1.66a8.39,8.39,0,0,1,4.12,2.58C237,855.38,236.87,859.44,233.38,862.44Zm-7.3-6.73c-2.16,1.85-2.49,3.82-1.05,5.49,1.28,1.5,3.67,1.82,6,.23Z"/><path d="M220.31,846.94c-3.63,2.85-7.75,2.14-9.74-.39-2.22-2.83-1.44-6,1.73-8.51a9.17,9.17,0,0,1,1.13-.77l5.87,7.48c2.24-2,2.62-4.6,1-6.72a6.36,6.36,0,0,0-3-2.08l.71-1.63a8.39,8.39,0,0,1,4,2.75C224.26,840,223.94,844.09,220.31,846.94Zm-7-7c-2.24,1.75-2.66,3.71-1.3,5.44,1.22,1.55,3.58,2,6,.49Z"/><path d="M212.91,833l-6.26,4.66,1.25,1.67-1.44,1.07L205,838.73l-3.34,2.12-1.19-1.61,3.17-2.35-2.27-3,1.56-1.16,2.27,3,6.28-4.67c1.4-1,1.86-2.07.89-3.37a5.13,5.13,0,0,0-1.25-1.05l1.17-1.45a8.7,8.7,0,0,1,2,1.78C216.07,829.39,215.14,831.35,212.91,833Z"/><path d="M207.15,820.46l-2-.08a6.34,6.34,0,0,0-1-4.37c-1.05-1.53-2.39-1.74-3.39-1-1.19.82-.77,2.57-.37,4.16.54,2.06,1,4.42-1,5.77s-4.32.79-6-1.72a7,7,0,0,1-1.17-4.51l1.88.08a5.23,5.23,0,0,0,.8,3.36c1,1.46,2.25,1.58,3.14,1,1.1-.76.63-2.3.23-4-.53-2.1-1.12-4.44,1.08-6,1.89-1.3,4.5-.88,6.39,1.87A8.48,8.48,0,0,1,207.15,820.46Z"/><path d="M195.48,813c-3.87,2.5-7.92,1.42-9.67-1.29-2-3-.88-6.13,2.5-8.31a9.18,9.18,0,0,1,1.19-.67l5.16,8c2.42-1.77,3-4.34,1.57-6.61a6.38,6.38,0,0,0-2.83-2.35l.86-1.56a8.4,8.4,0,0,1,3.74,3.11C200.05,806.53,199.36,810.53,195.48,813Zm-6.32-7.66c-2.39,1.54-3,3.45-1.79,5.3,1.07,1.66,3.39,2.3,5.88,1Z"/><path d="M190.72,797.77l-15.19,9.29-1.24-2,15.34-9.38c.64-.39.72-.82.54-1.11a2,2,0,0,0-.32-.42l1.37-1.21a3.2,3.2,0,0,1,.91,1C193.06,795.49,192.48,796.7,190.72,797.77Z"/><path d="M183.81,794.51c-4.09,2.37-8,1.05-9.69-1.93s-.93-7,3.16-9.36,7.91-1,9.64,2S187.85,792.17,183.81,794.51Zm-5.3-9.16c-2.81,1.63-3.91,4.13-2.69,6.24s3.94,2.41,6.75.79,3.84-4.13,2.64-6.21S181.29,783.74,178.51,785.35Z"/><path d="M169.19,783.2l-.93-1.74,1.7-1.13,0-.08a6.64,6.64,0,0,1-4.32-3.06c-1.39-2.61-.33-4.69,2.85-6.38l7.89-4.2,1.12,2.1-7.6,4c-2.33,1.24-2.95,2.49-2.08,4.13.68,1.28,1.81,1.8,3.73,2.38l9-4.8,1.12,2.1Z"/><path d="M168.81,749.08l-2.36,1a6.25,6.25,0,0,1,3.59,3c1.51,3.2.08,6.41-4.17,8.42s-8,.55-9.33-2.36a5.74,5.74,0,0,1-.2-4.37l0-.05L155,755l-.82-1.73,18.13-8.56,1,2.18ZM164.72,751l-6.66,3.15a4.91,4.91,0,0,0,.12,3.73c1,2,3.7,2.74,6.61,1.37s4.27-3.59,3.22-5.82A4.77,4.77,0,0,0,164.72,751Z"/><path d="M160.4,745.35l-8.21,3.53-1-2.21,7.91-3.4c2.42-1,3.15-2.21,2.42-3.91-.57-1.33-1.64-2-3.69-2.55l-9.19,4-.94-2.18L160.71,733l.78,1.81-1.94,1.06,0,.08c1.93.59,3.41,1.47,4.18,3.25C164.94,741.95,163.71,743.93,160.4,745.35Z"/><path d="M152.83,732.28c-4.29,1.68-8-.19-9.22-3.18-1.31-3.35.36-6.18,4.11-7.65A9.15,9.15,0,0,1,149,721l3.46,8.86c2.72-1.25,3.84-3.65,2.85-6.16a6.37,6.37,0,0,0-2.3-2.87l1.15-1.35a8.39,8.39,0,0,1,3,3.79C158.6,726.81,157.12,730.6,152.83,732.28Zm-4.67-8.76c-2.65,1-3.61,2.78-2.81,4.83.72,1.84,2.86,2.93,5.56,2.19Z"/><path d="M151.21,716.39l-16.7,6.17-.82-2.23,16.87-6.22c.71-.26.87-.66.75-1a2,2,0,0,0-.24-.47l1.58-.92a3.2,3.2,0,0,1,.69,1.2C154,714.6,153.14,715.67,151.21,716.39Z"/><path d="M147.49,701.48l0,.08,1.44-.25.58,1.82-19.66,6.29-.72-2.26,5.36-1.71,2.45-.72a7,7,0,0,1-3.22-3.6c-1.11-3.48,1-6.19,5.12-7.51,4.58-1.47,8.14.41,9.12,3.48A6.32,6.32,0,0,1,147.49,701.48ZM139.63,696c-3,.95-4.63,2.58-3.81,5.12a5.81,5.81,0,0,0,3,3l7-2.25a5.52,5.52,0,0,0,.36-3.74C145.48,695.88,142.95,694.9,139.63,696Z"/><path d="M139.87,689.6l-8.6,2.42-.65-2.32,8.29-2.33c2.54-.72,3.42-1.78,2.91-3.56-.39-1.4-1.37-2.18-3.32-3l-9.63,2.71-.64-2.29,13.56-3.82.53,1.9-2.07.79,0,.08c1.83.84,3.19,1.9,3.71,3.77C144.81,686.82,143.33,688.62,139.87,689.6Z"/><path d="M139.48,674.84l-1.83-.77a6.34,6.34,0,0,0,.63-4.43c-.45-1.8-1.63-2.46-2.81-2.17-1.41.35-1.62,2.13-1.81,3.77-.22,2.12-.62,4.49-2.93,5.06s-4.32-.78-5.05-3.73a7,7,0,0,1,.49-4.63l1.74.73a5.24,5.24,0,0,0-.43,3.42c.43,1.72,1.55,2.27,2.59,2,1.29-.32,1.4-1.93,1.61-3.62.24-2.15.51-4.55,3.1-5.19,2.22-.55,4.52.76,5.32,4A8.48,8.48,0,0,1,139.48,674.84Z"/><path d="M119.84,665.75a1.66,1.66,0,0,1-.73-3.23,1.66,1.66,0,0,1,.73,3.23Zm4.23-1.4-.52-2.32,13.75-3.11.52,2.32Z"/><path d="M122.45,657.14l-.39-1.93,2-.6,0-.09a6.64,6.64,0,0,1-3.25-4.17c-.58-2.9,1-4.58,4.57-5.28l8.76-1.74.46,2.33-8.45,1.68c-2.59.52-3.54,1.53-3.18,3.35.28,1.42,1.21,2.24,2.89,3.36l10-2,.46,2.33Z"/><path d="M126.54,641.15c-4.55.75-7.83-1.85-8.35-5-.58-3.55,1.63-6,5.61-6.62a9.19,9.19,0,0,1,1.36-.14l1.55,9.38c2.92-.66,4.51-2.77,4.07-5.43a6.37,6.37,0,0,0-1.66-3.28l1.41-1.08a8.39,8.39,0,0,1,2.19,4.34C133.32,637,131.09,640.4,126.54,641.15Zm-2.75-9.54c-2.8.46-4.11,2-3.75,4.15.32,1.95,2.19,3.46,5,3.29Z"/><path d="M129.69,626.69l-1.74-1a6.33,6.33,0,0,0,1.11-4.33c-.25-1.84-1.35-2.63-2.56-2.46-1.44.19-1.84,1.95-2.21,3.55-.45,2.08-1.1,4.39-3.46,4.71s-4.21-1.25-4.61-4.26a7,7,0,0,1,1-4.55l1.65.92a5.23,5.23,0,0,0-.81,3.36c.24,1.75,1.29,2.43,2.36,2.29,1.32-.18,1.6-1.77,2-3.43.48-2.11,1-4.46,3.65-4.82,2.27-.31,4.41,1.25,4.86,4.55A8.48,8.48,0,0,1,129.69,626.69Z"/><path d="M128.1,614.72l-1.71-1a6.34,6.34,0,0,0,1.23-4.3c-.2-1.85-1.28-2.66-2.49-2.53-1.44.16-1.9,1.9-2.31,3.49-.51,2.07-1.22,4.36-3.59,4.62s-4.17-1.36-4.5-4.39a7,7,0,0,1,1.12-4.53l1.62,1a5.24,5.24,0,0,0-.89,3.34c.19,1.76,1.23,2.46,2.3,2.35,1.33-.14,1.65-1.72,2.09-3.38.53-2.1,1.13-4.44,3.78-4.73,2.28-.25,4.38,1.37,4.74,4.68A8.48,8.48,0,0,1,128.1,614.72Z"/><path d="M113.65,596.15l-.11-2,2-.32v-.09a6.2,6.2,0,0,1-2.62-4.24,3.7,3.7,0,0,1,2.48-4c-1.67-1.39-2.85-2.78-2.95-4.48-.16-2.9,1.67-4.39,5.27-4.59l8.92-.49.13,2.38-8.6.48c-2.64.15-3.72,1-3.62,2.81.06,1.1.85,2.19,2.37,3.41l10.19-.56.13,2.38-8.6.48c-2.64.15-3.72,1-3.62,2.84.06,1,.85,2.19,2.37,3.41L127.6,593l.13,2.38Z"/><path d="M119.6,572.7c-4.73.06-7.46-3-7.5-6.43s2.62-6.56,7.34-6.61,7.4,3,7.44,6.43S124.27,572.64,119.6,572.7Zm-.13-10.58c-3.25,0-5.43,1.69-5.4,4.13s2.25,4,5.5,4,5.37-1.72,5.34-4.12S122.69,562.08,119.47,562.11Z"/><path d="M119.45,556.88c-4.58-.1-7.36-3.06-7.29-6.28a5.81,5.81,0,0,1,1.71-3.91l-2.41.06-5.42-.12.05-2.41,20.64.46,0,2-1.66.17v.09a6.36,6.36,0,0,1,1.91,4.31C126.86,554.75,124.15,557,119.45,556.88Zm3.64-9.87-7.36-.16a4.9,4.9,0,0,0-1.55,3.39c0,2.26,2.08,4.11,5.3,4.18s5.42-1.3,5.48-3.77A4.77,4.77,0,0,0,123.09,547Z"/><path d="M119.86,540.75c-4.6-.25-7.24-3.51-7.06-6.72.2-3.59,2.89-5.48,6.91-5.25a9.22,9.22,0,0,1,1.36.16l-.53,9.5c3,0,5-1.73,5.15-4.42a6.37,6.37,0,0,0-.91-3.57l1.61-.75a8.39,8.39,0,0,1,1.19,4.71C127.38,538.17,124.47,541,119.86,540.75Zm-.61-9.91c-2.84-.16-4.44,1-4.57,3.23-.11,2,1.38,3.85,4.15,4.3Z"/><path d="M125,525.61l-17.75-1.41.19-2.37,17.93,1.42c.75.06,1.07-.24,1.09-.58a2,2,0,0,0,0-.53l1.82-.18a3.2,3.2,0,0,1,.12,1.38C128.22,525.14,127,525.77,125,525.61Z"/><path d="M114.79,505a2.64,2.64,0,0,0-3.11,2.48,4.42,4.42,0,0,0,1.29,3.5l-1.39,1.21a6.52,6.52,0,0,1-1.83-5.23c.33-2.91,2.31-4.61,5.16-4.29,3.77.43,4.77,5.24,8.86,5.24l-.24,2.07C119,510.08,117.84,505.31,114.79,505Zm12.94,6.08a1.73,1.73,0,0,1-1.65-1.91,1.83,1.83,0,0,1,3.63.41A1.72,1.72,0,0,1,127.72,511.05Z"/><path d="M998.46,742.86c5.58,2.51,7.51,7.33,5.52,11.75a6.94,6.94,0,0,1-4.29,3.79l-.89-1.83a5.21,5.21,0,0,0,3.24-2.8c1.48-3.28-.24-6.66-4.55-8.61s-8.05-1.12-9.53,2.16a5.74,5.74,0,0,0,.15,4.9l-1.92.6a7.36,7.36,0,0,1-.12-6.45C988,742,992.8,740.31,998.46,742.86Z"/><path d="M989.37,756.82c4.24,2.09,5.29,6,3.77,9.14s-5.31,4.66-9.55,2.56-5.24-6-3.71-9.11S985.18,754.75,989.37,756.82Zm-4.69,9.49c2.91,1.44,5.61,1,6.69-1.22s-.18-4.62-3.09-6.06-5.57-.91-6.63,1.25S981.79,764.88,984.68,766.31Z"/><path d="M988.09,775.34l-1,1.73-1.88-.8,0,.08a6.19,6.19,0,0,1,0,5,3.7,3.7,0,0,1-4.24,2.11c.68,2.06,1,3.87.13,5.36-1.4,2.54-3.75,2.84-6.9,1.1l-7.83-4.3,1.15-2.08,7.55,4.15c2.31,1.27,3.71,1.08,4.56-.47.53-1,.44-2.31-.2-4.15l-8.94-4.92,1.15-2.08,7.55,4.15c2.31,1.27,3.71,1.08,4.57-.5.5-.92.44-2.31-.2-4.15l-8.94-4.92,1.15-2.08Z"/><path d="M976.15,796.76l-1,1.68-1.83-.9,0,.07a6.19,6.19,0,0,1-.29,5,3.7,3.7,0,0,1-4.34,1.88c.58,2.1.75,3.91-.15,5.37-1.53,2.46-3.89,2.64-6.95.74l-7.59-4.71,1.25-2,7.32,4.54c2.24,1.39,3.65,1.27,4.58-.23.58-.94.56-2.28,0-4.15l-8.67-5.38,1.25-2,7.32,4.54c2.24,1.39,3.65,1.27,4.59-.25.55-.89.56-2.28,0-4.15l-8.67-5.38,1.25-2Z"/><path d="M957.82,812.58c3.81,2.6,4.39,6.75,2.58,9.41-2,3-5.3,3.2-8.63.93a9.28,9.28,0,0,1-1.08-.84l5.36-7.86c-2.57-1.54-5.18-1.11-6.7,1.12a6.37,6.37,0,0,0-1.06,3.52l-1.77-.19a8.39,8.39,0,0,1,1.41-4.65C950,810.9,954,810,957.82,812.58Zm-4.59,8.8c2.35,1.6,4.34,1.41,5.58-.41,1.11-1.63.8-4-1.33-5.82Z"/><path d="M954.77,829.5l-1.16,1.59-1.76-1-.05.07a6.65,6.65,0,0,1-.87,5.22c-1.75,2.39-4.08,2.34-7,.22l-7.21-5.27,1.4-1.92,7,5.08c2.13,1.56,3.52,1.57,4.62.07.86-1.17.83-2.41.52-4.4l-8.25-6,1.4-1.92Z"/><path d="M937.21,836.81l6.17,4.78,1.28-1.65,1.42,1.1-1.23,1.83,2.94,2.64-1.23,1.58-3.12-2.42-2.33,3-1.54-1.19,2.33-3-6.19-4.79c-1.38-1.07-2.49-1.23-3.49,0a5.14,5.14,0,0,0-.68,1.49l-1.71-.73a8.69,8.69,0,0,1,1.19-2.38C932.87,834.74,935,835.11,937.21,836.81Z"/><path d="M935.23,855,934,856.52l-1.68-1.15-.06.07a6.64,6.64,0,0,1-1.22,5.15c-1.91,2.26-4.23,2.05-7-.26l-6.83-5.75,1.53-1.82,6.59,5.55c2,1.7,3.41,1.81,4.6.39.93-1.11,1-2.35.82-4.35l-7.81-6.57,1.53-1.82Z"/><path d="M920.2,861.79c3.43,3.08,3.44,7.27,1.29,9.67-2.41,2.67-5.68,2.46-8.68-.24a9.24,9.24,0,0,1-1-1l6.36-7.07c-2.34-1.87-5-1.79-6.79.21a6.37,6.37,0,0,0-1.53,3.35l-1.73-.42a8.4,8.4,0,0,1,2-4.42C912.73,859.08,916.77,858.7,920.2,861.79Zm-5.73,8.11c2.11,1.9,4.11,2,5.58.34,1.32-1.47,1.34-3.87-.54-5.95Z"/><path d="M910.79,882.47l-1.39,1.4-1.3-1-.06.06a7.3,7.3,0,0,1-1.75,4.58c-2.55,2.58-5.91,2-9-1.09-3.41-3.36-3.39-7.38-1.13-9.67a6.54,6.54,0,0,1,3.91-1.65l-1.8-1.69-3.39-3.34,1.67-1.69ZM899,884.68c2.21,2.18,4.43,2.9,6.3,1,.83-.85,1.2-2.16,1.29-4l-5.26-5.19a5.57,5.57,0,0,0-3.48,1.42C896.21,879.54,896.52,882.24,899,884.68Z"/><path d="M892.93,885.63c2.12,2.23,1.26,5.16-2.64,9.78,1.24,1.3,2.86,2.17,4.54.57a7.66,7.66,0,0,0,2-4l1.81.56a10.46,10.46,0,0,1-2.76,5.14c-2.5,2.38-5.13,1.71-7.55-.84l-5.95-6.27,1.43-1.36,1.31,1.08.06-.06a7.52,7.52,0,0,1,2-4.69A3.84,3.84,0,0,1,892.93,885.63Zm-6.41,5.8,2.69,2.84c3-3.65,3.39-5.61,2.15-6.92s-2.36-.88-3.37.08S886.67,889.61,886.52,891.43Z"/><path d="M881.46,893.61l.18,2a6.34,6.34,0,0,0-4.21,1.51c-1.38,1.24-1.42,2.59-.6,3.5,1,1.08,2.64.43,4.18-.16,2-.79,4.25-1.55,5.84.22s1.33,4.18-.94,6.21a7,7,0,0,1-4.33,1.73l-.16-1.88a5.24,5.24,0,0,0,3.23-1.22c1.32-1.18,1.29-2.43.57-3.23-.89-1-2.36-.34-4,.27-2,.79-4.26,1.67-6-.31-1.53-1.71-1.44-4.35,1-6.57A8.48,8.48,0,0,1,881.46,893.61Z"/><path d="M867.67,907.34,879.09,921l-1.83,1.53-11.53-13.8c-.48-.58-.92-.6-1.18-.37a2,2,0,0,0-.36.38l-1.4-1.18a3.19,3.19,0,0,1,.9-1.05C865.07,905.36,866.35,905.76,867.67,907.34Z"/><path d="M865.42,914.67c2.87,3.61,2.19,7.74-.33,9.74-2.81,2.24-6,1.48-8.52-1.67a9.38,9.38,0,0,1-.78-1.12l7.44-5.92c-2-2.23-4.62-2.59-6.73-.91a6.37,6.37,0,0,0-2.06,3l-1.63-.7a8.38,8.38,0,0,1,2.73-4C858.5,910.77,862.55,911.06,865.42,914.67Zm-7,7c1.77,2.22,3.72,2.63,5.45,1.26,1.54-1.23,2-3.59.45-6Z"/><path d="M851.24,919v2a6.34,6.34,0,0,0-4.33,1.14c-1.49,1.11-1.64,2.46-.91,3.43.87,1.16,2.6.66,4.18.2,2-.62,4.37-1.18,5.8.73s1,4.28-1.48,6.11a7,7,0,0,1-4.46,1.35V932a5.23,5.23,0,0,0,3.32-.93c1.42-1.06,1.49-2.31.85-3.17-.8-1.07-2.33-.54-4-.07-2.08.61-4.39,1.3-6-.84-1.37-1.83-1.06-4.46,1.61-6.46A8.48,8.48,0,0,1,851.24,919Z"/><path d="M842.66,940.76,841,941.87l-1.61-2-.07,0c.21,2-.35,3.75-1.66,4.65a3.5,3.5,0,0,1-1.41.61l-.8-2a3.94,3.94,0,0,0,1.26-.58c1-.67,1.66-2.19,1.11-4.7l-5.11-7.46,2-1.34Z"/><path d="M831.46,939.88c2.53,3.86,1.47,7.91-1.22,9.67-3,2-6.12.92-8.33-2.45a9.29,9.29,0,0,1-.67-1.19l8-5.21c-1.78-2.4-4.36-3-6.61-1.53a6.37,6.37,0,0,0-2.33,2.84l-1.56-.85a8.4,8.4,0,0,1,3.09-3.75C824.93,935.36,828.94,936,831.46,939.88Zm-7.61,6.37c1.56,2.38,3.47,3,5.31,1.76,1.65-1.08,2.28-3.4,1-5.89Zm9.59,5.23-.77,6.29-2.28-.41,1.38-6.21Z"/><path d="M819.31,947.8c2.38,3.92,1.38,7.85-1.37,9.52a5.81,5.81,0,0,1-4.21.66l1.35,2,2.82,4.63-2.06,1.25-10.72-17.64,1.68-1,1,1.31.07,0a6.36,6.36,0,0,1,2.6-3.92C813.53,942.7,816.88,943.79,819.31,947.8ZM809,950l3.83,6.29a4.9,4.9,0,0,0,3.69-.51c1.93-1.17,2.34-4,.67-6.72s-4-3.87-6.12-2.59A4.77,4.77,0,0,0,809,950Z"/><path d="M803.88,954.92l4.37,7.79-2.1,1.18-4.21-7.51c-1.29-2.3-2.53-2.9-4.15-2-1.26.71-1.79,1.84-2.15,3.93l4.9,8.72-2.07,1.16-6.9-12.29,1.72-1,1.26,1.82.08,0c.39-2,1.1-3.54,2.8-4.5C800,950.77,802.12,951.79,803.88,954.92Z"/><path d="M794.05,970.54l-2.1,1.11-6.58-12.46,2.1-1.11Zm2.46,3.72a1.66,1.66,0,0,1-2.92,1.54,1.66,1.66,0,0,1,2.92-1.54Z"/><path d="M787.57,973.94l-1.76.89-1.33-2.19-.08,0c-.06,2-.84,3.67-2.27,4.39a3.52,3.52,0,0,1-1.48.42l-.53-2.07a4,4,0,0,0,1.32-.41c1.06-.54,1.94-2,1.72-4.51l-4.08-8.08,2.12-1.07Z"/><path d="M776.52,971.58c2,4.17.36,8-2.55,9.41-3.25,1.54-6.19.07-7.91-3.58a9.11,9.11,0,0,1-.5-1.27l8.6-4.06c-1.43-2.63-3.9-3.58-6.34-2.43a6.37,6.37,0,0,0-2.7,2.49l-1.43-1.06a8.39,8.39,0,0,1,3.58-3.29C770.67,966.19,774.55,967.41,776.52,971.58Zm-8.42,5.26c1.21,2.57,3,3.42,5,2.48,1.78-.84,2.73-3.05,1.8-5.69Z"/><path d="M756.64,977c1.19,2.84-.66,5.27-5.94,8.2.69,1.66,1.9,3,4,2.15a7.66,7.66,0,0,0,3.3-3l1.49,1.17a10.46,10.46,0,0,1-4.41,3.82c-3.18,1.33-5.41-.22-6.76-3.46l-3.33-8,1.82-.76.84,1.47.08,0a7.52,7.52,0,0,1,3.53-3.67A3.84,3.84,0,0,1,756.64,977Zm-8.05,3.15,1.51,3.61c4.11-2.35,5.16-4,4.47-5.7-.62-1.47-1.89-1.66-3.17-1.12S749.38,978.52,748.59,980.17Zm12.94,13.67L760.6,996,755,993.07l.67-1.57Z"/><path d="M737.67,986.34l3.05,8.39-2.26.82-2.95-8.09c-.9-2.48-2-3.28-3.77-2.64-1.36.5-2.07,1.52-2.76,3.53l3.42,9.4-2.24.81-4.82-13.25,1.85-.67.94,2,.08,0c.7-1.89,1.66-3.32,3.49-4C734.53,981.62,736.43,983,737.67,986.34Z"/><path d="M725.38,1000.23l-1.87.61-.82-1.87-.08,0a6.64,6.64,0,0,1-3.76,3.72c-2.81.92-4.67-.49-5.79-3.91l-2.76-8.49,2.26-.74,2.67,8.19c.82,2.51,1.94,3.33,3.7,2.76,1.38-.45,2.08-1.47,3-3.26l-3.16-9.71,2.26-.74Z"/><path d="M700.87,990.33a4.07,4.07,0,0,1-1.14,3.62l0,.11a2.6,2.6,0,0,1,1.81,1.88,3.3,3.3,0,0,1-.79,2.92l0,.11a5,5,0,0,1-1,9.42,5.61,5.61,0,0,1-2,.19l-4.73,1.3-.48-1.76,2.8-.77a4.08,4.08,0,0,1-1.89-2.49,4.84,4.84,0,0,1,3.68-6.09,4.92,4.92,0,0,1,2.17-.08,2.14,2.14,0,0,0,.42-1.86c-.24-.87-1-1.33-2.81-.82l-2.63.72c-3.16.87-5,.33-5.64-1.94-.69-2.52,1.37-5.43,5.59-6.59C697.57,987.29,700.22,988,700.87,990.33Zm-10.07,3.52c.34,1.26,1.44,1.41,3.2.93l2.35-.64a6.82,6.82,0,0,1,1.82-.26,3,3,0,0,0,.77-2.68c-.4-1.45-2.13-2-4.6-1.29S690.4,992.42,690.79,993.85Zm4.78,10.51a3,3,0,1,0,5.76-1.58,3,3,0,1,0-5.76,1.58Z"/><path d="M688.73,1000.2c.72,3-1.49,5.1-7.17,7.16.42,1.75,1.39,3.3,3.65,2.76a7.67,7.67,0,0,0,3.74-2.45l1.29,1.39a10.46,10.46,0,0,1-5,3.07c-3.36.81-5.3-1.08-6.12-4.49l-2-8.4,1.92-.46.59,1.59.08,0a7.52,7.52,0,0,1,4.06-3.07A3.84,3.84,0,0,1,688.73,1000.2Zm-8.45,1.83.92,3.81c4.43-1.66,5.74-3.17,5.32-4.92-.37-1.55-1.6-1.94-3-1.62S681.32,1000.52,680.28,1002Z"/><path d="M675.37,1006.85c.92,4.49-1.35,7.86-4.5,8.5a5.81,5.81,0,0,1-4.19-.8l.6,2.33,1.09,5.31-2.36.48-4.15-20.23,1.93-.4.53,1.58.08,0a6.36,6.36,0,0,1,3.77-2.82C671.64,1000.09,674.42,1002.24,675.37,1006.85Zm-10.43-1.35,1.48,7.22a4.91,4.91,0,0,0,3.65.76c2.22-.46,3.54-2.95,2.89-6.1s-2.48-5-4.89-4.5A4.77,4.77,0,0,0,664.93,1005.49Z"/><path d="M658,1000.44a4.07,4.07,0,0,1-1.5,3.49l0,.11a2.6,2.6,0,0,1,1.61,2,3.3,3.3,0,0,1-1.08,2.83l0,.12a5,5,0,0,1-2,9.28,5.62,5.62,0,0,1-2,0l-4.83.82-.31-1.8,2.86-.49a4.09,4.09,0,0,1-1.63-2.67,4.84,4.84,0,0,1,4.27-5.7,4.94,4.94,0,0,1,2.17.13,2.13,2.13,0,0,0,.6-1.81c-.15-.89-.83-1.42-2.72-1.1l-2.69.46c-3.23.55-5-.17-5.43-2.49-.44-2.57,1.9-5.27,6.22-6C655,997.1,657.55,998,658,1000.44Zm-10.37,2.5c.22,1.29,1.29,1.55,3.09,1.24l2.4-.41a6.86,6.86,0,0,1,1.84-.08,3,3,0,0,0,1-2.59c-.25-1.49-1.93-2.17-4.45-1.74S647.34,1001.49,647.59,1002.94Zm3.71,10.93a3,3,0,1,0,5.89-1,3,3,0,1,0-5.89,1Z"/><path d="M645.46,1012.39c.63,4.57-2.06,7.78-5.25,8.22-3.56.49-5.93-1.79-6.48-5.78a9.26,9.26,0,0,1-.1-1.36l9.42-1.3c-.58-2.94-2.65-4.58-5.33-4.21a6.37,6.37,0,0,0-3.33,1.57l-1-1.44a8.4,8.4,0,0,1,4.4-2.07C641.49,1005.5,644.83,1007.82,645.46,1012.39Zm-9.61,2.5c.39,2.82,1.86,4.16,4,3.86,2-.27,3.52-2.1,3.42-4.89Z"/><path d="M629.7,1011.77l.87,7.75,2.08-.23.2,1.79-2.17.39.15,4-2,.22-.44-3.92-3.78.42-.21-1.93,3.78-.42-.87-7.78c-.19-1.73-.85-2.65-2.46-2.47a5.12,5.12,0,0,0-1.54.55l-.66-1.74a8.67,8.67,0,0,1,2.54-.81C628.17,1007.22,629.39,1009,629.7,1011.77Z"/><path d="M609.17,1024.37a2.65,2.65,0,0,0,3,2.59,4.43,4.43,0,0,0,3.2-1.93l1.45,1.14A6.52,6.52,0,0,1,612,1029c-2.92.22-5-1.4-5.18-4.26-.28-3.79,4.26-5.67,3.49-9.68l2.08-.16C613.41,1019.31,608.94,1021.3,609.17,1024.37Zm3.56-13.85a1.73,1.73,0,0,1-1.57,2,1.83,1.83,0,0,1-.27-3.64A1.72,1.72,0,0,1,612.72,1010.52Z"/><path d="M866,191.4l4.23,3.4c3.32,2.67,4.67,5.58,2,8.84s-5.91,2.8-9.16.19l-2.44-2-4.73,5.88-1.87-1.51Zm-1.88,10.7c2.58,2.07,4.58,2.13,6.27,0s1-3.9-1.62-6l-2.12-1.71-4.75,5.9Z"/><path d="M869.73,209.89c3-3.5,7.19-3.61,9.64-1.51,2.73,2.34,2.59,5.63,0,8.68a9.24,9.24,0,0,1-1,1l-7.22-6.2c-1.82,2.38-1.68,5,.37,6.78a6.37,6.37,0,0,0,3.38,1.45l-.38,1.74a8.39,8.39,0,0,1-4.47-1.92C867.19,217.42,866.72,213.39,869.73,209.89Zm8.24,5.55c1.85-2.16,1.89-4.15.21-5.59-1.5-1.29-3.9-1.25-5.94.68Z"/><path d="M880,221.28l6-6.58,1.77,1.63L882,222.67c-1.78,1.94-2,3.31-.61,4.56,1.07,1,2.31,1.13,4.41.82l6.76-7.37,1.75,1.61-9.53,10.38-1.45-1.33,1.34-1.76-.06-.06c-2,.25-3.71.06-5.14-1.26C877.3,226.24,877.61,223.93,880,221.28Z"/><path d="M891.47,233l5.43-5.59-1.5-1.45,1.25-1.29,1.68,1.43,3-2.63,1.44,1.39L900,227.73l2.72,2.65-1.35,1.39-2.72-2.65-5.45,5.62c-1.21,1.25-1.5,2.34-.34,3.47a5.14,5.14,0,0,0,1.41.84l-.92,1.61a8.66,8.66,0,0,1-2.24-1.44C888.93,237.12,889.54,235,891.47,233Z"/><path d="M899.51,235.54l4.7,4.74-1.3,1.29-4.7-4.74Z"/><path d="M905.18,242.89c3.45-3.24,7.51-2.84,9.88-.33s2.5,6.6-.94,9.84-7.47,2.8-9.83.29S901.78,246.09,905.18,242.89Zm7.25,7.71c2.37-2.22,2.86-4.92,1.19-6.69s-4.38-1.45-6.75.77-2.8,4.9-1.15,6.65S910.08,252.81,912.43,250.61Z"/><path d="M922,250.56l1.3,1.48-1.39,1.49.06.07a6.64,6.64,0,0,1,4.9,2c2,2.22,1.39,4.49-1.31,6.86l-6.72,5.89-1.57-1.79,6.48-5.68c2-1.74,2.3-3.1,1.08-4.49-1-1.09-2.17-1.33-4.18-1.47L913,261.64l-1.57-1.79Z"/><path d="M927.65,273.2c2.4-1.92,5.25-.82,9.52,3.46,1.4-1.12,2.4-2.66,1-4.47a7.66,7.66,0,0,0-3.8-2.34l.71-1.76a10.46,10.46,0,0,1,4.88,3.19c2.15,2.7,1.27,5.26-1.47,7.45l-6.75,5.39-1.23-1.54,1.19-1.21-.05-.07a7.52,7.52,0,0,1-4.5-2.38A3.84,3.84,0,0,1,927.65,273.2Zm5.23,6.88,3.06-2.44c-3.39-3.31-5.3-3.85-6.71-2.73-1.25,1-1.08,2.27-.21,3.36S931.08,279.77,932.88,280.08Z"/><path d="M934.63,285.31h2a6.34,6.34,0,0,0,1.15,4.33c1.12,1.48,2.46,1.63,3.44.9,1.16-.87.66-2.6.2-4.18-.62-2-1.18-4.37.72-5.8s4.28-1,6.11,1.47a7,7,0,0,1,1.36,4.46H947.7a5.24,5.24,0,0,0-.94-3.32c-1.06-1.42-2.32-1.49-3.17-.84-1.07.8-.54,2.33-.07,4,.62,2.08,1.3,4.39-.83,6-1.83,1.38-4.46,1.07-6.46-1.6A8.49,8.49,0,0,1,934.63,285.31Z"/><path d="M941.85,295l2,0a6.34,6.34,0,0,0,1,4.35c1.08,1.51,2.42,1.7,3.41,1,1.18-.84.73-2.58.31-4.17-.57-2.05-1.07-4.4.87-5.78s4.3-.85,6.07,1.63a7,7,0,0,1,1.24,4.49l-1.88,0a5.24,5.24,0,0,0-.85-3.35c-1-1.44-2.28-1.55-3.15-.93-1.09.77-.6,2.31-.17,4,.56,2.09,1.19,4.42-1,6-1.87,1.33-4.49.95-6.42-1.77A8.48,8.48,0,0,1,941.85,295Z"/><path d="M952.56,303.94,960,299l1.33,2-7.17,4.77c-2.2,1.46-2.7,2.74-1.68,4.29.8,1.21,2,1.65,4.08,1.84l8.33-5.54,1.32,2-11.73,7.81-1.09-1.64,1.72-1.39,0-.07c-2-.23-3.62-.83-4.7-2.45C948.71,308.11,949.57,305.94,952.56,303.94Z"/><path d="M968.9,312.58l1,1.67-2.06,1.52,0,.07c2-.13,3.74.51,4.58,1.86a3.5,3.5,0,0,1,.55,1.43l-2,.71a3.94,3.94,0,0,0-.53-1.28c-.63-1-2.12-1.75-4.64-1.3l-7.67,4.79-1.26-2Z"/><path d="M967.55,323.78c4-2.34,8-1.1,9.6,1.68,1.83,3.1.63,6.16-2.84,8.2a9.13,9.13,0,0,1-1.22.62l-4.83-8.19c-2.48,1.67-3.21,4.21-1.84,6.54a6.36,6.36,0,0,0,2.73,2.46l-.92,1.52a8.39,8.39,0,0,1-3.6-3.26C962.73,330.09,963.58,326.12,967.55,323.78Zm6,7.9c2.45-1.44,3.12-3.32,2-5.22-1-1.7-3.29-2.44-5.83-1.27Z"/><path d="M981.53,333.76l1,1.73-2.13,1.41,0,.08c2,0,3.7.7,4.47,2.1a3.5,3.5,0,0,1,.48,1.46l-2.05.6a3.93,3.93,0,0,0-.46-1.31c-.58-1-2-1.86-4.57-1.55l-7.92,4.38-1.15-2.08Z"/><path d="M979.51,351.93c2.75-1.38,5.3.29,8.59,5.35,1.61-.81,2.9-2.11,1.86-4.18a7.65,7.65,0,0,0-3.23-3.08l1.06-1.57a10.46,10.46,0,0,1,4.12,4.13c1.55,3.08.15,5.41-3,7l-7.72,3.88-.88-1.76,1.41-.94,0-.08a7.52,7.52,0,0,1-3.91-3.26A3.83,3.83,0,0,1,979.51,351.93Zm3.7,7.81,3.5-1.76c-2.63-3.94-4.39-4.87-6-4.06-1.42.72-1.53,2-.9,3.24S981.51,359.07,983.21,359.75Zm12.73-13.86,2.18.79-2.49,5.83-1.61-.55Z"/><path d="M989.63,371.12l7.1-3.22-.86-1.9,1.64-.74,1,1.95,3.71-1.36.83,1.82-3.59,1.63,1.57,3.46-1.77.8-1.57-3.46-7.13,3.23c-1.58.72-2.26,1.63-1.58,3.11a5.14,5.14,0,0,0,1,1.3l-1.45,1.17a8.69,8.69,0,0,1-1.55-2.16C985.77,374,987.09,372.27,989.63,371.12Z"/><path d="M995.37,377.32c4.36-1.83,8,0,9.37,3.14s0,7.06-4.31,8.89-8,0-9.32-3.16S991.07,379.13,995.37,377.32Zm4.11,9.76c3-1.26,4.4-3.61,3.45-5.86s-3.61-2.89-6.6-1.63-4.33,3.62-3.4,5.83S996.51,388.32,999.48,387.07Z"/><path d="M1000,393.33l8.35-3.18.86,2.25-8,3.06c-2.47.94-3.25,2.07-2.58,3.81.52,1.35,1.55,2,3.57,2.7l9.35-3.56.85,2.22-13.17,5-.7-1.84,2-1,0-.08c-1.9-.67-3.34-1.61-4-3.43C995.35,396.54,996.66,394.61,1000,393.33Z"/><path d="M1001.72,408l1.9.6a6.35,6.35,0,0,0-.23,4.47c.61,1.75,1.84,2.31,3,1.91,1.37-.47,1.42-2.27,1.47-3.91,0-2.13.22-4.52,2.46-5.3s4.37.39,5.36,3.27a7,7,0,0,1-.08,4.66l-1.79-.58a5.23,5.23,0,0,0,.13-3.45c-.58-1.67-1.75-2.13-2.76-1.78-1.26.44-1.22,2-1.28,3.76,0,2.17-.11,4.58-2.63,5.45-2.17.75-4.57-.35-5.66-3.5A8.49,8.49,0,0,1,1001.72,408Z"/><path d="M1011.24,425.16l8.56-2.54.68,2.31-8.26,2.45c-2.53.75-3.39,1.82-2.86,3.6.41,1.39,1.4,2.16,3.36,3l9.59-2.85.68,2.28-13.51,4-.56-1.89,2.05-.82,0-.08c-1.85-.81-3.21-1.86-3.77-3.72C1006.33,428,1007.79,426.18,1011.24,425.16Z"/><path d="M1024.36,438.28l.49,1.91-1.91.71,0,.08a6.64,6.64,0,0,1,3.49,4c.74,2.86-.78,4.64-4.26,5.54l-8.65,2.24-.6-2.3,8.34-2.16c2.55-.66,3.45-1.73,3-3.53-.36-1.4-1.34-2.17-3.07-3.19l-9.88,2.56-.6-2.3Z"/><path d="M1019.25,461c3-.63,5.05,1.63,6.94,7.37,1.76-.37,3.34-1.29,2.87-3.57a7.66,7.66,0,0,0-2.34-3.81l1.43-1.25a10.46,10.46,0,0,1,2.93,5c.71,3.38-1.23,5.27-4.67,6l-8.46,1.78-.41-1.93,1.6-.54,0-.08a7.52,7.52,0,0,1-2.95-4.15A3.84,3.84,0,0,1,1019.25,461Zm1.58,8.5,3.83-.81c-1.53-4.48-3-5.83-4.76-5.46-1.56.33-2,1.54-1.7,2.91S1019.35,468.43,1020.83,469.51Z"/><path d="M1025.48,474.55c4.65-.83,7.86,1.81,8.5,5.38a5.85,5.85,0,0,1-.9,4.34l-1.76-.92a4.13,4.13,0,0,0,.73-3c-.45-2.51-2.94-4-6.14-3.38s-5,2.69-4.54,5.23a5,5,0,0,0,2,3l-1.39,1.31a6.88,6.88,0,0,1-2.57-4.17C1018.73,478.67,1020.88,475.37,1025.48,474.55Z"/><path d="M1027.67,487c4.68-.7,7.81,2,8.35,5.61a5.85,5.85,0,0,1-1,4.32l-1.73-1a4.14,4.14,0,0,0,.82-3c-.38-2.52-2.83-4-6-3.55s-5.07,2.55-4.69,5.1a5,5,0,0,0,1.9,3.06l-1.42,1.27a6.87,6.87,0,0,1-2.45-4.24C1020.81,491,1023.06,487.72,1027.67,487Z"/><path d="M1029.53,499.57c4.58-.55,7.74,2.19,8.13,5.39.43,3.57-1.89,5.89-5.89,6.38a9.17,9.17,0,0,1-1.36.08l-1.14-9.44c-2.94.53-4.63,2.57-4.3,5.25a6.37,6.37,0,0,0,1.51,3.35l-1.46,1a8.39,8.39,0,0,1-2-4.43C1022.57,503.42,1025,500.12,1029.53,499.57Zm2.33,9.65c2.82-.34,4.2-1.79,3.93-4-.24-2-2-3.55-4.83-3.51Zm11.87-9.17,1.78,1.48-4.32,4.64-1.33-1.07Z"/><path d="M1025.75,513.9l1.7,1a6.34,6.34,0,0,0-1.3,4.28c.17,1.85,1.23,2.68,2.45,2.57,1.44-.13,1.93-1.86,2.37-3.45.54-2.06,1.29-4.34,3.66-4.56s4.15,1.43,4.42,4.46a7,7,0,0,1-1.19,4.51l-1.6-1a5.24,5.24,0,0,0,1-3.32c-.16-1.76-1.19-2.48-2.25-2.39-1.33.12-1.68,1.7-2.14,3.34-.57,2.09-1.2,4.42-3.86,4.66-2.28.21-4.35-1.44-4.66-4.76A8.48,8.48,0,0,1,1025.75,513.9Z"/><path d="M1029.32,532.23c3.07-.15,4.73,2.41,5.69,8.37,1.79-.09,3.5-.75,3.39-3.07a7.66,7.66,0,0,0-1.71-4.12l1.61-1a10.46,10.46,0,0,1,2.09,5.44c.17,3.45-2,5-5.55,5.18l-8.63.42-.1-2,1.67-.29v-.09a7.52,7.52,0,0,1-2.26-4.56A3.83,3.83,0,0,1,1029.32,532.23Zm.22,8.64,3.91-.19c-.81-4.66-2-6.23-3.84-6.14-1.59.08-2.21,1.21-2.14,2.6S1028.26,539.57,1029.54,540.87Z"/><path d="M1031.51,547.45l8.93-.14,0,2.41-8.61.14c-2.64,0-3.76.84-3.73,2.7,0,1.45.76,2.45,2.44,3.76l10-.16,0,2.38-14.09.22,0-2,2.2-.24v-.09c-1.56-1.28-2.59-2.66-2.62-4.6C1026,548.88,1027.92,547.51,1031.51,547.45Z"/><path d="M1033.83,566.11l6.79-4.16,0,2.58-3.13,1.84c-.76.42-1.58.88-2.37,1.36v.12c.78.42,1.58.86,2.33,1.31l3.08,1.76,0,2.49-6.92-4.37-7.17,4.47,0-2.58,3.31-2c.85-.48,1.73-1,2.55-1.5v-.12c-.8-.5-1.64-1-2.5-1.46l-3.25-2,0-2.49Z"/><path d="M1035.59,581.56c6.11.36,9.63,4.18,9.34,9a6.94,6.94,0,0,1-2.65,5.07l-1.49-1.4a5.2,5.2,0,0,0,2-3.77c.21-3.59-2.6-6.14-7.32-6.42s-7.92,1.82-8.14,5.41a5.74,5.74,0,0,0,1.88,4.53l-1.58,1.24a7.36,7.36,0,0,1-2.4-6C1025.53,584.5,1029.39,581.19,1035.59,581.56Z"/><path d="M1039,599.46l-.2,2.37-14-1.2.2-2.37Zm4.46-.06a1.66,1.66,0,0,1-.28,3.29,1.66,1.66,0,0,1,.28-3.29Z"/><path d="M1038.55,604.76l-.27,2.45L1030,609c-1.43.25-2.89.56-4.26.85V610c1.28.55,2.64,1.16,4,1.72l7.67,3.52-.25,2.33-13.47-6.48.3-2.77Z"/><path d="M1036.76,620.44l-.31,2.36-14-1.84.31-2.36Zm4.46.15a1.66,1.66,0,0,1-.43,3.28,1.66,1.66,0,0,1,.43-3.28Z"/><path d="M1028.95,625.61c4.67.72,6.85,4.26,6.3,7.84a5.85,5.85,0,0,1-2.26,3.82l-1.36-1.44a4.13,4.13,0,0,0,1.66-2.59c.39-2.52-1.5-4.69-4.71-5.19s-5.6.92-6,3.47a5,5,0,0,0,.9,3.48l-1.74.79a6.87,6.87,0,0,1-1.08-4.77C1021.23,627.32,1024.33,624.89,1028.95,625.61Z"/><path d="M1034.61,651.58l1.13-5.63,2,.4L1035,660l-2-.4,1.13-5.63-16.66-3.34.48-2.39Z"/><path d="M1023.15,657.9c4.49,1,6.54,4.69,5.81,7.83-.81,3.5-3.78,4.9-7.71,4a9.28,9.28,0,0,1-1.31-.39l2.14-9.27c-3-.5-5.23.85-5.83,3.48a6.37,6.37,0,0,0,.29,3.67l-1.71.47a8.39,8.39,0,0,1-.37-4.85C1015.3,659.16,1018.66,656.87,1023.15,657.9Zm-1.08,9.87c2.77.64,4.55-.26,5-2.41.44-1.92-.71-4-3.35-4.94Z"/><path d="M1019.85,672c4.57,1.2,6.37,4.95,5.45,8.45a5.85,5.85,0,0,1-2.65,3.56l-1.21-1.58a4.13,4.13,0,0,0,1.92-2.4c.65-2.47-1-4.82-4.15-5.65s-5.67.34-6.32,2.83a5,5,0,0,0,.53,3.56l-1.81.6a6.88,6.88,0,0,1-.58-4.86C1012,672.89,1015.34,670.8,1019.85,672Z"/><path d="M1029.22,689.73l-.68,2.28-5.39-1.6-2.76-.91a6.74,6.74,0,0,1,.88,5.17c-.84,2.84-3.06,3.57-6.51,2.54l-8.56-2.55.68-2.28,8.26,2.46c2.53.75,3.85.3,4.38-1.48.41-1.39,0-2.55-1-4.32l-9.79-2.91.68-2.28Z"/><path d="M1005.79,700.61a1.73,1.73,0,0,1,1.22,2.21,1.83,1.83,0,0,1-3.47-1.15A1.72,1.72,0,0,1,1005.79,700.61Zm11.41,8.61a2.64,2.64,0,0,0,3.55-1.78,4.43,4.43,0,0,0-.55-3.7l1.61-.9a6.52,6.52,0,0,1,.72,5.49c-.92,2.78-3.2,4-5.93,3.14-3.61-1.2-3.6-6.11-7.6-6.95l.66-2C1014.17,703.36,1014.28,708.26,1017.2,709.22Z"/><path d="M429.73,114.88l2.29-.73,5.15,16.17,7.93-2.53.63,2L435.51,133Z"/><path d="M442.08,116.69a4,4,0,0,0,1-4.09.64.64,0,0,1-.21.09,1.44,1.44,0,0,1-1.89-1,1.49,1.49,0,0,1,1-2c1.08-.32,2,.39,2.5,2a5.62,5.62,0,0,1-1.51,5.8Z"/><path d="M448.85,121.5c-1.25-4.56,1-8,4.32-8.89s7,.87,8.26,5.43-1,7.92-4.34,8.83S450.08,126,448.85,121.5Zm10.21-2.81c-.86-3.13-3-4.83-5.36-4.18s-3.33,3.2-2.47,6.33,3,4.76,5.35,4.13S459.91,121.8,459.05,118.69Z"/><path d="M463.45,110.24l1.92-.46.57,1.53.08,0a7.29,7.29,0,0,1,3.92-3c3.53-.84,6.07,1.45,7.08,5.71,1.1,4.66-1,8.06-4.17,8.8a6.54,6.54,0,0,1-4.18-.68l.63,2.38,1.1,4.63-2.31.55Zm11.17,4.38c-.72-3-2.21-4.81-4.81-4.19-1.16.27-2.16,1.2-3.23,2.73l1.71,7.19a5.58,5.58,0,0,0,3.7.64C474.26,120.46,475.43,118,474.63,114.62Z"/><path d="M479.82,113.69c-.91-4.52,1.57-7.89,4.73-8.53,3.53-.71,6,1.42,6.82,5.37a9.31,9.31,0,0,1,.18,1.35l-9.32,1.88c.76,2.89,2.93,4.41,5.57,3.87a6.36,6.36,0,0,0,3.22-1.77l1.13,1.37a8.39,8.39,0,0,1-4.26,2.34C484.21,120.32,480.73,118.21,479.82,113.69Zm9.44-3.09c-.56-2.79-2.12-4-4.28-3.6-1.93.39-3.38,2.31-3.11,5.1Z"/><path d="M493.86,103.71l1.94-.33.54,2h.09a6.64,6.64,0,0,1,4.27-3.13c2.92-.49,4.55,1.18,5.14,4.72l1.48,8.81-2.34.39-1.42-8.49c-.44-2.6-1.42-3.58-3.25-3.28-1.43.24-2.28,1.15-3.44,2.78l1.69,10.07-2.34.39Z"/><path d="M515.55,107.46c-.54-4.55,2-7.71,5.2-8.09a5.81,5.81,0,0,1,4.11,1.15l-.4-2.38-.64-5.38,2.39-.28,2.43,20.5-2,.23-.4-1.62h-.09a6.36,6.36,0,0,1-4,2.49C518.69,114.51,516.1,112.13,515.55,107.46Zm10.28,2.23-.87-7.31a4.9,4.9,0,0,0-3.57-1.07c-2.25.27-3.77,2.64-3.4,5.83s2,5.19,4.49,4.9A4.77,4.77,0,0,0,525.83,109.69Z"/><path d="M532,109c-.26-3.06,2.24-4.82,8.17-6-.15-1.79-.88-3.48-3.19-3.28a7.67,7.67,0,0,0-4.06,1.86L531.88,100a10.46,10.46,0,0,1,5.37-2.29c3.44-.29,5.08,1.87,5.37,5.37l.73,8.61-2,.17-.34-1.66H541a7.52,7.52,0,0,1-4.48,2.42A3.84,3.84,0,0,1,532,109Zm8.63-.52-.33-3.9c-4.63,1-6.15,2.27-6,4.06.13,1.59,1.29,2.16,2.68,2S539.4,109.76,540.66,108.44Z"/><path d="M547.4,107.06l-.46-7.79-2.08.12-.11-1.79,2.19-.27.06-4,2-.12.23,3.94L553,97l.11,1.94-3.79.22.46,7.82c.1,1.74.71,2.69,2.33,2.59a5.11,5.11,0,0,0,1.57-.47l.57,1.77a8.7,8.7,0,0,1-2.58.67C548.69,111.69,547.57,109.84,547.4,107.06Z"/><path d="M555.32,107.3c-.1-3.07,2.48-4.69,8.46-5.56-.06-1.8-.7-3.52-3-3.44a7.66,7.66,0,0,0-4.15,1.65l-1-1.62a10.46,10.46,0,0,1,5.47-2c3.45-.11,5,2.13,5.09,5.63l.29,8.64-2,.06-.26-1.67h-.09a7.51,7.51,0,0,1-4.6,2.18A3.83,3.83,0,0,1,555.32,107.3Zm8.64-.08-.13-3.91c-4.67.73-6.26,1.95-6.2,3.74.05,1.59,1.18,2.22,2.57,2.18S562.64,108.48,564,107.21Z"/><path d="M575.54,103.45c0-4.61,3.18-7.39,6.4-7.36,3.59,0,5.6,2.64,5.55,6.67a9.21,9.21,0,0,1-.1,1.36l-9.51-.1c.14,3,1.95,4.92,4.65,4.95a6.37,6.37,0,0,0,3.52-1.06l.82,1.57a8.4,8.4,0,0,1-4.65,1.4C578.45,110.84,575.5,108.06,575.54,103.45Zm9.87-1.06c0-2.84-1.23-4.39-3.43-4.41-2,0-3.79,1.55-4.1,4.33Z"/><path d="M589.25,109.05l1.25-1.55a6.33,6.33,0,0,0,4.08,1.84c1.85.07,2.82-.88,2.87-2.09.06-1.45-1.6-2.15-3.11-2.79-2-.8-4.14-1.84-4-4.22s2-3.93,5-3.81a7,7,0,0,1,4.31,1.76l-1.19,1.46a5.23,5.23,0,0,0-3.17-1.37c-1.77-.07-2.62.86-2.66,1.93-.05,1.33,1.46,1.89,3,2.56,2,.83,4.23,1.76,4.12,4.43-.09,2.29-2,4.13-5.32,4A8.48,8.48,0,0,1,589.25,109.05Z"/><path d="M602.89,106.9l.48-7.79L601.28,99l.11-1.79h2.21l.53-3.92,2,.12-.24,3.94,3.79.23-.12,1.94-3.79-.23-.48,7.82c-.11,1.74.38,2.75,2,2.85a5.12,5.12,0,0,0,1.62-.28l.35,1.82a8.72,8.72,0,0,1-2.64.36C603.61,111.65,602.72,109.68,602.89,106.9Z"/><path d="M610.63,103.56l6.65.54-.15,1.82-6.65-.54Z"/><path d="M621.43,98.56l2.37.23-1.39,14-2.37-.23Zm0-4.46a1.66,1.66,0,0,1,3.29.33,1.66,1.66,0,0,1-3.29-.33Z"/><path d="M627.39,110.48l2-17.69,2.36.27-2.05,17.86c-.09.75.2,1.07.54,1.11a2,2,0,0,0,.53,0l.11,1.82a3.2,3.2,0,0,1-1.38.07C627.75,113.74,627.16,112.53,627.39,110.48Z"/><path d="M640.42,112.13,643,94.51l2.35.34-2.56,17.79c-.11.75.17,1.08.51,1.13a2,2,0,0,0,.53,0l.06,1.82a3.2,3.2,0,0,1-1.38,0C640.69,115.39,640.13,114.17,640.42,112.13Z"/><path d="M647,112.25c.51-3,3.37-4.11,9.4-3.76.3-1.77,0-3.59-2.27-4a7.66,7.66,0,0,0-4.4.79l-.64-1.79a10.46,10.46,0,0,1,5.77-.88c3.4.58,4.45,3.08,3.87,6.54l-1.44,8.52-1.94-.33.08-1.69h-.09a7.52,7.52,0,0,1-4.94,1.22A3.84,3.84,0,0,1,647,112.25Zm8.49,1.64.65-3.86c-4.73-.21-6.52.66-6.82,2.43-.27,1.57.71,2.41,2.08,2.65S653.92,114.87,655.47,113.89Z"/><path d="M667.56,112.53c1-4.62,4.65-6.6,8.19-5.84a5.85,5.85,0,0,1,3.68,2.48l-1.52,1.28a4.13,4.13,0,0,0-2.49-1.81c-2.5-.53-4.77,1.23-5.45,4.41s.6,5.64,3.12,6.18a5,5,0,0,0,3.53-.7l.69,1.78a6.87,6.87,0,0,1-4.83.8C668.83,120.33,666.58,117.09,667.56,112.53Z"/><path d="M680.55,119.67l4.12-17.32,2.31.55-4.16,17.49c-.17.73.07,1.09.41,1.17a2,2,0,0,0,.52.06l-.11,1.82a3.2,3.2,0,0,1-1.38-.09C680.52,122.94,680.07,121.67,680.55,119.67Z"/><path d="M687.76,117.08c1.18-4.46,4.9-6.39,8-5.57,3.48.92,4.78,3.93,3.75,7.83a9.29,9.29,0,0,1-.43,1.3l-9.2-2.43c-.59,2.93.68,5.25,3.29,5.94a6.37,6.37,0,0,0,3.67-.17l.41,1.73a8.4,8.4,0,0,1-4.86.22C688.77,125,686.59,121.54,687.76,117.08Zm9.83,1.39c.73-2.75-.12-4.56-2.25-5.12-1.91-.5-4.05.58-5,3.2Zm-2.54-10.63,5.19-3.64,1.22,2-5.54,3.13Z"/><path d="M708.25,128.57a1.73,1.73,0,0,1,2.18-1.27,1.83,1.83,0,0,1-1.08,3.49A1.72,1.72,0,0,1,708.25,128.57ZM716.63,117a2.65,2.65,0,0,0-1.85-3.52,4.42,4.42,0,0,0-3.68.62l-.93-1.59a6.52,6.52,0,0,1,5.47-.82c2.8.87,4.1,3.12,3.25,5.86-1.12,3.63-6,3.72-6.79,7.73l-2-.62C710.83,120.14,715.72,119.93,716.63,117Z"/><path d="M81.66,401.26l.76-2.28,16.09,5.37,2.64-7.9,2,.65-3.4,10.18Z"/><path d="M97.06,393.18c-4.33-1.58-5.91-5.46-4.8-8.49,1.23-3.38,4.35-4.4,8.14-3a9.31,9.31,0,0,1,1.25.55l-3.26,8.93c2.87.86,5.29-.2,6.21-2.73a6.37,6.37,0,0,0,.17-3.67l1.76-.25a8.39,8.39,0,0,1-.23,4.86C105,392.9,101.39,394.76,97.06,393.18Zm2.29-9.66c-2.67-1-4.55-.3-5.31,1.77-.68,1.85.21,4.09,2.72,5.32Z"/><path d="M106.9,382.11l-1-1.69a6.34,6.34,0,0,0,3.09-3.24c.68-1.73.11-3-1-3.4-1.35-.53-2.56.8-3.67,2-1.41,1.59-3.11,3.29-5.32,2.42s-3.06-3.14-1.94-6a7,7,0,0,1,3.09-3.49l1,1.61a5.23,5.23,0,0,0-2.34,2.54c-.65,1.65-.06,2.75.94,3.15,1.24.49,2.26-.76,3.42-2,1.45-1.61,3.06-3.41,5.54-2.42,2.13.84,3.24,3.25,2,6.35A8.49,8.49,0,0,1,106.9,382.11Z"/><path d="M113.58,365.57l-1-1.73a6.34,6.34,0,0,0,3.2-3.13c.74-1.7.21-2.94-.9-3.43-1.33-.58-2.59.7-3.73,1.88-1.47,1.54-3.22,3.18-5.4,2.23s-2.95-3.25-1.73-6a7,7,0,0,1,3.21-3.37l.93,1.64a5.23,5.23,0,0,0-2.43,2.45c-.71,1.62-.16,2.75.83,3.18,1.22.53,2.29-.68,3.49-1.89,1.5-1.56,3.18-3.29,5.62-2.22,2.1.92,3.12,3.36,1.79,6.41A8.48,8.48,0,0,1,113.58,365.57Z"/><path d="M116.54,352.1l-7.08-3.27-.88,1.9-1.63-.75.79-2.06L104.28,346l.84-1.82,3.58,1.65,1.59-3.45,1.76.81-1.59,3.45,7.11,3.28c1.58.73,2.71.64,3.39-.83a5.11,5.11,0,0,0,.33-1.61l1.83.33a8.7,8.7,0,0,1-.62,2.59C121.23,353.15,119.06,353.27,116.54,352.1Z"/><path d="M120.48,345.23c-2.76-1.35-3-4.4-.93-10.08-1.61-.79-3.43-1-4.45,1a7.66,7.66,0,0,0-.5,4.44l-1.89.1a10.46,10.46,0,0,1,.8-5.78c1.52-3.1,4.21-3.39,7.36-1.85l7.76,3.81-.87,1.77-1.6-.56,0,.08a7.52,7.52,0,0,1-.23,5.08A3.83,3.83,0,0,1,120.48,345.23Zm4-7.67L121,335.84c-1.55,4.47-1.22,6.44.39,7.23,1.43.7,2.52,0,3.13-1.24S125,339.32,124.47,337.56Z"/><path d="M118.11,326.57l.91-1.75,2.36,1,0-.08c-1.13-1.67-1.46-3.47-.72-4.89a3.49,3.49,0,0,1,1-1.2l1.64,1.38a4,4,0,0,0-.84,1.1c-.55,1.05-.43,2.72,1.23,4.66l8,4.18-1.1,2.11Z"/><path d="M131.63,321.81l-6.85-3.74-1,1.83-1.58-.86.93-2-3.32-2.15,1-1.76,3.46,1.89,1.82-3.33,1.71.93-1.82,3.33,6.87,3.76c1.53.83,2.66.82,3.44-.6a5.11,5.11,0,0,0,.43-1.58l1.8.46a8.72,8.72,0,0,1-.79,2.54C136.24,323.17,134.08,323.14,131.63,321.81Z"/><path d="M131.9,313.38l3.3-5.8,1.59.9-3.3,5.8Z"/><path d="M139.47,306.2l-7.65-4.61,1.24-2.06,7.38,4.44c2.26,1.36,3.63,1.27,4.59-.32.75-1.24.65-2.49-.08-4.48L136.38,294l1.23-2,12.07,7.27-1,1.69-2-1,0,.07c.64,1.91.79,3.63-.21,5.29C144.88,307.9,142.55,308.05,139.47,306.2Z"/><path d="M140.29,287.68l1.07-1.66,1.47.71,0-.07a7.29,7.29,0,0,1,.78-4.84c2-3,5.38-3.15,9.06-.77,4,2.6,4.82,6.53,3.08,9.24a6.53,6.53,0,0,1-3.49,2.41l2.1,1.29,4,2.58-1.29,2Zm11.1-4.57c-2.61-1.68-4.93-1.94-6.37.3-.65,1-.73,2.36-.44,4.2l6.21,4a5.58,5.58,0,0,0,3.11-2.1C155.15,287.59,154.3,285,151.38,283.11Z"/><path d="M158.65,282.36l-.64-1.88a6.34,6.34,0,0,0,3.73-2.47c1-1.53.76-2.85-.24-3.54-1.2-.82-2.67.21-4,1.15-1.73,1.24-3.77,2.52-5.73,1.17s-2.28-3.75-.56-6.26a7,7,0,0,1,3.79-2.71l.6,1.79a5.24,5.24,0,0,0-2.85,1.95c-1,1.46-.67,2.67.21,3.28,1.1.75,2.38-.23,3.78-1.2,1.77-1.25,3.74-2.64,5.94-1.13,1.89,1.3,2.43,3.88.55,6.63A8.48,8.48,0,0,1,158.65,282.36Z"/><path d="M162.9,262.43c-4.9-3.66-5.75-8.78-2.85-12.66a6.94,6.94,0,0,1,5-2.78l.47,2a5.2,5.2,0,0,0-3.77,2c-2.15,2.88-1.2,6.56,2.58,9.38s7.62,2.83,9.77-.05a5.74,5.74,0,0,0,.92-4.82l2-.17a7.36,7.36,0,0,1-1.28,6.32C172.92,265.49,167.87,266.14,162.9,262.43Z"/><path d="M166.11,243.22a1.66,1.66,0,0,1,2-2.6,1.66,1.66,0,0,1-2,2.6Zm3.76,2.39,1.47-1.87,11.09,8.69L181,254.31Z"/><path d="M173.12,241.44l1.56-1.91,7.89,3c1.33.57,2.73,1.1,4,1.61l.07-.09c-.78-1.16-1.58-2.42-2.4-3.61l-4.51-7.13,1.49-1.82L189,244.26l-1.76,2.16Z"/><path d="M179.5,226.74a1.66,1.66,0,0,1,2.14-2.52,1.66,1.66,0,0,1-2.14,2.52Zm3.66,2.54,1.54-1.81,10.73,9.14-1.54,1.81Z"/><path d="M192.52,229.2c-3.54-3.14-3.46-7.29-1.05-10a5.85,5.85,0,0,1,4-2l.36,2a4.13,4.13,0,0,0-2.8,1.28c-1.69,1.91-1.28,4.76,1.15,6.92s5.21,2.26,6.92.32a5,5,0,0,0,1.13-3.42l1.89.28a6.88,6.88,0,0,1-1.68,4.6C199.93,231.93,196,232.29,192.52,229.2Z"/><path d="M201.73,204.32l-4,4.14-1.46-1.41,9.64-10,1.46,1.41-4,4.14,12.26,11.77L214,216.08Z"/><path d="M214.8,205.14c-3.24-3.28-3-7.46-.73-9.72,2.56-2.53,5.81-2.12,8.65.74a9.2,9.2,0,0,1,.9,1l-6.76,6.69c2.23,2,4.87,2.08,6.79.18a6.37,6.37,0,0,0,1.72-3.25l1.7.52a8.39,8.39,0,0,1-2.28,4.29C222.1,208.27,218,208.41,214.8,205.14Zm6.19-7.76c-2-2-4-2.22-5.55-.67-1.4,1.39-1.56,3.79.19,6Z"/><path d="M225.12,195c-3.23-3.45-2.77-7.58-.12-10.06a5.85,5.85,0,0,1,4.14-1.61l.18,2a4.13,4.13,0,0,0-2.91,1c-1.86,1.74-1.71,4.62.51,7s5,2.73,6.86,1a5,5,0,0,0,1.44-3.3l1.85.45a6.87,6.87,0,0,1-2.09,4.42C232.25,198.41,228.31,198.4,225.12,195Z"/><path d="M226.58,175l1.78-1.58,3.73,4.22,1.86,2.23a6.74,6.74,0,0,1,2-4.85c2.22-2,4.48-1.41,6.87,1.29l5.92,6.69-1.78,1.58-5.71-6.45c-1.75-2-3.11-2.29-4.5-1.06-1.09,1-1.33,2.18-1.45,4.19l6.76,7.65-1.78,1.58Z"/><path d="M249.8,180l-.11-2a6.34,6.34,0,0,0,4.26-1.37c1.42-1.19,1.5-2.54.72-3.48-.93-1.11-2.63-.52-4.18,0-2,.73-4.31,1.41-5.83-.42s-1.19-4.22,1.15-6.18a7,7,0,0,1,4.38-1.59l.1,1.88A5.23,5.23,0,0,0,247,168c-1.36,1.14-1.37,2.39-.68,3.21.86,1,2.35.42,4-.14,2-.72,4.32-1.53,6,.52,1.47,1.76,1.3,4.4-1.26,6.54A8.49,8.49,0,0,1,249.8,180Z"/><path d="M200.35,410.34l-7.22-3-.79,1.93-1.66-.68.7-2.09-3.54-1.76.76-1.85,3.65,1.49,1.44-3.52,1.8.74L194,405.16l7.25,3c1.61.66,2.73.52,3.35-1a5.14,5.14,0,0,0,.26-1.62l1.84.25a8.7,8.7,0,0,1-.51,2.61C205.08,411.18,202.92,411.39,200.35,410.34Z"/><path d="M195,397.76l.79-1.81,2.42.84,0-.08c-1.24-1.59-1.69-3.37-1-4.83a3.49,3.49,0,0,1,.87-1.26l1.73,1.26a3.94,3.94,0,0,0-.76,1.15c-.48,1.09-.25,2.74,1.54,4.57l8.28,3.63-1,2.18Z"/><path d="M208,394.2c-2.78-1.32-3-4.36-1.07-10.07-1.62-.77-3.45-1-4.44,1.11a7.66,7.66,0,0,0-.44,4.45l-1.89.13a10.46,10.46,0,0,1,.72-5.79c1.48-3.12,4.17-3.45,7.34-1.95l7.81,3.7-.84,1.78-1.61-.54,0,.08a7.52,7.52,0,0,1-.16,5.09A3.84,3.84,0,0,1,208,394.2Zm3.88-7.73-3.54-1.67c-1.49,4.5-1.13,6.46.49,7.23,1.44.68,2.52,0,3.11-1.29S212.39,388.23,211.87,386.48Z"/><path d="M205.42,375.44l.91-1.75,1.9.76,0-.08a6.65,6.65,0,0,1,.07-5.29c1.37-2.62,3.68-2.92,6.87-1.26l7.92,4.13L222,374l-7.64-4c-2.34-1.22-3.72-1-4.58.63-.67,1.29-.46,2.51.15,4.43l9.06,4.72-1.1,2.11Z"/><path d="M223.1,368.67l-.8-1.82a6.34,6.34,0,0,0,3.51-2.78c.91-1.62.51-2.91-.55-3.51-1.26-.71-2.64.44-3.91,1.49-1.62,1.38-3.54,2.83-5.6,1.66s-2.6-3.54-1.1-6.19a7,7,0,0,1,3.54-3l.76,1.73a5.23,5.23,0,0,0-2.67,2.19c-.87,1.54-.44,2.72.5,3.25,1.16.66,2.35-.44,3.66-1.53,1.66-1.4,3.5-2.95,5.82-1.64,2,1.13,2.76,3.66,1.12,6.56A8.48,8.48,0,0,1,223.1,368.67Z"/><path d="M219.19,350.3l1-1.68,1.49.68,0-.07a7.3,7.3,0,0,1,.67-4.86c1.89-3.09,5.31-3.28,9-1,4.08,2.5,5,6.42,3.3,9.16a6.53,6.53,0,0,1-3.43,2.49l2.13,1.24,4.06,2.48-1.24,2Zm11-4.83c-2.65-1.62-5-1.82-6.37.45-.62,1-.67,2.38-.34,4.22l6.31,3.86a5.58,5.58,0,0,0,3.06-2.17C234.06,349.85,233.15,347.28,230.18,345.47Z"/><path d="M235.87,343.19c-2.56-1.7-2.38-4.75.39-10.12-1.5-1-3.27-1.48-4.55.46a7.66,7.66,0,0,0-1.07,4.34l-1.89-.14a10.47,10.47,0,0,1,1.54-5.62c1.91-2.87,4.62-2.81,7.54-.87L245,336l-1.09,1.64-1.51-.76,0,.07a7.53,7.53,0,0,1-.89,5A3.84,3.84,0,0,1,235.87,343.19Zm5-7.09-3.26-2.17c-2.12,4.23-2.05,6.23-.55,7.22,1.33.88,2.49.33,3.26-.83S241.08,337.92,240.82,336.11Z"/><path d="M236,324.34l1.14-1.61,2.2,1.31.05-.07c-.89-1.8-1-3.64,0-4.94a3.5,3.5,0,0,1,1.11-1.06l1.43,1.59a4,4,0,0,0-1,1c-.69,1-.8,2.63.58,4.79l7.38,5.24-1.38,1.94Z"/><path d="M246.85,321.27c-3.68-2.78-4.06-6.95-2.12-9.52,2.17-2.87,5.45-2.94,8.67-.51a9.15,9.15,0,0,1,1,.89l-5.73,7.59c2.49,1.66,5.12,1.36,6.74-.8a6.36,6.36,0,0,0,1.23-3.46l1.76.27a8.39,8.39,0,0,1-1.64,4.58C254.53,323.32,250.53,324,246.85,321.27Zm5-8.57c-2.27-1.71-4.26-1.62-5.59.14-1.19,1.57-1,4,1,5.88Z"/><path d="M250.76,304.47l1.25-1.53,1.7,1.12.05-.07a6.64,6.64,0,0,1,1.14-5.17c1.87-2.29,4.19-2.12,7,.15l6.93,5.64-1.5,1.84L260.63,301c-2-1.67-3.44-1.75-4.61-.31-.92,1.12-1,2.37-.75,4.36l7.92,6.45-1.5,1.84Z"/><path d="M265.71,297.44c-3.56-3.11-3.5-7.27-1.12-10a5.85,5.85,0,0,1,4-2l.38,1.95a4.14,4.14,0,0,0-2.79,1.3c-1.68,1.92-1.25,4.77,1.2,6.91s5.22,2.22,6.92.28a5,5,0,0,0,1.11-3.42l1.89.27a6.87,6.87,0,0,1-1.65,4.61C273.15,300.13,269.23,300.51,265.71,297.44Z"/><path d="M274.11,287.89c-3.37-3.15-3.3-7.34-1.1-9.69,2.46-2.63,5.73-2.35,8.67.41a9.23,9.23,0,0,1,.94,1l-6.5,6.95c2.3,1.91,4.95,1.89,6.79-.08a6.36,6.36,0,0,0,1.59-3.31l1.72.46A8.39,8.39,0,0,1,284.1,288C281.53,290.74,277.47,291,274.11,287.89Zm5.89-8c-2.08-1.94-4.07-2.06-5.58-.45-1.35,1.44-1.41,3.84.43,6Z"/><path d="M287.77,262.44a2.65,2.65,0,0,0-4-.05,4.43,4.43,0,0,0-1.22,3.53l-1.85.06a6.52,6.52,0,0,1,1.9-5.2c2.1-2,4.71-2.11,6.71-.05,2.65,2.72.38,7.08,3.54,9.67l-1.5,1.46C287.76,269,289.91,264.64,287.77,262.44Zm6.17,12.9a1.73,1.73,0,0,1-.07-2.52,1.83,1.83,0,0,1,2.55,2.62A1.72,1.72,0,0,1,293.93,275.34Z"/></g><g id="Calque_1-2" data-name="Calque 1"><circle class="cls-5" cx="576.5" cy="576.5" r="250"/></g><g id="Calque_3" data-name="Calque 3"><path class="cls-6" d="M338.88,498.73A250.1,250.1,0,0,1,576.33,326.45V226.5q-13.16,0-26.07.92A350.14,350.14,0,0,0,264.57,417.67a367.78,367.78,0,0,0-20.51,50.24Z"/><path class="cls-6" d="M371,858.53l58.2-80.11a250.33,250.33,0,0,1-90.29-279.69l-94.83-30.81a365.39,365.39,0,0,0-15.14,67.71,353.67,353.67,0,0,0-2.37,40.84,348.41,348.41,0,0,0,61.56,198.31A358.45,358.45,0,0,0,371,858.53Z"/><path class="cls-6" d="M723.66,778.66a250,250,0,0,1-294.48-.24L371,858.53c52.16,37.89,110.61,59.95,170.09,66.19a354.15,354.15,0,0,0,35.52,1.78q13.57,0,26.88-1c62.28-5,123.69-27.33,178.23-67Z"/><path class="cls-6" d="M908.61,467.91l-94.39,30.67a250.26,250.26,0,0,1-90.56,280.07l58,79.87c50.09-36.39,88.07-82.81,112.55-134.84A347.91,347.91,0,0,0,925.56,603.8,356.07,356.07,0,0,0,908.61,467.91Z"/><path class="cls-6" d="M576.33,273.54v52.9h.25c110.89,0,204.9,72.19,237.64,172.14l94.39-30.67a361.81,361.81,0,0,0-39.77-84.14c-55.76-84.4-147.1-143.23-252.65-155.12a370.2,370.2,0,0,0-39.86-2.15v47"/><path d="M675.08,276.86l7.88,2.66-.82,27.17-6.9-2.33.55-5.64-6.9-2.33-3,4.82L659.25,299Zm-3.3,14.89,4.55,1.54.16-1.85c.19-2.55.59-5.75.82-8.42l-.15-.05c-1.38,2.32-3,5.07-4.38,7.22Z"/><path d="M686.35,297.75c2.56-6.12,8.69-7.72,13.93-5.53a8.8,8.8,0,0,1,4.58,4.17l-4.65,2.82a3.37,3.37,0,0,0-1.7-1.75c-2.36-1-4.5.2-5.68,3s-.37,5.22,1.63,6.06a5.57,5.57,0,0,0,3.45.05l.71,5.15a10.06,10.06,0,0,1-7-.42C686.37,309.11,683.79,303.87,686.35,297.75Z"/><path d="M702.83,304.69c2.92-6,9.14-7.19,14.24-4.7a8.8,8.8,0,0,1,4.33,4.44L716.59,307a3.37,3.37,0,0,0-1.59-1.85c-2.3-1.13-4.51-.07-5.85,2.66s-.67,5.19,1.27,6.14a5.57,5.57,0,0,0,3.44.26l.4,5.18a10.06,10.06,0,0,1-7-.84C702.17,316,699.91,310.66,702.83,304.69Z"/><path d="M718.9,312.58c3.21-5.63,9.29-6.77,13.53-4.35,5.14,2.93,5.44,8.07,2.78,12.73a14.32,14.32,0,0,1-1.67,2.36l-9.91-5.65c-.63,2.4.5,4,2.45,5.08a8.21,8.21,0,0,0,4.14,1l-.07,4.65a13.47,13.47,0,0,1-7.47-1.59C717.6,323.9,715.61,318.35,718.9,312.58Zm12,4.09c.75-1.32.87-2.82-.94-3.85a3.17,3.17,0,0,0-4.21.92Z"/><path d="M732.61,329.33l4.87-1.86a8.56,8.56,0,0,0,3,4.36c1.2.79,1.89.77,2.33.1.57-.87-.7-2.28-1.93-4.05-1.43-2-2.75-5-.95-7.72,2.16-3.27,6.24-3.65,10.18-1a11.84,11.84,0,0,1,4.69,6.26L750,327.1a7.42,7.42,0,0,0-2.48-3.65c-1-.64-1.65-.7-2.09,0-.57.87.68,2.17,1.95,3.87,1.52,2.06,3,4.82,1,7.83s-6.13,3.91-10.8.83A13.34,13.34,0,0,1,732.61,329.33Z"/><path d="M747.47,339.18l5-1.57a8.56,8.56,0,0,0,2.71,4.53c1.15.86,1.84.88,2.32.24.62-.83-.56-2.32-1.68-4.16-1.3-2.13-2.45-5.14-.48-7.76,2.35-3.14,6.45-3.27,10.22-.44a11.84,11.84,0,0,1,4.31,6.53L765,338a7.43,7.43,0,0,0-2.26-3.79c-.93-.7-1.6-.8-2.08-.16-.62.83.54,2.21,1.71,4,1.39,2.14,2.66,5,.5,7.87s-6.35,3.54-10.83.18A13.34,13.34,0,0,1,747.47,339.18Z"/><path d="M774.23,337.4l5.3,4.39-12.76,15.4-5.3-4.39Zm3.47-4.81a3.86,3.86,0,1,1,.76,5.1A3.52,3.52,0,0,1,777.7,332.59Z"/><path d="M776,362.44l-.12-.11-1.88,1.2-3.92-3.65,19-20.38,5,4.69-4.42,4.74-2.08,2a7.36,7.36,0,0,1,5,1.89c3.46,3.22,3,8.24-1.19,12.72-4.71,5.07-10.37,5.16-13.48,2.27A6.74,6.74,0,0,1,776,362.44Zm10.13-1.61c2.24-2.4,2.46-4.05,1.11-5.3a3.34,3.34,0,0,0-3-.8l-5,5.39a3.68,3.68,0,0,0,1.22,2.45C781.65,363.66,783.51,363.65,786.13,360.83Z"/><path d="M801,361.79l4.76,5-14.44,13.83-4.76-5Zm4-4.38a3.86,3.86,0,1,1,.17,5.15A3.52,3.52,0,0,1,805,357.41Z"/><path d="M799.59,379.17l15.57-13.8,4.56,5.15-15.75,14c-1,.9-.89,1.65-.57,2a2.48,2.48,0,0,0,.54.49l-3.24,3.94a8.51,8.51,0,0,1-2.65-2.14C795,385.29,796.24,382.14,799.59,379.17Z"/><path d="M817.45,380l4.36,5.32-15.47,12.67L802,392.62Zm4.33-4.06a3.86,3.86,0,1,1-.23,5.15A3.52,3.52,0,0,1,821.78,375.89Z"/><path d="M815.74,397.45l5.58-4.16-1.58-2.12,4.11-3.06,2,2.29,4.65-2.47,3.4,4.55-4.17,3.11,2.73,3.66-4.3,3.2-2.73-3.66-5.48,4.09c-1.76,1.32-1.67,2.64-.91,3.67a5.77,5.77,0,0,0,1.31,1.22l-3.36,3.8a15.1,15.1,0,0,1-3.4-3.35C810.49,404.06,811.83,400.36,815.74,397.45Z"/><path d="M825.67,406.86c5.41-3.56,11.35-1.82,14,2.26,3.25,4.95,1.18,9.66-3.29,12.61a14.29,14.29,0,0,1-2.56,1.35l-6.27-9.52c-1.65,1.85-1.35,3.76-.12,5.64a8.2,8.2,0,0,0,3.25,2.75l-2.18,4.11a13.47,13.47,0,0,1-5.94-4.81C819.38,416.37,820.13,410.51,825.67,406.86Zm8.87,9.11c1.27-.84,2.05-2.12.91-3.86a3.17,3.17,0,0,0-4.17-1.09Zm8.57-12.15,9.76,1.15-1.26,6.38-9.46-2.87Z"/><path d="M318.52,402l-4,5.6-4.69-3.34,12-16.81,4.69,3.34-4,5.6L339,408.17l-4,5.6Z"/><path d="M328.31,389.05l3.52-4.36,3,1.79.1-.12c-1.19-2.86-.71-5.36.52-6.88a6,6,0,0,1,1.87-1.68l3.9,4.59a9.42,9.42,0,0,0-1.66,1.54c-.9,1.12-1.33,3,0,5.35l8.65,7-4.32,5.35Z"/><path d="M348.65,386.64c-3.08-2.8-2.64-6.73,1.94-12.95-1.17-.85-2.24-.63-3.42.67a10.9,10.9,0,0,0-2.15,4.86L340.09,378a16.86,16.86,0,0,1,4-8.29c3.5-3.85,7.67-4.27,12.52.14l8.23,7.48L361,381.46l-1.74-.94-.11.12a8.11,8.11,0,0,1-1.94,5.7A5.88,5.88,0,0,1,348.65,386.64Zm7-8.37-2-1.83c-1.85,2.75-1.78,4.22-1,5s1.5.5,2.3-.39A3.15,3.15,0,0,0,355.62,378.26Z"/><path d="M353.84,359.92l4.07-3.85,2,1.41.12-.11a9,9,0,0,1,2.61-6.44c3.19-3,6.73-2,10.14,1.63l8.47,8.94-5,4.73-7.87-8.3c-1.76-1.86-2.67-1.88-3.65-.95a4.16,4.16,0,0,0-1.16,3.19l9,9.52-5,4.73Z"/><path d="M381.61,358.13l-.35-5.21a8.56,8.56,0,0,0,5-1.56c1.11-.92,1.29-1.58.78-2.2-.66-.8-2.39,0-4.44.66-2.37.77-5.57,1.17-7.66-1.36-2.5-3-1.66-7,2-10a11.84,11.84,0,0,1,7.36-2.65l.25,5.08a7.43,7.43,0,0,0-4.22,1.3c-.89.74-1.15,1.37-.64,2,.66.8,2.27,0,4.28-.73,2.41-.85,5.48-1.41,7.77,1.37s1.94,7-2.37,10.57A13.34,13.34,0,0,1,381.61,358.13Z"/><path d="M386.31,331.46l4.55-3.26,1.46,1.22.13-.09a8.28,8.28,0,0,1,3.07-5.06c3.84-2.75,8.64-1.27,12.23,3.74,4,5.59,3,11.16-.47,13.63a6.27,6.27,0,0,1-4.81,1l2,2.33,3.22,4.49-5.59,4Zm15.77.71c-1.91-2.67-3.48-3.21-5-2.14a3.34,3.34,0,0,0-1.37,2.75l4.29,6a3.67,3.67,0,0,0,2.64-.71C403.95,337.12,404.31,335.29,402.07,332.17Z"/><path d="M412.55,330.42c-2.17-3.55-.65-7.2,5.48-11.89-.89-1.15-2-1.23-3.47-.31a10.9,10.9,0,0,0-3.42,4.06l-4.38-2.57a16.85,16.85,0,0,1,6.13-6.84c4.44-2.71,8.56-2,12,3.64l5.8,9.49-4.78,2.92-1.41-1.39-.14.08a8.11,8.11,0,0,1-3.46,4.93A5.88,5.88,0,0,1,412.55,330.42Zm9-6.09L420.16,322c-2.55,2.12-2.89,3.55-2.31,4.51.48.78,1.3.89,2.32.27A3.15,3.15,0,0,0,421.58,324.33Z"/><path d="M424.92,306.36l5-2.61,2,2.82.14-.07c0-3.1,1.46-5.2,3.2-6.12a5.94,5.94,0,0,1,2.38-.8l1.77,5.76a9.45,9.45,0,0,0-2.13.76c-1.27.67-2.42,2.27-2.11,4.91l5.19,9.84-6.09,3.21Z"/><path d="M443.28,308c-2.66-5.91,0-11.5,4.44-13.5,5.4-2.43,9.73.35,11.93,5.24a14.29,14.29,0,0,1,.93,2.74l-10.39,4.69c1.57,1.92,3.5,1.93,5.55,1a8.21,8.21,0,0,0,3.23-2.77l3.72,2.8A13.48,13.48,0,0,1,457,313.3C451.67,315.7,446,314,443.28,308Zm10.39-7.32c-.62-1.39-1.77-2.36-3.66-1.51a3.17,3.17,0,0,0-1.73,3.94Z"/><path d="M460.29,289.53l5.26-1.92,1.27,2.09.15-.06a9,9,0,0,1,5-4.87c4.13-1.51,7,.87,8.66,5.53l4.22,11.58-6.46,2.36-3.92-10.75c-.88-2.41-1.7-2.79-3-2.32s-1.69,1.21-2.34,2.47L473.6,306l-6.46,2.36Z"/><path d="M484.89,291.4c-1.83-6.38,2-11.46,7.42-13a8.8,8.8,0,0,1,6.19.39l-1.86,5.11a3.37,3.37,0,0,0-2.42-.31c-2.46.71-3.39,3-2.56,5.89s3,4.31,5.06,3.71a5.57,5.57,0,0,0,2.72-2.11l3.77,3.58a10.06,10.06,0,0,1-5.74,4.06C492,300.26,486.72,297.78,484.89,291.4Z"/><path d="M502.1,286.48c-1.39-6.33,2.36-11.25,7.13-12.3,5.78-1.27,9.45,2.35,10.59,7.59a14.32,14.32,0,0,1,.34,2.87L509,287.09c1.14,2.21,3,2.61,5.22,2.13a8.21,8.21,0,0,0,3.73-2l3.06,3.51a13.47,13.47,0,0,1-6.61,3.83C508.73,295.76,503.53,293,502.1,286.48Zm11.68-5c-.33-1.48-1.24-2.68-3.27-2.23a3.17,3.17,0,0,0-2.51,3.5Z"/><path d="M325.66,780.28l-10.22-13.54,4.6-3.47,6.07,8,4-3-5.2-6.9,4.6-3.47,5.2,6.9,7.6-5.73,4.14,5.49Z"/><path d="M313,762.87a3.86,3.86,0,1,1,.71-5.11A3.52,3.52,0,0,1,313,762.87Zm4.69-3.63-3.84-5.71,16.6-11.15,3.84,5.71Z"/><path d="M310.79,749l-2.85-4.82,1.82-1.63-.08-.14a9,9,0,0,1-5.7-4c-2.24-3.79-.42-7,3.85-9.52l10.61-6.27,3.5,5.92-9.85,5.82c-2.2,1.3-2.43,2.18-1.74,3.35a4.16,4.16,0,0,0,2.86,1.84l11.3-6.68,3.5,5.92Z"/><path d="M311.84,722.37c-3.73,1.84-7.23,0-11.35-6.53-1.22.78-1.4,1.85-.62,3.43a10.9,10.9,0,0,0,3.74,3.77l-3,4.14a16.86,16.86,0,0,1-6.27-6.72c-2.3-4.66-1.18-8.7,4.7-11.61l10-4.93,2.48,5L310,710.23l.07.14a8.11,8.11,0,0,1,4.6,3.88A5.88,5.88,0,0,1,311.84,722.37Zm-5.25-9.54L304.14,714c1.88,2.73,3.28,3.2,4.28,2.7.82-.41,1-1.21.48-2.29A3.15,3.15,0,0,0,306.58,712.83Z"/><path d="M288.85,707.79l-2.1-5.19,2-1.34-.06-.15a9,9,0,0,1-5-4.78c-1.65-4.08.63-7,5.22-8.84l11.42-4.62,2.58,6.38-10.6,4.29c-2.37,1-2.73,1.79-2.22,3.05a4.16,4.16,0,0,0,2.55,2.25l12.16-4.92,2.58,6.38Z"/><path d="M289.85,683.14c-6.32,2-11.53-1.56-13.28-7a8.8,8.8,0,0,1,.18-6.2l5.17,1.69a3.36,3.36,0,0,0-.22,2.43c.79,2.44,3.09,3.29,6,2.35s4.2-3.13,3.53-5.18a5.57,5.57,0,0,0-2.21-2.65l3.45-3.89a10.06,10.06,0,0,1,4.26,5.6C298.47,675.72,296.17,681.09,289.85,683.14Z"/><path d="M284.35,666.12c-6.28,1.61-11.33-2-12.54-6.7-1.47-5.74,2-9.52,7.21-10.85a14.26,14.26,0,0,1,2.86-.44l2.83,11c2.17-1.22,2.5-3.12,1.95-5.29a8.22,8.22,0,0,0-2.18-3.66l3.4-3.18a13.48,13.48,0,0,1,4.06,6.48C293.39,659.18,290.78,664.47,284.35,666.12Zm-5.42-11.5c-1.47.38-2.63,1.33-2.12,3.35a3.17,3.17,0,0,0,3.58,2.39Z"/><path d="M268.82,646l-.88-5.53,2.33-.86,0-.16c-1.79-1.33-3.4-2.78-3.82-5.47a5.66,5.66,0,0,1,2.29-6c-1.92-1.36-3.7-2.9-4.13-5.58-.69-4.35,2.17-6.74,7.07-7.52L283.83,613l1.08,6.79-11.3,1.79c-2.53.4-3.06,1.13-2.85,2.48a4.27,4.27,0,0,0,1.94,2.53l13-2.06,1.08,6.79-11.3,1.79c-2.53.4-3.06,1.13-2.85,2.48a4.27,4.27,0,0,0,1.94,2.53l13-2.06,1.08,6.79Z"/><path d="M273.81,610.77c-6.47.42-10.77-4-11.08-8.9-.39-5.91,3.74-9,9.09-9.33a14.29,14.29,0,0,1,2.89.09l.74,11.38c2.35-.8,3-2.6,2.89-4.84a8.22,8.22,0,0,0-1.46-4l3.93-2.5a13.47,13.47,0,0,1,2.79,7.11C284,605.62,280.43,610.34,273.81,610.77Zm-3.21-12.3c-1.52.1-2.83.83-2.7,2.9a3.17,3.17,0,0,0,3.08,3Z"/><path d="M262.49,588.38l0-5.6,2.4-.46v-.16a9,9,0,0,1-2.83-6.34c0-4.4,3.25-6.22,8.21-6.18l12.32.09-.05,6.88-11.44-.09c-2.56,0-3.21.62-3.22,2a4.16,4.16,0,0,0,1.5,3.05l13.12.1-.05,6.88Z"/><path d="M275.32,564.26l-6.94-.5-.19,2.63-5.11-.37,0-3-5.13-1.17.41-5.67,5.19.37.33-4.55,5.35.38-.33,4.55,6.82.49c2.19.16,3-.91,3.08-2.18a5.76,5.76,0,0,0-.19-1.78l5-.68a15.11,15.11,0,0,1,.38,4.76C283.61,562.7,280.18,564.62,275.32,564.26Z"/><path d="M701,876.68l-6.89,2.59-7.41-8.58c-1-1.18-1.89-2.54-2.88-3.79l-.15.06c.08,1.59.27,3.23.33,4.75L684.2,883l-6.89,2.59-9.14-24.34L674,859l2.7,7.19a89.94,89.94,0,0,1,2.44,9l.15-.06-.17-6.6,0-9.18,3.44-1.29,6,6.93,4.14,5.11.15-.06a90,90,0,0,1-4.09-8.38l-2.7-7.19,5.77-2.17Z"/><path d="M669.27,881.61l-6.6,2L657,864.39l6.6-2Zm2.07,5.56a3.86,3.86,0,1,1-4.66-2.21A3.52,3.52,0,0,1,671.33,887.18Z"/><path d="M655,867.46l-2,4.84a8.56,8.56,0,0,0-5.21-.79c-1.4.34-1.85.86-1.66,1.64.25,1,2.15,1,4.28,1.35,2.47.34,5.52,1.37,6.3,4.56.93,3.81-1.58,7.05-6.16,8.17a11.84,11.84,0,0,1-7.78-.82l2-4.68a7.43,7.43,0,0,0,4.36.67c1.13-.27,1.63-.73,1.44-1.5-.25-1-2.05-1-4.16-1.21-2.54-.29-5.54-1.12-6.39-4.62-.89-3.65,1.31-7.15,6.75-8.48A13.34,13.34,0,0,1,655,867.46Z"/><path d="M638.41,879.34c1.12,6.38-2.84,11.14-7.65,12-5.83,1-9.33-2.75-10.26-8a14.27,14.27,0,0,1-.22-2.88l11.23-2c-1-2.25-2.92-2.74-5.12-2.35a8.21,8.21,0,0,0-3.81,1.89l-2.91-3.63a13.47,13.47,0,0,1,6.77-3.54C632.19,869.79,637.27,872.8,638.41,879.34Zm-11.88,4.52c.26,1.5,1.13,2.73,3.18,2.37a3.17,3.17,0,0,0,2.66-3.39Z"/><path d="M609.39,883.88c.5,6.46-3.9,10.81-8.77,11.19-5.9.45-9-3.64-9.44-9a14.31,14.31,0,0,1,.06-2.89l11.37-.87c-.82-2.34-2.64-3-4.87-2.83a8.21,8.21,0,0,0-4,1.51l-2.55-3.9a13.48,13.48,0,0,1,7.08-2.87C604.12,873.78,608.88,877.26,609.39,883.88Zm-12.26,3.35c.12,1.52.86,2.82,2.93,2.66a3.17,3.17,0,0,0,3-3.12Z"/><path d="M587.18,895.44l-5.6,0-.5-2.4h-.16a9,9,0,0,1-6.3,2.92c-4.4,0-6.26-3.16-6.29-8.12l-.08-12.32,6.88,0,.07,11.44c0,2.56.66,3.2,2,3.19a4.16,4.16,0,0,0,3-1.54l-.09-13.12,6.88,0Z"/><path d="M554.51,894.87l-5.57-.55-.3-1.88-.16,0a8.28,8.28,0,0,1-5.64,1.77c-4.7-.46-7.33-4.75-6.72-10.87.68-6.85,5.12-10.35,9.34-9.93a6.28,6.28,0,0,1,4.26,2.43l.06-3,.54-5.49,6.85.68Zm-11.38-10.93c-.32,3.26.5,4.71,2.33,4.89a3.35,3.35,0,0,0,2.85-1.17l.72-7.33a3.67,3.67,0,0,0-2.45-1.21C545,879,543.5,880.11,543.13,883.94Z"/><path d="M532.68,879.38l-3.25,20.54-6.79-1.08,3.29-20.78c.21-1.34-.36-1.84-.83-1.91a2.47,2.47,0,0,0-.72,0V871a8.5,8.5,0,0,1,3.41,0C532.36,871.71,533.38,875,532.68,879.38Z"/><path d="M522,876.36c-.88,4.07-4.5,5.66-12.18,4.82-.15,1.44.58,2.25,2.3,2.63a10.9,10.9,0,0,0,5.28-.58l1.4,4.89a16.86,16.86,0,0,1-9.16.72c-5.08-1.1-7.54-4.5-6.16-10.91L505.81,867l5.48,1.18.06,2,.16,0a8.12,8.12,0,0,1,5.9-1.18A5.88,5.88,0,0,1,522,876.36Zm-10.74-1.83-.57,2.66c3.31.22,4.54-.57,4.78-1.67.19-.9-.32-1.54-1.49-1.8A3.15,3.15,0,0,0,511.23,874.53Z"/><path d="M500.13,875.91c-1.84,6.38-7.75,8.67-13.2,7.1a8.8,8.8,0,0,1-5-3.62l4.29-3.34a3.37,3.37,0,0,0,1.89,1.54c2.46.71,4.45-.71,5.29-3.64s-.24-5.23-2.32-5.83a5.57,5.57,0,0,0-3.43.34l-1.3-5a10.06,10.06,0,0,1,7-.39C498.8,864.62,502,869.53,500.13,875.91Z"/><path d="M482.93,870.95c-2.18,6.1-8,8.28-12.57,6.64-5.58-2-6.76-7-5-12.05a14.31,14.31,0,0,1,1.23-2.62l10.74,3.84c.2-2.48-1.18-3.82-3.29-4.58a8.2,8.2,0,0,0-4.25-.24l-.74-4.6a13.48,13.48,0,0,1,7.64.26C482.24,859.57,485.16,864.69,482.93,870.95ZM470.37,869c-.51,1.43-.37,2.93,1.59,3.63a3.17,3.17,0,0,0,4-1.64Z"/><path d="M895.05,614.52,893.81,624c-.74,5.63-3.44,10.2-9.95,9.34-6.31-.83-8.39-6.11-7.68-11.5l.37-2.78-8.17-1.08.9-6.82Zm-13.44,7.67c-.36,2.7.83,4.14,3.13,4.45s3.37-1.09,3.72-3.71l.3-2.3-6.82-.9Z"/><path d="M876.17,634.44c6.5,1.36,9.27,6.85,8.22,11.86s-5.79,8.92-12.29,7.56S862.83,647,863.88,642,869.67,633.08,876.17,634.44ZM873.55,647c3,.62,5,.23,5.45-1.8s-1.29-3.21-4.26-3.84-5-.23-5.45,1.8S870.57,646.35,873.55,647Z"/><path d="M880.71,660.23l-1.51,5.39-3.44-.46,0,.15c2.22,2.16,2.78,4.64,2.25,6.53a5.94,5.94,0,0,1-1.05,2.28l-5.4-2.67a9.47,9.47,0,0,0,.91-2.07c.39-1.39,0-3.32-2.12-4.91l-10.71-3,1.85-6.63Z"/><path d="M863.92,673.86l6.59,2.24.85-2.5,4.85,1.64-.75,3,4.67,2.43L878.3,686l-4.93-1.67-1.46,4.32-5.08-1.72,1.46-4.32-6.48-2.2c-2.08-.71-3.13.12-3.54,1.34a5.77,5.77,0,0,0-.26,1.77l-5-.61a15.13,15.13,0,0,1,.83-4.7C855.49,673.28,859.29,672.29,863.92,673.86Z"/><path d="M861.79,687.39c6,2.44,7.93,8.32,6.09,12.84-2.23,5.48-7.29,6.45-12.25,4.43a14.32,14.32,0,0,1-2.56-1.34l4.3-10.56c-2.46-.31-3.87,1-4.71,3.09a8.21,8.21,0,0,0-.43,4.23l-4.62.54a13.47,13.47,0,0,1,.59-7.62C850.4,687.59,855.64,684.89,861.79,687.39Zm-2.48,12.46c1.41.57,2.91.49,3.69-1.43a3.17,3.17,0,0,0-1.46-4Zm14.87.18,4.58,8.69-6,2.58-3-9.42Z"/><path d="M853.69,707.06c5.82,2.86,7.33,8.86,5.17,13.24-2.61,5.31-7.72,5.92-12.53,3.56a14.32,14.32,0,0,1-2.46-1.52l5-10.23c-2.44-.48-3.93.74-4.92,2.75a8.21,8.21,0,0,0-.72,4.19l-4.65.21a13.47,13.47,0,0,1,1.13-7.56C842.3,706.46,847.73,704.14,853.69,707.06Zm-3.35,12.26c1.36.67,2.87.7,3.78-1.17a3.17,3.17,0,0,0-1.17-4.14Z"/></g><g id="Calque_2-2" data-name="Calque 2"><path d="M479.85,420.13h7.74v27.79h13.58v6.53H479.85Z"/><path d="M504.22,441.39c0-8.47,6.05-13.68,12.31-13.68,7.42,0,11.1,5.42,11.1,12.53a17.12,17.12,0,0,1-.32,3.42H511.69c.68,3.79,3.32,5.53,6.79,5.53a10.51,10.51,0,0,0,5.63-1.74l2.58,4.68a17.08,17.08,0,0,1-9.26,2.95C510,455.07,504.22,450,504.22,441.39Zm16.84-2.84c0-2.89-1.26-4.95-4.37-4.95-2.42,0-4.53,1.63-5.05,4.95Z"/><path d="M530.69,451.44l3.47-4.84c2.37,1.79,4.53,2.74,6.74,2.74s3.32-.84,3.32-2.21c0-1.74-2.63-2.53-5.32-3.58-3.16-1.21-6.89-3.37-6.89-7.68,0-4.84,3.95-8.16,10-8.16a15,15,0,0,1,9.21,3.32l-3.47,4.63a9.63,9.63,0,0,0-5.53-2.21c-2,0-2.95.74-2.95,2.05,0,1.68,2.42,2.32,5.1,3.32,3.32,1.21,7.05,3.05,7.05,7.84s-3.74,8.42-10.74,8.42A16.85,16.85,0,0,1,530.69,451.44Z"/><path d="M565.85,437.5c0-11.37,7.53-18,16.21-18A14.51,14.51,0,0,1,592.37,424l-4.1,4.95a8.77,8.77,0,0,0-6.05-2.74c-4.68,0-8.42,4.16-8.42,11.05,0,7.05,3.26,11.16,8.31,11.16a9.15,9.15,0,0,0,6.68-3.21l4.1,4.84a14.12,14.12,0,0,1-11.1,5.05C573.11,455.07,565.85,449,565.85,437.5Z"/><path d="M596.85,420.45c0-2.37,1.9-4,4.47-4s4.47,1.63,4.47,4-1.84,4.05-4.47,4.05S596.85,422.81,596.85,420.45Zm.63,7.89h7.74v26.1h-7.74Z"/><path d="M609.22,428.34H617l3.37,12.31c.68,2.58,1.37,5.32,2.05,8.05h.21c.63-2.74,1.32-5.47,2-8.05l3.42-12.31h7.42L627,454.44H618Z"/><path d="M638.9,420.45c0-2.37,1.9-4,4.47-4s4.47,1.63,4.47,4-1.84,4.05-4.47,4.05S638.9,422.81,638.9,420.45Zm.63,7.89h7.74v26.1h-7.74Z"/><path d="M652.53,441.39c0-8.68,6.37-13.68,13.58-13.68a11.52,11.52,0,0,1,7.63,2.79l-3.63,5a5.34,5.34,0,0,0-3.53-1.53c-3.74,0-6.1,2.89-6.1,7.42s2.47,7.42,5.84,7.42a8,8,0,0,0,4.68-1.89l3.05,5.05a13,13,0,0,1-8.63,3.1C658.16,455.07,652.53,450.07,652.53,441.39Z"/><path d="M521,489.81h-9.42v-6.53h26.63v6.53H528.8V517.6H521Z"/><path d="M537.43,504.55c0-8.47,6.05-13.68,12.31-13.68,7.42,0,11.1,5.42,11.1,12.53a17.12,17.12,0,0,1-.32,3.42H544.9c.68,3.79,3.32,5.53,6.79,5.53a10.51,10.51,0,0,0,5.63-1.74l2.58,4.68a17.08,17.08,0,0,1-9.26,2.95C543.17,518.23,537.43,513.18,537.43,504.55Zm16.84-2.84c0-2.89-1.26-4.95-4.37-4.95-2.42,0-4.53,1.63-5.05,4.95Z"/><path d="M564.69,504.55c0-8.68,6.37-13.68,13.58-13.68a11.52,11.52,0,0,1,7.63,2.79l-3.63,5a5.34,5.34,0,0,0-3.53-1.53c-3.74,0-6.1,2.89-6.1,7.42s2.47,7.42,5.84,7.42a8,8,0,0,0,4.68-1.89l3.05,5.05a13,13,0,0,1-8.63,3.11C570.32,518.23,564.69,513.23,564.69,504.55Z"/><path d="M590.8,480.71h7.74v9.05l-.37,4.68c1.95-1.74,4.53-3.58,8.05-3.58,5.68,0,8.1,4,8.1,10.53V517.6h-7.74V502.39c0-3.79-1-4.95-3.21-4.95-1.95,0-3.16.89-4.84,2.53V517.6H590.8Z"/><path d="M618.53,514.6l3.47-4.84c2.37,1.79,4.53,2.74,6.74,2.74s3.32-.84,3.32-2.21c0-1.74-2.63-2.53-5.32-3.58-3.16-1.21-6.89-3.37-6.89-7.68,0-4.84,3.95-8.16,10-8.16a15,15,0,0,1,9.21,3.32l-3.47,4.63a9.63,9.63,0,0,0-5.53-2.21c-2,0-2.95.74-2.95,2.05,0,1.68,2.42,2.32,5.1,3.32,3.32,1.21,7.05,3.05,7.05,7.84s-3.74,8.42-10.74,8.42A16.85,16.85,0,0,1,618.53,514.6Z"/><path d="M421.19,554.66h6.32l.53,2.58h.21a11.47,11.47,0,0,1,7.42-3.21c6.31,0,10.21,5.21,10.21,13.26,0,8.95-5.37,14.1-11,14.1a9,9,0,0,1-6.21-2.74l.26,4.16v7.63h-7.74Zm16.74,12.74c0-4.68-1.42-7.05-4.53-7.05-1.58,0-2.95.74-4.47,2.37v10.68a6,6,0,0,0,4.16,1.68C435.77,575.08,437.93,572.76,437.93,567.39Z"/><path d="M449.83,567.71c0-8.47,6.05-13.68,12.31-13.68,7.42,0,11.1,5.42,11.1,12.53a17.1,17.1,0,0,1-.32,3.42H457.3c.68,3.79,3.32,5.53,6.79,5.53a10.52,10.52,0,0,0,5.63-1.74l2.58,4.68a17.08,17.08,0,0,1-9.26,2.95C455.56,581.39,449.83,576.34,449.83,567.71Zm16.84-2.84c0-2.89-1.26-4.95-4.37-4.95-2.42,0-4.53,1.63-5.05,4.95Z"/><path d="M478.35,570.87V554.66h7.74v15.21c0,3.74,1,4.95,3.26,4.95,1.95,0,3.1-.84,4.63-2.89V554.66h7.74v26.1H495.4l-.58-3.63h-.16c-2.21,2.63-4.63,4.26-8.21,4.26C480.77,581.39,478.35,577.39,478.35,570.87Z"/><path d="M505.72,554.66h7.79L516.88,567c.68,2.58,1.37,5.32,2.05,8.05h.21c.63-2.74,1.32-5.47,2-8.05l3.42-12.32H532l-8.53,26.1h-8.95Z"/><path d="M534.09,567.71c0-8.47,6.05-13.68,12.31-13.68,7.42,0,11.1,5.42,11.1,12.53a17.1,17.1,0,0,1-.32,3.42H541.56c.68,3.79,3.32,5.53,6.79,5.53a10.52,10.52,0,0,0,5.63-1.74l2.58,4.68a17.08,17.08,0,0,1-9.26,2.95C539.82,581.39,534.09,576.34,534.09,567.71Zm16.84-2.84c0-2.89-1.26-4.95-4.37-4.95-2.42,0-4.53,1.63-5.05,4.95Z"/><path d="M562.88,554.66h6.32l.53,3.32h.21c2.21-2.1,4.84-3.95,8.37-3.95,5.68,0,8.1,4,8.1,10.53v16.21h-7.74V565.55c0-3.79-1-4.95-3.21-4.95-1.95,0-3.16.89-4.84,2.53v17.63h-7.74Z"/><path d="M594,571.29V560.71h-3.58V555l4-.32.89-6.95h6.42v6.95H608v6.05h-6.26v10.47c0,2.95,1.32,4.16,3.37,4.16a7.38,7.38,0,0,0,2.47-.53l1.21,5.63a18.8,18.8,0,0,1-5.79.95C596.56,581.39,594,577.34,594,571.29Z"/><path d="M610.09,564.71H623v5.47H610.09Z"/><path d="M627.19,567.71c0-8.47,6.05-13.68,12.31-13.68,7.42,0,11.1,5.42,11.1,12.53a17.1,17.1,0,0,1-.32,3.42H634.67c.68,3.79,3.32,5.53,6.79,5.53a10.52,10.52,0,0,0,5.63-1.74l2.58,4.68a17.08,17.08,0,0,1-9.26,2.95C632.93,581.39,627.19,576.34,627.19,567.71ZM644,564.87c0-2.89-1.26-4.95-4.37-4.95-2.42,0-4.53,1.63-5.05,4.95Z"/><path d="M656,572.65V543.87h7.74V573c0,1.63.74,2.16,1.37,2.16A3.24,3.24,0,0,0,666,575l.95,5.74a10.09,10.09,0,0,1-3.89.63C657.77,581.39,656,577.92,656,572.65Z"/><path d="M671,572.65V543.87h7.74V573c0,1.63.74,2.16,1.37,2.16a3.24,3.24,0,0,0,.95-.11l.95,5.74a10.09,10.09,0,0,1-3.89.63C672.82,581.39,671,577.92,671,572.65Z"/><path d="M684.56,567.71c0-8.47,6.05-13.68,12.31-13.68,7.42,0,11.1,5.42,11.1,12.53a17.1,17.1,0,0,1-.32,3.42H692c.68,3.79,3.32,5.53,6.79,5.53a10.52,10.52,0,0,0,5.63-1.74l2.58,4.68a17.08,17.08,0,0,1-9.26,2.95C690.3,581.39,684.56,576.34,684.56,567.71Zm16.84-2.84c0-2.89-1.26-4.95-4.37-4.95-2.42,0-4.53,1.63-5.05,4.95Z"/><path d="M711,577.76l3.47-4.84c2.37,1.79,4.53,2.74,6.74,2.74s3.32-.84,3.32-2.21c0-1.74-2.63-2.53-5.32-3.58-3.16-1.21-6.89-3.37-6.89-7.68,0-4.84,3.95-8.16,10-8.16a15,15,0,0,1,9.21,3.32L728.08,562a9.63,9.63,0,0,0-5.53-2.21c-2,0-2.95.74-2.95,2.05,0,1.68,2.42,2.32,5.1,3.32,3.32,1.21,7.05,3.05,7.05,7.84S728,581.39,721,581.39A16.85,16.85,0,0,1,711,577.76Z"/><path d="M465.46,617.81h6.32l.53,4.58h.21c1.9-3.53,4.74-5.21,7.42-5.21a7.51,7.51,0,0,1,3.1.53l-1.26,6.68a9.73,9.73,0,0,0-2.84-.42c-1.95,0-4.37,1.26-5.74,4.79v15.16h-7.74Z"/><path d="M484.35,630.86c0-8.47,6.05-13.68,12.31-13.68,7.42,0,11.1,5.42,11.1,12.53a17.1,17.1,0,0,1-.32,3.42H491.82c.68,3.79,3.32,5.53,6.79,5.53a10.52,10.52,0,0,0,5.63-1.74l2.58,4.68a17.08,17.08,0,0,1-9.26,2.95C490.09,644.55,484.35,639.5,484.35,630.86ZM501.19,628c0-2.89-1.26-4.95-4.37-4.95-2.42,0-4.53,1.63-5.05,4.95Zm-7.79-18,8.1-9.58,5.21,5.11-9.53,8.26Z"/><path d="M513.14,617.81h6.32l.53,2.58h.21a11.47,11.47,0,0,1,7.42-3.21c6.31,0,10.21,5.21,10.21,13.26,0,8.95-5.37,14.1-11,14.1a9,9,0,0,1-6.21-2.74l.26,4.16v7.63h-7.74Zm16.74,12.74c0-4.68-1.42-7.05-4.53-7.05-1.58,0-2.95.74-4.47,2.37v10.68a6,6,0,0,0,4.16,1.68C527.72,638.23,529.88,635.92,529.88,630.55Z"/><path d="M541.51,636.65c0-5.47,4.37-8.47,14.68-9.53-.16-2.32-1.26-3.79-4.1-3.79-2.21,0-4.37.89-6.89,2.37l-2.79-5.11a21.58,21.58,0,0,1,11.16-3.42c6.68,0,10.37,3.79,10.37,11.79v14.95h-6.32l-.53-2.68h-.21c-2.21,1.95-4.63,3.32-7.58,3.32A7.51,7.51,0,0,1,541.51,636.65Zm14.68-.32v-4.58c-5.47.74-7.26,2.32-7.26,4.32,0,1.68,1.16,2.47,3,2.47S554.82,637.71,556.19,636.34Z"/><path d="M570.46,617.81h6.32l.53,4.58h.21c1.9-3.53,4.74-5.21,7.42-5.21a7.51,7.51,0,0,1,3.1.53l-1.26,6.68a9.73,9.73,0,0,0-2.84-.42c-1.95,0-4.37,1.26-5.74,4.79v15.16h-7.74Z"/><path d="M589.35,630.86c0-8.47,6.05-13.68,12.31-13.68,7.42,0,11.1,5.42,11.1,12.53a17.1,17.1,0,0,1-.32,3.42H596.82c.68,3.79,3.32,5.53,6.79,5.53a10.52,10.52,0,0,0,5.63-1.74l2.58,4.68a17.08,17.08,0,0,1-9.26,2.95C595.09,644.55,589.35,639.5,589.35,630.86ZM606.19,628c0-2.89-1.26-4.95-4.37-4.95-2.42,0-4.53,1.63-5.05,4.95Z"/><path d="M618.14,617.81h6.32l.53,4.58h.21c1.9-3.53,4.74-5.21,7.42-5.21a7.51,7.51,0,0,1,3.1.53l-1.26,6.68a9.73,9.73,0,0,0-2.84-.42c-1.95,0-4.37,1.26-5.74,4.79v15.16h-7.74Z"/><path d="M649.61,635.81V607h7.74v29.1c0,1.63.74,2.16,1.37,2.16a3.24,3.24,0,0,0,.95-.11l.95,5.74a10.09,10.09,0,0,1-3.89.63C651.4,644.55,649.61,641.07,649.61,635.81Z"/><path d="M663.46,636.65c0-5.47,4.37-8.47,14.68-9.53-.16-2.32-1.26-3.79-4.1-3.79-2.21,0-4.37.89-6.89,2.37l-2.79-5.11a21.58,21.58,0,0,1,11.16-3.42c6.68,0,10.37,3.79,10.37,11.79v14.95h-6.32l-.53-2.68h-.21c-2.21,1.95-4.63,3.32-7.58,3.32A7.51,7.51,0,0,1,663.46,636.65Zm14.68-.32v-4.58c-5.47.74-7.26,2.32-7.26,4.32,0,1.68,1.16,2.47,3,2.47S676.77,637.71,678.14,636.34Z"/><path d="M427.85,694c0-8.53,5.32-13.68,10.84-13.68a8.55,8.55,0,0,1,6.42,2.74l-.32-4v-8.89h7.74v36.89h-6.32l-.53-2.58h-.21a10.33,10.33,0,0,1-6.95,3.21C432.06,707.71,427.85,702.55,427.85,694Zm16.95,5V688.34a6.18,6.18,0,0,0-4.32-1.68c-2.47,0-4.68,2.32-4.68,7.26,0,5.16,1.74,7.47,4.74,7.47A4.9,4.9,0,0,0,444.8,699Z"/><path d="M457.85,694c0-8.47,6.05-13.68,12.31-13.68,7.42,0,11.1,5.42,11.1,12.53a17.1,17.1,0,0,1-.32,3.42H465.32c.68,3.79,3.32,5.53,6.79,5.53a10.52,10.52,0,0,0,5.63-1.74l2.58,4.68a17.08,17.08,0,0,1-9.26,2.95C463.59,707.71,457.85,702.65,457.85,694Zm16.84-2.84c0-2.89-1.26-4.95-4.37-4.95-2.42,0-4.53,1.63-5.05,4.95Zm-7.79-18,8.1-9.58,5.21,5.11L470.69,677Z"/><path d="M486.64,681H493l.53,3.37h.21c2.16-2.16,4.47-4,7.89-4,3.68,0,5.89,1.58,7.21,4.37,2.32-2.37,4.74-4.37,8.21-4.37,5.63,0,8.16,4,8.16,10.53v16.21h-7.74V691.87c0-3.79-1-4.95-3.21-4.95-1.32,0-2.79.84-4.47,2.53v17.63H502V691.87c0-3.79-1-4.95-3.21-4.95-1.26,0-2.79.84-4.42,2.53v17.63h-7.74Z"/><path d="M530.22,694c0-8.68,6.1-13.68,12.74-13.68s12.68,5,12.68,13.68-6.1,13.68-12.68,13.68S530.22,702.71,530.22,694Zm17.52,0c0-4.53-1.63-7.42-4.79-7.42s-4.79,2.89-4.79,7.42,1.58,7.42,4.79,7.42S547.74,698.55,547.74,694Z"/><path d="M559.43,694c0-8.68,6.37-13.68,13.58-13.68a11.52,11.52,0,0,1,7.63,2.79l-3.63,5a5.35,5.35,0,0,0-3.53-1.53c-3.74,0-6.1,2.89-6.1,7.42s2.47,7.42,5.84,7.42a8,8,0,0,0,4.68-1.89L581,704.6a13,13,0,0,1-8.63,3.11C565.06,707.71,559.43,702.71,559.43,694Z"/><path d="M585.53,681h6.32l.53,4.58h.21c1.9-3.53,4.74-5.21,7.42-5.21a7.51,7.51,0,0,1,3.1.53l-1.26,6.68a9.73,9.73,0,0,0-2.84-.42c-1.95,0-4.37,1.26-5.74,4.79v15.16h-7.74Z"/><path d="M603.8,699.81c0-5.47,4.37-8.47,14.68-9.53-.16-2.32-1.26-3.79-4.1-3.79-2.21,0-4.37.89-6.89,2.37l-2.79-5.11a21.58,21.58,0,0,1,11.16-3.42c6.68,0,10.37,3.79,10.37,11.79v14.95H619.9l-.53-2.68h-.21c-2.21,1.95-4.63,3.32-7.58,3.32A7.51,7.51,0,0,1,603.8,699.81Zm14.68-.32v-4.58c-5.47.74-7.26,2.32-7.26,4.32,0,1.68,1.16,2.47,3,2.47S617.11,700.86,618.48,699.5Z"/><path d="M632.85,697.6V687h-3.58v-5.74l4-.32.89-6.95h6.42V681h6.26V687h-6.26V697.5c0,2.95,1.32,4.16,3.37,4.16a7.38,7.38,0,0,0,2.47-.53l1.21,5.63a18.8,18.8,0,0,1-5.79.95C635.38,707.71,632.85,703.65,632.85,697.6Z"/><path d="M651.32,673.08c0-2.37,1.9-4,4.47-4s4.47,1.63,4.47,4-1.84,4.05-4.47,4.05S651.32,675.45,651.32,673.08ZM652,681h7.74v26.1H652Z"/><path d="M665,694c0-8.47,6.05-13.68,12.31-13.68,7.42,0,11.1,5.42,11.1,12.53a17.1,17.1,0,0,1-.32,3.42H672.43c.68,3.79,3.32,5.53,6.79,5.53a10.52,10.52,0,0,0,5.63-1.74l2.58,4.68a17.08,17.08,0,0,1-9.26,2.95C670.69,707.71,665,702.65,665,694Zm16.84-2.84c0-2.89-1.26-4.95-4.37-4.95-2.42,0-4.53,1.63-5.05,4.95Z"/><path d="M715.58,680.76c0-2.16-1.42-3.32-3.53-3.32-1.95,0-3.37,1-4.79,2.42L703,676a13.26,13.26,0,0,1,10.05-4.79c5.63,0,9.95,2.79,9.95,9,0,6.53-7.89,8.47-7.26,14.74H709C707.9,687.71,715.58,684.71,715.58,680.76Zm-7.89,22.1a4.66,4.66,0,1,1,4.63,4.84A4.64,4.64,0,0,1,707.69,702.86Z"/></g></g></svg>