<svg xmlns:dc="http://purl.org/dc/elements/1.1/" xmlns:cc="http://creativecommons.org/ns#" xmlns:rdf="http://www.w3.org/1999/02/22-rdf-syntax-ns#" xmlns:svg="http://www.w3.org/2000/svg" xmlns="http://www.w3.org/2000/svg" xmlns:sodipodi="http://sodipodi.sourceforge.net/DTD/sodipodi-0.dtd" xmlns:inkscape="http://www.inkscape.org/namespaces/inkscape" version="1.1" x="0px" y="0px" viewBox="0 0 100 125"><g transform="translate(0,-952.36218)"><path d="m 50.000002,1042.3622 c -22.067701,0 -40,-17.9323 -40,-40 0,-22.06772 17.932299,-40.00002 40,-40.00002 22.067697,0 39.999997,17.9323 39.999997,40.00002 0,22.0677 -17.9323,40 -39.999998,40 z m 0,-4 c 19.905997,0 35.999997,-16.0941 35.999997,-36 0,-19.90602 -16.094,-36.00002 -35.999998,-36.00002 -19.9059,0 -36,16.094 -36,36.00002 0,19.9059 16.0941,36 36,36 z m 0,-12 c -1.104601,0 -2,-0.8954 -2,-2 l 0,-36.00002 c 0,-1.1046 0.895399,-2 2,-2 1.1046,0 2,0.8954 2,2 l 0,36.00002 c 0,1.1046 -0.8954,2 -2,2 z m 0,-42.00002 c -1.6569,0 -3,-1.3431 -3,-3 0,-1.6569 1.3431,-3 3,-3 1.656899,0 3,1.3431 3,3 0,1.6569 -1.343101,3 -3,3 z" style="text-indent:0;text-transform:none;direction:ltr;block-progression:tb;baseline-shift:baseline;color:#000000;enable-background:accumulate;" fill="#000000" fill-opacity="1" stroke="none" marker="none" visibility="visible" display="inline" overflow="visible"/></g><text x="0" y="115" fill="#000000" font-size="5px" font-weight="bold" font-family="'Helvetica Neue', Helvetica, Arial-Unicode, Arial, Sans-serif">Created by unlimicon</text><text x="0" y="120" fill="#000000" font-size="5px" font-weight="bold" font-family="'Helvetica Neue', Helvetica, Arial-Unicode, Arial, Sans-serif">from the Noun Project</text></svg>