<svg xmlns:dc="http://purl.org/dc/elements/1.1/" xmlns:cc="http://creativecommons.org/ns#" xmlns:rdf="http://www.w3.org/1999/02/22-rdf-syntax-ns#" xmlns:svg="http://www.w3.org/2000/svg" xmlns="http://www.w3.org/2000/svg" xmlns:sodipodi="http://sodipodi.sourceforge.net/DTD/sodipodi-0.dtd" xmlns:inkscape="http://www.inkscape.org/namespaces/inkscape" version="1.1" x="0px" y="0px" viewBox="0 0 100 125"><g transform="translate(0,-952.36218)"><path style="font-size:medium;font-style:normal;font-variant:normal;font-weight:normal;font-stretch:normal;text-indent:0;text-align:start;text-decoration:none;line-height:normal;letter-spacing:normal;word-spacing:normal;text-transform:none;direction:ltr;block-progression:tb;writing-mode:lr-tb;text-anchor:start;baseline-shift:baseline;opacity:1;color:#000000;fill:#000000;fill-opacity:1;stroke:none;stroke-width:2;marker:none;visibility:visible;display:inline;overflow:visible;enable-background:accumulate;font-family:Sans;-inkscape-font-specification:Sans" d="M 8 24 A 1.0001 1.0001 0 0 0 7 25 L 7 75 A 1.0001 1.0001 0 0 0 8 76 L 92 76 A 1.0001 1.0001 0 0 0 93 75 L 93 25 A 1.0001 1.0001 0 0 0 92 24 L 8 24 z M 9 26 L 91 26 L 91 30.4375 L 50 57.78125 L 9 30.4375 L 9 26 z M 9 32.875 L 34.4375 49.84375 L 9 67.09375 L 9 32.875 z M 91 32.875 L 91 67.09375 L 65.5625 49.84375 L 91 32.875 z M 36.21875 51.03125 L 49.4375 59.84375 A 1.0001 1.0001 0 0 0 50.5625 59.84375 L 63.78125 51.03125 L 91 69.5 L 91 74 L 9 74 L 9 69.5 L 36.21875 51.03125 z " transform="translate(0,952.36218)"/></g><text x="0" y="115" fill="#000000" font-size="5px" font-weight="bold" font-family="'Helvetica Neue', Helvetica, Arial-Unicode, Arial, Sans-serif">Created by creative outlet</text><text x="0" y="120" fill="#000000" font-size="5px" font-weight="bold" font-family="'Helvetica Neue', Helvetica, Arial-Unicode, Arial, Sans-serif">from the Noun Project</text></svg>