<svg xmlns:dc="http://purl.org/dc/elements/1.1/" xmlns:cc="http://creativecommons.org/ns#" xmlns:rdf="http://www.w3.org/1999/02/22-rdf-syntax-ns#" xmlns:svg="http://www.w3.org/2000/svg" xmlns="http://www.w3.org/2000/svg" xmlns:sodipodi="http://sodipodi.sourceforge.net/DTD/sodipodi-0.dtd" xmlns:inkscape="http://www.inkscape.org/namespaces/inkscape" version="1.1" x="0px" y="0px" viewBox="0 0 100 125"><g transform="translate(0,-952.36218)"><path style="font-size:medium;font-style:normal;font-variant:normal;font-weight:normal;font-stretch:normal;text-indent:0;text-align:start;text-decoration:none;line-height:normal;letter-spacing:normal;word-spacing:normal;text-transform:none;direction:ltr;block-progression:tb;writing-mode:lr-tb;text-anchor:start;baseline-shift:baseline;opacity:1;color:#000000;fill:#000000;fill-opacity:1;stroke:none;stroke-width:2;marker:none;visibility:visible;display:inline;overflow:visible;enable-background:accumulate;font-family:Sans;-inkscape-font-specification:Sans" d="M 49.78125 13 A 1.0001 1.0001 0 0 0 49.4375 13.15625 L 7.4375 41.15625 A 1.0001 1.0001 0 0 0 7 42 L 7 86 A 1.0001 1.0001 0 0 0 8 87 L 92 87 A 1.0001 1.0001 0 0 0 93 86 L 93 42 A 1.0001 1.0001 0 0 0 92.5625 41.15625 L 50.5625 13.15625 A 1.0001 1.0001 0 0 0 49.78125 13 z M 50 15.1875 L 90.1875 42 L 50 68.78125 L 9.8125 42 L 50 15.1875 z M 9 43.84375 L 34.46875 60.8125 L 9 78.09375 L 9 43.84375 z M 91 43.84375 L 91 78.09375 L 65.53125 60.8125 L 91 43.84375 z M 36.25 62.03125 L 49.4375 70.8125 A 1.0001 1.0001 0 0 0 50.5625 70.8125 L 63.75 62.03125 L 91 80.53125 L 91 85 L 9 85 L 9 80.53125 L 36.25 62.03125 z " transform="translate(0,952.36218)"/></g><text x="0" y="115" fill="#000000" font-size="5px" font-weight="bold" font-family="'Helvetica Neue', Helvetica, Arial-Unicode, Arial, Sans-serif">Created by creative outlet</text><text x="0" y="120" fill="#000000" font-size="5px" font-weight="bold" font-family="'Helvetica Neue', Helvetica, Arial-Unicode, Arial, Sans-serif">from the Noun Project</text></svg>